<?xml version="1.0" standalone="no"?>
<!DOCTYPE svg PUBLIC "-//W3C//DTD SVG 1.1//EN" "http://www.w3.org/Graphics/SVG/1.1/DTD/svg11.dtd" >
<svg xmlns="http://www.w3.org/2000/svg" xmlns:xlink="http://www.w3.org/1999/xlink" version="1.1">
<metadata>
Created by FontForge 20190801 at Thu Jan 17 17:30:10 2019
 By Jimmy Wärting
Copyright 2016 The Muli Project Authors (https://github.com/googlefonts/MuliFont)
</metadata>
<defs>
<font id="Muli-MediumItalic" horiz-adv-x="0" >
  <font-face 
    font-family="Muli Medium"
    font-weight="500"
    font-style="italic"
    font-stretch="normal"
    units-per-em="1000"
    panose-1="0 0 0 0 0 0 0 0 0 0"
    ascent="800"
    descent="-200"
    x-height="502"
    cap-height="712"
    bbox="-224 -273 1323 1088"
    underline-thickness="50"
    underline-position="-125"
    slope="-4.541"
    unicode-range="U+000D-FB02"
  />
<missing-glyph horiz-adv-x="500" 
d="M50 -216h400v952h-400v-952zM100 -166v852h300v-852h-300z" />
    <glyph glyph-name="fi" unicode="fi" horiz-adv-x="584" 
d="M399 0l34 433h-412l6 70h502l-39 -503h-91zM438 624l7 101h110l-7 -101h-110zM359 657q-26 7 -48 7q-23 0 -42.5 -8.5t-32.5 -29.5t-16 -61l-46 -565h-90l46 576q7 83 51.5 124t115.5 41q17 0 34.5 -2.5t33.5 -6.5z" />
    <glyph glyph-name="fl" unicode="fl" horiz-adv-x="587" 
d="M21 433l7 70h329l-6 -70h-330zM359 657q-26 7 -48 7q-23 0 -42.5 -8.5t-32.5 -29.5t-16 -61l-46 -565h-90l46 576q7 83 51.5 124t115.5 41q17 0 34.5 -2.5t33.5 -6.5zM400 0l59 736h91l-59 -736h-91z" />
    <glyph glyph-name=".notdef" horiz-adv-x="500" 
d="M50 -216h400v952h-400v-952zM100 -166v852h300v-852h-300z" />
    <glyph glyph-name="A" unicode="A" horiz-adv-x="737" 
d="M92 0h-97l371 712h79l259 -712h-92l-226 643h31zM145 179l38 76h372l27 -76h-437z" />
    <glyph glyph-name="Aacute" unicode="&#xc1;" horiz-adv-x="737" 
d="M92 0h-97l371 712h79l259 -712h-92l-226 643h31zM145 179l38 76h372l27 -76h-437zM441 773h-62l112 153h102z" />
    <glyph glyph-name="Abreve" unicode="&#x102;" horiz-adv-x="737" 
d="M92 0h-97l371 712h79l259 -712h-92l-226 643h31zM145 179l38 76h372l27 -76h-437zM414 785q-55 0 -99 26t-63 81l57 23q19 -40 45.5 -54t62.5 -14q33 0 62 14t54 54l53 -23q-26 -56 -72 -81.5t-100 -25.5z" />
    <glyph glyph-name="uni1EAE" unicode="&#x1eae;" horiz-adv-x="737" 
d="M92 0h-97l371 712h79l259 -712h-92l-226 643h31zM145 179l38 76h372l27 -76h-437zM412 768q-55 0 -98 26t-63 81l50 21q21 -40 50 -55.5t65 -15.5q22 0 43 6.5t41 22t37 42.5l48 -21q-28 -58 -74.5 -82.5t-98.5 -24.5zM389 877l109 142h98l-149 -142h-58z" />
    <glyph glyph-name="uni1EB6" unicode="&#x1eb6;" horiz-adv-x="737" 
d="M92 0h-97l371 712h79l259 -712h-92l-226 643h31zM145 179l38 76h372l27 -76h-437zM294 -91h100l-9 -95h-100zM414 785q-55 0 -99 26t-63 81l57 23q19 -40 45.5 -54t62.5 -14q33 0 62 14t54 54l53 -23q-26 -56 -72 -81.5t-100 -25.5z" />
    <glyph glyph-name="uni1EB0" unicode="&#x1eb0;" horiz-adv-x="737" 
d="M92 0h-97l371 712h79l259 -712h-92l-226 643h31zM145 179l38 76h372l27 -76h-437zM412 768q-55 0 -98 26t-63 81l50 21q21 -40 50 -55.5t65 -15.5q22 0 43 6.5t41 22t37 42.5l48 -21q-28 -58 -74.5 -82.5t-98.5 -24.5zM389 877l-121 142h87l92 -142h-58z" />
    <glyph glyph-name="uni1EB2" unicode="&#x1eb2;" horiz-adv-x="737" 
d="M92 0h-97l371 712h79l259 -712h-92l-226 643h31zM145 179l38 76h372l27 -76h-437zM412 768q-55 0 -98 26t-63 81l50 21q21 -40 50 -55.5t65 -15.5q22 0 43 6.5t41 22t37 42.5l48 -21q-28 -58 -74.5 -82.5t-98.5 -24.5zM390 878l2 17q1 17 12 26.5t25 15t24.5 11
t10.5 13.5t-9.5 11.5t-24.5 3.5t-30.5 -2.5t-36.5 -8.5l-12 44q20 7 42 11.5t44 4.5q45 0 70.5 -15.5t25.5 -40.5q0 -21 -12.5 -32t-29 -17.5t-30 -13.5t-14.5 -20l-1 -8h-56z" />
    <glyph glyph-name="uni1EB4" unicode="&#x1eb4;" horiz-adv-x="737" 
d="M92 0h-97l371 712h79l259 -712h-92l-226 643h31zM145 179l38 76h372l27 -76h-437zM412 768q-55 0 -98 26t-63 81l50 21q21 -40 50 -55.5t65 -15.5q22 0 43 6.5t41 22t37 42.5l48 -21q-28 -58 -74.5 -82.5t-98.5 -24.5zM496 920q-29 0 -53.5 12.5t-46.5 25t-42 12.5
q-21 0 -34 -12.5t-15 -34.5h-48q2 34 15.5 57.5t35.5 35t48 11.5q29 0 53.5 -12.5t46.5 -24.5t43 -12q20 0 33 12t14 34h49q-2 -33 -15.5 -56.5t-35.5 -35.5t-48 -12z" />
    <glyph glyph-name="Acircumflex" unicode="&#xc2;" horiz-adv-x="737" 
d="M92 0h-97l371 712h79l259 -712h-92l-226 643h31zM145 179l38 76h372l27 -76h-437zM338 773h-79l134 153h58l110 -153h-78l-62 101z" />
    <glyph glyph-name="uni1EA4" unicode="&#x1ea4;" horiz-adv-x="737" 
d="M92 0h-97l371 712h79l259 -712h-92l-226 643h31zM145 179l38 76h372l27 -76h-437zM259 773l134 147h58l110 -147h-77l-64 96l-82 -96h-79zM505 877l98 142h96l-141 -142h-53z" />
    <glyph glyph-name="uni1EAC" unicode="&#x1eac;" horiz-adv-x="737" 
d="M92 0h-97l371 712h79l259 -712h-92l-226 643h31zM145 179l38 76h372l27 -76h-437zM294 -91h100l-9 -95h-100zM338 773h-79l134 153h58l110 -153h-78l-62 101z" />
    <glyph glyph-name="uni1EA6" unicode="&#x1ea6;" horiz-adv-x="737" 
d="M92 0h-97l371 712h79l259 -712h-92l-226 643h31zM145 179l38 76h372l27 -76h-437zM259 773l134 147h58l110 -147h-77l-64 96l-82 -96h-79zM547 877l-100 142h85l70 -142h-55z" />
    <glyph glyph-name="uni1EA8" unicode="&#x1ea8;" horiz-adv-x="737" 
d="M92 0h-97l371 712h79l259 -712h-92l-226 643h31zM145 179l38 76h372l27 -76h-437zM259 773l134 147h58l110 -147h-77l-64 96l-82 -96h-79zM504 878l1 17q1 17 12.5 26.5t25.5 15t25 11t11 13.5t-10 11.5t-25 3.5t-31 -2.5t-36 -8.5l-11 44q19 7 41 11.5t44 4.5
q45 0 70.5 -15.5t25.5 -40.5q0 -21 -12.5 -32t-28.5 -17.5t-29.5 -13.5t-15.5 -20l-1 -8h-56z" />
    <glyph glyph-name="uni1EAA" unicode="&#x1eaa;" horiz-adv-x="737" 
d="M92 0h-97l371 712h79l259 -712h-92l-226 643h31zM145 179l38 76h372l27 -76h-437zM259 773l134 147h58l110 -147h-77l-64 96l-82 -96h-79zM258 935q2 32 15.5 54.5t35.5 34t48 11.5q29 0 54 -10t46.5 -20.5t42.5 -10.5q20 0 33 11.5t14 31.5h49q-2 -32 -15.5 -54.5
t-35.5 -34.5t-48 -12q-30 0 -54.5 10.5t-46 21t-42.5 10.5q-20 0 -33 -12t-15 -31h-48z" />
    <glyph glyph-name="uni0200" unicode="&#x200;" horiz-adv-x="737" 
d="M92 0h-97l371 712h79l259 -712h-92l-226 643h31zM145 179l38 76h372l27 -76h-437zM447 773l-86 153h73l61 -153h-48zM325 773l-87 153h73l62 -153h-48z" />
    <glyph glyph-name="Adieresis" unicode="&#xc4;" horiz-adv-x="737" 
d="M92 0h-97l371 712h79l259 -712h-92l-226 643h31zM145 179l38 76h372l27 -76h-437zM459 896h97l-6 -92h-98zM283 896h98l-8 -92h-96z" />
    <glyph glyph-name="uni1EA0" unicode="&#x1ea0;" horiz-adv-x="737" 
d="M92 0h-97l371 712h79l259 -712h-92l-226 643h31zM145 179l38 76h372l27 -76h-437zM294 -91h100l-9 -95h-100z" />
    <glyph glyph-name="Agrave" unicode="&#xc0;" horiz-adv-x="737" 
d="M92 0h-97l371 712h79l259 -712h-92l-226 643h31zM145 179l38 76h372l27 -76h-437zM379 773l-122 153h91l93 -153h-62z" />
    <glyph glyph-name="uni1EA2" unicode="&#x1ea2;" horiz-adv-x="737" 
d="M92 0h-97l371 712h79l259 -712h-92l-226 643h31zM145 179l38 76h372l27 -76h-437zM439 783l-1 -10h-56l2 18q1 17 12 27t25 17t24.5 13.5t10.5 16.5q0 7 -9.5 11.5t-26.5 4.5q-14 0 -29 -2.5t-35 -9.5l-12 45q20 8 41.5 12t42.5 4q47 0 72 -16.5t25 -42.5
q0 -22 -12.5 -34t-29 -19t-30 -14.5t-14.5 -20.5z" />
    <glyph glyph-name="uni0202" unicode="&#x202;" horiz-adv-x="737" 
d="M92 0h-97l371 712h79l259 -712h-92l-226 643h31zM145 179l38 76h372l27 -76h-437zM418 916q55 0 99 -26.5t63 -81.5l-57 -22q-19 38 -45.5 53t-62.5 15q-34 0 -62.5 -15t-53.5 -53l-53 22q26 57 72 82.5t100 25.5z" />
    <glyph glyph-name="Amacron" unicode="&#x100;" horiz-adv-x="737" 
d="M92 0h-97l371 712h79l259 -712h-92l-226 643h31zM145 179l38 76h372l27 -76h-437zM261 817l6 66h304l-5 -66h-305z" />
    <glyph glyph-name="Aogonek" unicode="&#x104;" horiz-adv-x="737" 
d="M145 179l38 76h372l27 -76h-437zM709 -122l11 -51q-17 -10 -39.5 -16t-46.5 -6q-53 0 -84 28t-31 74q0 48 29.5 82t87.5 48l-24 -37l-226 643h31l-325 -643h-97l371 712h79l259 -712h-23q-32 0 -52.5 -11.5t-30 -30t-9.5 -38.5q0 -29 15.5 -43.5t42.5 -14.5q13 0 29 4.5
t33 11.5z" />
    <glyph glyph-name="Aring" unicode="&#xc5;" horiz-adv-x="737" 
d="M-5 0l371 712h79l259 -712h-92l-226 643h31l-325 -643h-97zM145 179l38 76h372l27 -76h-437zM410 681q-43 0 -73.5 28.5t-30.5 72.5q0 42 30.5 71.5t73.5 29.5t73 -29.5t30 -71.5q0 -44 -30 -72.5t-73 -28.5zM410 731q20 0 33.5 14.5t13.5 36.5q0 20 -13.5 34.5
t-33.5 14.5q-21 0 -34.5 -14.5t-13.5 -34.5q0 -22 13.5 -36.5t34.5 -14.5z" />
    <glyph glyph-name="Aringacute" unicode="&#x1fa;" horiz-adv-x="737" 
d="M-5 0l371 712h79l259 -712h-92l-226 643h31l-325 -643h-97zM145 179l38 76h372l27 -76h-437zM410 681q-43 0 -73.5 28.5t-30.5 72.5q0 42 30.5 71.5t73.5 29.5t73 -29.5t30 -71.5q0 -44 -30 -72.5t-73 -28.5zM410 731q20 0 33.5 14.5t13.5 36.5q0 20 -13.5 34.5
t-33.5 14.5q-21 0 -34.5 -14.5t-13.5 -34.5q0 -22 13.5 -36.5t34.5 -14.5zM495 825l-42 27l99 99h105z" />
    <glyph glyph-name="Atilde" unicode="&#xc3;" horiz-adv-x="737" 
d="M92 0h-97l371 712h79l259 -712h-92l-226 643h31zM145 179l38 76h372l27 -76h-437zM247 792q2 42 16 68.5t36.5 39t49.5 12.5q28 0 51.5 -14t45.5 -28.5t41 -14.5q22 0 35.5 14t14.5 40h49q-2 -42 -16.5 -68t-37 -39t-49.5 -13q-28 0 -51.5 14.5t-45 28.5t-40.5 14
q-22 0 -35.5 -14t-15.5 -40h-48z" />
    <glyph glyph-name="AE" unicode="&#xc6;" horiz-adv-x="1002" 
d="M-26 0l491 712h526l-6 -76h-502l31 13l-435 -649h-105zM138 179l40 76h385l12 -76h-437zM537 0l-3 670h84l5 -594h319l-7 -76h-398zM572 323l7 77h367l-6 -77h-368z" />
    <glyph glyph-name="AEacute" unicode="&#x1fc;" horiz-adv-x="1002" 
d="M-26 0l491 712h526l-6 -76h-502l31 13l-435 -649h-105zM138 179l40 76h385l12 -76h-437zM537 0l-3 670h84l5 -594h319l-7 -76h-398zM572 323l7 77h367l-6 -77h-368zM624 773h-62l112 153h102z" />
    <glyph glyph-name="B" unicode="B" horiz-adv-x="684" 
d="M68 0l55 712h282q75 0 126.5 -21.5t77 -60.5t25.5 -93q0 -64 -35 -110t-105 -66l-6 7q66 -13 101 -56.5t35 -106.5q0 -65 -29.5 -111t-85 -70t-131.5 -24h-310zM165 75h209q79 0 119.5 32t40.5 98q0 59 -36 88.5t-112 29.5h-216l7 77h206q77 0 118 32t41 95
q0 54 -36.5 82t-110.5 28h-186z" />
    <glyph glyph-name="C" unicode="C" horiz-adv-x="684" 
d="M378 -8q-95 0 -164.5 40t-107.5 115.5t-38 179.5q0 120 43 208t120.5 136.5t183.5 48.5q77 0 141.5 -22t110.5 -67l-40 -69q-47 42 -96 60.5t-114 18.5q-80 0 -137 -38t-86.5 -108.5t-29.5 -168.5q0 -123 58 -189t166 -66q51 0 103 18.5t104 61.5l28 -70
q-45 -43 -108 -66t-137 -23z" />
    <glyph glyph-name="Cacute" unicode="&#x106;" horiz-adv-x="684" 
d="M378 -8q-95 0 -164.5 40t-107.5 115.5t-38 179.5q0 120 43 208t120.5 136.5t183.5 48.5q77 0 141.5 -22t110.5 -67l-40 -69q-47 42 -96 60.5t-114 18.5q-80 0 -137 -38t-86.5 -108.5t-29.5 -168.5q0 -123 58 -189t166 -66q51 0 103 18.5t104 61.5l28 -70
q-45 -43 -108 -66t-137 -23zM463 773h-62l112 153h102z" />
    <glyph glyph-name="Ccaron" unicode="&#x10c;" horiz-adv-x="684" 
d="M378 -8q-95 0 -164.5 40t-107.5 115.5t-38 179.5q0 120 43 208t120.5 136.5t183.5 48.5q77 0 141.5 -22t110.5 -67l-40 -69q-47 42 -96 60.5t-114 18.5q-80 0 -137 -38t-86.5 -108.5t-29.5 -168.5q0 -123 58 -189t166 -66q51 0 103 18.5t104 61.5l28 -70
q-45 -43 -108 -66t-137 -23zM516 926h79l-134 -153h-58l-110 153h78l66 -102z" />
    <glyph glyph-name="Ccedilla" unicode="&#xc7;" horiz-adv-x="684" 
d="M378 -8q-95 0 -164.5 40t-107.5 115.5t-38 179.5q0 120 43 208t120.5 136.5t183.5 48.5q77 0 141.5 -22t110.5 -67l-40 -69q-47 42 -96 60.5t-114 18.5q-80 0 -137 -38t-86.5 -108.5t-29.5 -168.5q0 -123 58 -189t166 -66q51 0 103 18.5t104 61.5l28 -70
q-45 -43 -108 -66t-137 -23zM358 -195q-20 0 -46 4.5t-46 13.5l15 46q22 -8 41.5 -11t35.5 -3q25 0 40.5 8t15.5 26q0 26 -35 26q-12 0 -23 -2.5t-20 -5.5l-18 16l19 97h60l-15 -73l-26 2q13 6 24 8t23 2q33 0 54 -17.5t21 -50.5q0 -37 -30.5 -61.5t-89.5 -24.5z" />
    <glyph glyph-name="uni1E08" unicode="&#x1e08;" horiz-adv-x="684" 
d="M378 -8q-95 0 -164.5 40t-107.5 115.5t-38 179.5q0 120 43 208t120.5 136.5t183.5 48.5q77 0 141.5 -22t110.5 -67l-40 -69q-47 42 -96 60.5t-114 18.5q-80 0 -137 -38t-86.5 -108.5t-29.5 -168.5q0 -123 58 -189t166 -66q51 0 103 18.5t104 61.5l28 -70
q-45 -43 -108 -66t-137 -23zM358 -195q-20 0 -46 4.5t-46 13.5l15 46q22 -8 41.5 -11t35.5 -3q25 0 40.5 8t15.5 26q0 26 -35 26q-12 0 -23 -2.5t-20 -5.5l-18 16l19 97h60l-15 -73l-26 2q13 6 24 8t23 2q33 0 54 -17.5t21 -50.5q0 -37 -30.5 -61.5t-89.5 -24.5zM463 773
h-62l112 153h102z" />
    <glyph glyph-name="Ccircumflex" unicode="&#x108;" horiz-adv-x="684" 
d="M378 -8q-95 0 -164.5 40t-107.5 115.5t-38 179.5q0 120 43 208t120.5 136.5t183.5 48.5q77 0 141.5 -22t110.5 -67l-40 -69q-47 42 -96 60.5t-114 18.5q-80 0 -137 -38t-86.5 -108.5t-29.5 -168.5q0 -123 58 -189t166 -66q51 0 103 18.5t104 61.5l28 -70
q-45 -43 -108 -66t-137 -23zM360 773h-79l134 153h58l110 -153h-78l-62 101z" />
    <glyph glyph-name="Cdotaccent" unicode="&#x10a;" horiz-adv-x="684" 
d="M378 -8q-95 0 -164.5 40t-107.5 115.5t-38 179.5q0 120 43 208t120.5 136.5t183.5 48.5q77 0 141.5 -22t110.5 -67l-40 -69q-47 42 -96 60.5t-114 18.5q-80 0 -137 -38t-86.5 -108.5t-29.5 -168.5q0 -123 58 -189t166 -66q51 0 103 18.5t104 61.5l28 -70
q-45 -43 -108 -66t-137 -23zM388 900h108l-8 -99h-108z" />
    <glyph glyph-name="D" unicode="D" horiz-adv-x="750" 
d="M67 0l55 712h241q107 0 182.5 -38.5t114.5 -112t39 -177.5q0 -120 -43 -206t-125 -132t-199 -46h-265zM166 78h160q140 0 209 79.5t69 227.5q0 123 -62 186t-188 63h-144z" />
    <glyph glyph-name="uni01C4" unicode="&#x1c4;" horiz-adv-x="1334" 
d="M67 0l55 712h241q107 0 182.5 -38.5t114.5 -112t39 -177.5q0 -120 -43 -206t-125 -132t-199 -46h-265zM166 78h160q140 0 209 79.5t69 227.5q0 123 -62 186t-188 63h-144zM762 0l4 69l473 609l-2 -43h-425l6 77h505l-6 -67l-472 -611l2 43h437l-7 -77h-515zM1159 926h79
l-134 -153h-58l-110 153h78l66 -102z" />
    <glyph glyph-name="Eth" unicode="&#xd0;" horiz-adv-x="766" 
d="M15 324l5 73h380l-6 -73h-379zM82 0l55 712h241q108 0 183 -38.5t114 -112t39 -177.5q0 -120 -43 -206t-124.5 -132t-199.5 -46h-265zM181 78h161q138 0 207.5 79.5t69.5 227.5q0 123 -62 186t-186 63h-146z" />
    <glyph glyph-name="Dcaron" unicode="&#x10e;" horiz-adv-x="750" 
d="M67 0l55 712h241q107 0 182.5 -38.5t114.5 -112t39 -177.5q0 -120 -43 -206t-125 -132t-199 -46h-265zM166 78h160q140 0 209 79.5t69 227.5q0 123 -62 186t-188 63h-144zM500 926h79l-134 -153h-58l-110 153h78l66 -102z" />
    <glyph glyph-name="Dcroat" unicode="&#x110;" horiz-adv-x="766" 
d="M15 324l5 73h380l-6 -73h-379zM82 0l55 712h241q108 0 183 -38.5t114 -112t39 -177.5q0 -120 -43 -206t-124.5 -132t-199.5 -46h-265zM181 78h161q138 0 207.5 79.5t69.5 227.5q0 123 -62 186t-186 63h-146z" />
    <glyph glyph-name="uni1E0C" unicode="&#x1e0c;" horiz-adv-x="750" 
d="M67 0l55 712h241q107 0 182.5 -38.5t114.5 -112t39 -177.5q0 -120 -43 -206t-125 -132t-199 -46h-265zM166 78h160q140 0 209 79.5t69 227.5q0 123 -62 186t-188 63h-144zM300 -91h100l-9 -95h-100z" />
    <glyph glyph-name="uni1E0E" unicode="&#x1e0e;" horiz-adv-x="750" 
d="M67 0l55 712h241q107 0 182.5 -38.5t114.5 -112t39 -177.5q0 -120 -43 -206t-125 -132t-199 -46h-265zM166 78h160q140 0 209 79.5t69 227.5q0 123 -62 186t-188 63h-144zM191 -171l5 64h304l-5 -64h-304z" />
    <glyph glyph-name="uni01C5" unicode="&#x1c5;" horiz-adv-x="1270" 
d="M67 0l55 712h241q107 0 182.5 -38.5t114.5 -112t39 -177.5q0 -120 -43 -206t-125 -132t-199 -46h-265zM166 78h160q140 0 209 79.5t69 227.5q0 123 -62 186t-188 63h-144zM780 0l5 62l365 404l12 -33h-338l6 70h406l-4 -64l-363 -403l-11 34h355l-5 -70h-428zM1124 773
h83l-137 -205h-61l-105 205h79l60 -141z" />
    <glyph glyph-name="E" unicode="E" horiz-adv-x="590" 
d="M67 0l56 712h456l-5 -76h-365l-45 -560h365l-6 -76h-456zM170 323l6 77h359l-7 -77h-358z" />
    <glyph glyph-name="Eacute" unicode="&#xc9;" horiz-adv-x="590" 
d="M67 0l56 712h456l-5 -76h-365l-45 -560h365l-6 -76h-456zM170 323l6 77h359l-7 -77h-358zM401 773h-62l112 153h102z" />
    <glyph glyph-name="Ebreve" unicode="&#x114;" horiz-adv-x="590" 
d="M67 0l56 712h456l-5 -76h-365l-45 -560h365l-6 -76h-456zM170 323l6 77h359l-7 -77h-358zM374 785q-55 0 -99 26t-63 81l57 23q19 -40 45.5 -54t62.5 -14q33 0 62 14t54 54l53 -23q-26 -56 -72 -81.5t-100 -25.5z" />
    <glyph glyph-name="Ecaron" unicode="&#x11a;" horiz-adv-x="590" 
d="M67 0l56 712h456l-5 -76h-365l-45 -560h365l-6 -76h-456zM170 323l6 77h359l-7 -77h-358zM454 926h79l-134 -153h-58l-110 153h78l66 -102z" />
    <glyph glyph-name="uni0228" unicode="&#x228;" horiz-adv-x="590" 
d="M67 0l56 712h456l-5 -76h-365l-45 -560h365l-6 -76h-456zM170 323l6 77h359l-7 -77h-358zM295 -195q-20 0 -46 4.5t-46 13.5l15 46q22 -8 41.5 -11t35.5 -3q25 0 40.5 8t15.5 26q0 26 -35 26q-12 0 -23 -2.5t-20 -5.5l-18 16l19 97h60l-15 -73l-26 2q13 6 24 8t23 2
q33 0 54 -17.5t21 -50.5q0 -37 -30.5 -61.5t-89.5 -24.5z" />
    <glyph glyph-name="uni1E1C" unicode="&#x1e1c;" horiz-adv-x="590" 
d="M67 0l56 712h456l-5 -76h-365l-45 -560h365l-6 -76h-456zM170 323l6 77h359l-7 -77h-358zM295 -195q-20 0 -46 4.5t-46 13.5l15 46q22 -8 41.5 -11t35.5 -3q25 0 40.5 8t15.5 26q0 26 -35 26q-12 0 -23 -2.5t-20 -5.5l-18 16l19 97h60l-15 -73l-26 2q13 6 24 8t23 2
q33 0 54 -17.5t21 -50.5q0 -37 -30.5 -61.5t-89.5 -24.5zM374 785q-55 0 -99 26t-63 81l57 23q19 -40 45.5 -54t62.5 -14q33 0 62 14t54 54l53 -23q-26 -56 -72 -81.5t-100 -25.5z" />
    <glyph glyph-name="Ecircumflex" unicode="&#xca;" horiz-adv-x="590" 
d="M67 0l56 712h456l-5 -76h-365l-45 -560h365l-6 -76h-456zM170 323l6 77h359l-7 -77h-358zM298 773h-79l134 153h58l110 -153h-78l-62 101z" />
    <glyph glyph-name="uni1EBE" unicode="&#x1ebe;" horiz-adv-x="590" 
d="M67 0l56 712h456l-5 -76h-365l-45 -560h365l-6 -76h-456zM170 323l6 77h359l-7 -77h-358zM219 773l134 147h58l110 -147h-77l-64 96l-82 -96h-79zM465 877l98 142h96l-141 -142h-53z" />
    <glyph glyph-name="uni1EC6" unicode="&#x1ec6;" horiz-adv-x="590" 
d="M67 0l56 712h456l-5 -76h-365l-45 -560h365l-6 -76h-456zM170 323l6 77h359l-7 -77h-358zM253 -91h100l-9 -95h-100zM298 773h-79l134 153h58l110 -153h-78l-62 101z" />
    <glyph glyph-name="uni1EC0" unicode="&#x1ec0;" horiz-adv-x="590" 
d="M67 0l56 712h456l-5 -76h-365l-45 -560h365l-6 -76h-456zM170 323l6 77h359l-7 -77h-358zM219 773l134 147h58l110 -147h-77l-64 96l-82 -96h-79zM507 877l-100 142h85l70 -142h-55z" />
    <glyph glyph-name="uni1EC2" unicode="&#x1ec2;" horiz-adv-x="590" 
d="M67 0l56 712h456l-5 -76h-365l-45 -560h365l-6 -76h-456zM170 323l6 77h359l-7 -77h-358zM219 773l134 147h58l110 -147h-77l-64 96l-82 -96h-79zM464 878l1 17q1 17 12.5 26.5t25.5 15t25 11t11 13.5t-10 11.5t-25 3.5t-31 -2.5t-36 -8.5l-11 44q19 7 41 11.5t44 4.5
q45 0 70.5 -15.5t25.5 -40.5q0 -21 -12.5 -32t-28.5 -17.5t-29.5 -13.5t-15.5 -20l-1 -8h-56z" />
    <glyph glyph-name="uni1EC4" unicode="&#x1ec4;" horiz-adv-x="590" 
d="M67 0l56 712h456l-5 -76h-365l-45 -560h365l-6 -76h-456zM170 323l6 77h359l-7 -77h-358zM219 773l134 147h58l110 -147h-77l-64 96l-82 -96h-79zM218 935q2 32 15.5 54.5t35.5 34t48 11.5q29 0 54 -10t46.5 -20.5t42.5 -10.5q20 0 33 11.5t14 31.5h49
q-2 -32 -15.5 -54.5t-35.5 -34.5t-48 -12q-30 0 -54.5 10.5t-46 21t-42.5 10.5q-20 0 -33 -12t-15 -31h-48z" />
    <glyph glyph-name="uni0204" unicode="&#x204;" horiz-adv-x="590" 
d="M67 0l56 712h456l-5 -76h-365l-45 -560h365l-6 -76h-456zM170 323l6 77h359l-7 -77h-358zM407 773l-86 153h73l61 -153h-48zM285 773l-87 153h73l62 -153h-48z" />
    <glyph glyph-name="Edieresis" unicode="&#xcb;" horiz-adv-x="590" 
d="M67 0l56 712h456l-5 -76h-365l-45 -560h365l-6 -76h-456zM170 323l6 77h359l-7 -77h-358zM419 896h97l-6 -92h-98zM243 896h98l-8 -92h-96z" />
    <glyph glyph-name="Edotaccent" unicode="&#x116;" horiz-adv-x="590" 
d="M67 0l56 712h456l-5 -76h-365l-45 -560h365l-6 -76h-456zM170 323l6 77h359l-7 -77h-358zM326 900h108l-8 -99h-108z" />
    <glyph glyph-name="uni1EB8" unicode="&#x1eb8;" horiz-adv-x="590" 
d="M67 0l56 712h456l-5 -76h-365l-45 -560h365l-6 -76h-456zM170 323l6 77h359l-7 -77h-358zM253 -91h100l-9 -95h-100z" />
    <glyph glyph-name="Egrave" unicode="&#xc8;" horiz-adv-x="590" 
d="M67 0l56 712h456l-5 -76h-365l-45 -560h365l-6 -76h-456zM170 323l6 77h359l-7 -77h-358zM339 773l-122 153h91l93 -153h-62z" />
    <glyph glyph-name="uni1EBA" unicode="&#x1eba;" horiz-adv-x="590" 
d="M67 0l56 712h456l-5 -76h-365l-45 -560h365l-6 -76h-456zM170 323l6 77h359l-7 -77h-358zM399 783l-1 -10h-56l2 18q1 17 12 27t25 17t24.5 13.5t10.5 16.5q0 7 -9.5 11.5t-26.5 4.5q-14 0 -29 -2.5t-35 -9.5l-12 45q20 8 41.5 12t42.5 4q47 0 72 -16.5t25 -42.5
q0 -22 -12.5 -34t-29 -19t-30 -14.5t-14.5 -20.5z" />
    <glyph glyph-name="uni0206" unicode="&#x206;" horiz-adv-x="590" 
d="M67 0l56 712h456l-5 -76h-365l-45 -560h365l-6 -76h-456zM170 323l6 77h359l-7 -77h-358zM378 916q55 0 99 -26.5t63 -81.5l-57 -22q-19 38 -45.5 53t-62.5 15q-34 0 -62.5 -15t-53.5 -53l-53 22q26 57 72 82.5t100 25.5z" />
    <glyph glyph-name="Emacron" unicode="&#x112;" horiz-adv-x="590" 
d="M67 0l56 712h456l-5 -76h-365l-45 -560h365l-6 -76h-456zM170 323l6 77h359l-7 -77h-358zM221 817l6 66h304l-5 -66h-305z" />
    <glyph glyph-name="uni1E16" unicode="&#x1e16;" horiz-adv-x="590" 
d="M67 0l56 712h456l-5 -76h-365l-45 -560h365l-6 -76h-456zM170 323l6 77h359l-7 -77h-358zM221 817l6 66h304l-5 -66h-305zM414 935h-62l112 153h102z" />
    <glyph glyph-name="uni1E14" unicode="&#x1e14;" horiz-adv-x="590" 
d="M67 0l56 712h456l-5 -76h-365l-45 -560h365l-6 -76h-456zM170 323l6 77h359l-7 -77h-358zM221 817l6 66h304l-5 -66h-305zM352 935l-122 153h91l93 -153h-62z" />
    <glyph glyph-name="Eogonek" unicode="&#x118;" horiz-adv-x="590" 
d="M176 400h359l-7 -77h-358zM164 76h365l-6 -76h-17q-47 0 -70.5 -23.5t-23.5 -55.5q0 -30 16 -44.5t44 -14.5q12 0 27.5 4.5t32.5 11.5l12 -51q-17 -10 -39.5 -16t-46.5 -6q-54 0 -85 28t-31 72q0 38 19.5 67t55.5 47l18 -19h-368l56 712h456l-6 -76h-364z" />
    <glyph glyph-name="uni1EBC" unicode="&#x1ebc;" horiz-adv-x="590" 
d="M67 0l56 712h456l-5 -76h-365l-45 -560h365l-6 -76h-456zM170 323l6 77h359l-7 -77h-358zM207 792q2 42 16 68.5t36.5 39t49.5 12.5q28 0 51.5 -14t45.5 -28.5t41 -14.5q22 0 35.5 14t14.5 40h49q-2 -42 -16.5 -68t-37 -39t-49.5 -13q-28 0 -51.5 14.5t-45 28.5t-40.5 14
q-22 0 -35.5 -14t-15.5 -40h-48z" />
    <glyph glyph-name="F" unicode="F" horiz-adv-x="566" 
d="M177 400h346l-5 -77h-348zM159 0h-92l56 712h446l-6 -77h-353z" />
    <glyph glyph-name="G" unicode="G" horiz-adv-x="733" 
d="M396 -8q-106 0 -179 39t-111 113t-38 177q0 122 44 211.5t124.5 138.5t190.5 49q76 0 138.5 -22t110.5 -67l-40 -70q-49 42 -97.5 62t-110.5 19q-84 -1 -143 -39.5t-90 -109.5t-31 -170q0 -121 59 -188t180 -67q44 0 91.5 9t88.5 26l-26 -44l19 244h-172l6 71h257
l-27 -332q-30 -15 -70.5 -26.5t-85.5 -17.5t-88 -6z" />
    <glyph glyph-name="Gbreve" unicode="&#x11e;" horiz-adv-x="733" 
d="M396 -8q-106 0 -179 39t-111 113t-38 177q0 122 44 211.5t124.5 138.5t190.5 49q76 0 138.5 -22t110.5 -67l-40 -70q-49 42 -97.5 62t-110.5 19q-84 -1 -143 -39.5t-90 -109.5t-31 -170q0 -121 59 -188t180 -67q44 0 91.5 9t88.5 26l-26 -44l19 244h-172l6 71h257
l-27 -332q-30 -15 -70.5 -26.5t-85.5 -17.5t-88 -6zM444 785q-55 0 -99 26t-63 81l57 23q19 -40 45.5 -54t62.5 -14q33 0 62 14t54 54l53 -23q-26 -56 -72 -81.5t-100 -25.5z" />
    <glyph glyph-name="Gcaron" unicode="&#x1e6;" horiz-adv-x="733" 
d="M396 -8q-106 0 -179 39t-111 113t-38 177q0 122 44 211.5t124.5 138.5t190.5 49q76 0 138.5 -22t110.5 -67l-40 -70q-49 42 -97.5 62t-110.5 19q-84 -1 -143 -39.5t-90 -109.5t-31 -170q0 -121 59 -188t180 -67q44 0 91.5 9t88.5 26l-26 -44l19 244h-172l6 71h257
l-27 -332q-30 -15 -70.5 -26.5t-85.5 -17.5t-88 -6zM524 926h79l-134 -153h-58l-110 153h78l66 -102z" />
    <glyph glyph-name="Gcircumflex" unicode="&#x11c;" horiz-adv-x="733" 
d="M396 -8q-106 0 -179 39t-111 113t-38 177q0 122 44 211.5t124.5 138.5t190.5 49q76 0 138.5 -22t110.5 -67l-40 -70q-49 42 -97.5 62t-110.5 19q-84 -1 -143 -39.5t-90 -109.5t-31 -170q0 -121 59 -188t180 -67q44 0 91.5 9t88.5 26l-26 -44l19 244h-172l6 71h257
l-27 -332q-30 -15 -70.5 -26.5t-85.5 -17.5t-88 -6zM368 773h-79l134 153h58l110 -153h-78l-62 101z" />
    <glyph glyph-name="uni0122" unicode="&#x122;" horiz-adv-x="733" 
d="M396 -8q-106 0 -179 39t-111 113t-38 177q0 122 44 211.5t124.5 138.5t190.5 49q76 0 138.5 -22t110.5 -67l-40 -70q-49 42 -97.5 62t-110.5 19q-84 -1 -143 -39.5t-90 -109.5t-31 -170q0 -121 59 -188t180 -67q44 0 91.5 9t88.5 26l-26 -44l19 244h-172l6 71h257
l-27 -332q-30 -15 -70.5 -26.5t-85.5 -17.5t-88 -6zM435 -72l-4 -59q-4 -39 -17.5 -71.5t-46.5 -61.5l-37 29q25 24 33.5 45t9.5 45l24 -15h-75l6 88h107z" />
    <glyph glyph-name="Gdotaccent" unicode="&#x120;" horiz-adv-x="733" 
d="M396 -8q-106 0 -179 39t-111 113t-38 177q0 122 44 211.5t124.5 138.5t190.5 49q76 0 138.5 -22t110.5 -67l-40 -70q-49 42 -97.5 62t-110.5 19q-84 -1 -143 -39.5t-90 -109.5t-31 -170q0 -121 59 -188t180 -67q44 0 91.5 9t88.5 26l-26 -44l19 244h-172l6 71h257
l-27 -332q-30 -15 -70.5 -26.5t-85.5 -17.5t-88 -6zM396 900h108l-8 -99h-108z" />
    <glyph glyph-name="uni1E20" unicode="&#x1e20;" horiz-adv-x="733" 
d="M396 -8q-106 0 -179 39t-111 113t-38 177q0 122 44 211.5t124.5 138.5t190.5 49q76 0 138.5 -22t110.5 -67l-40 -70q-49 42 -97.5 62t-110.5 19q-84 -1 -143 -39.5t-90 -109.5t-31 -170q0 -121 59 -188t180 -67q44 0 91.5 9t88.5 26l-26 -44l19 244h-172l6 71h257
l-27 -332q-30 -15 -70.5 -26.5t-85.5 -17.5t-88 -6zM291 817l6 66h304l-5 -66h-305z" />
    <glyph glyph-name="H" unicode="H" horiz-adv-x="768" 
d="M571 0l56 712h92l-56 -712h-92zM67 0l56 712h92l-56 -712h-92zM132 323l7 77h517l-7 -77h-517z" />
    <glyph glyph-name="Hbar" unicode="&#x126;" horiz-adv-x="799" 
d="M30 523l6 73h782l-6 -73h-782zM593 0l55 712h93l-56 -712h-92zM89 0l56 712h92l-56 -712h-92zM155 323l6 77h505l-7 -77h-504z" />
    <glyph glyph-name="uni1E2A" unicode="&#x1e2a;" horiz-adv-x="768" 
d="M571 0l56 712h92l-56 -712h-92zM67 0l56 712h92l-56 -712h-92zM132 323l7 77h517l-7 -77h-517zM351 -215q-53 0 -98 31t-63 98l56 23q18 -48 47 -67.5t63 -19.5t64 18.5t55 68.5l54 -22q-18 -47 -45.5 -75.5t-62 -41.5t-70.5 -13z" />
    <glyph glyph-name="Hcircumflex" unicode="&#x124;" horiz-adv-x="768" 
d="M571 0l56 712h92l-56 -712h-92zM67 0l56 712h92l-56 -712h-92zM132 323l7 77h517l-7 -77h-517zM353 773h-79l134 153h58l110 -153h-78l-62 101z" />
    <glyph glyph-name="uni1E24" unicode="&#x1e24;" horiz-adv-x="768" 
d="M571 0l56 712h92l-56 -712h-92zM67 0l56 712h92l-56 -712h-92zM132 323l7 77h517l-7 -77h-517zM310 -91h100l-9 -95h-100z" />
    <glyph glyph-name="I" unicode="I" horiz-adv-x="264" 
d="M67 0l55 712h94l-56 -712h-93z" />
    <glyph glyph-name="Iacute" unicode="&#xcd;" horiz-adv-x="264" 
d="M67 0l55 712h94l-56 -712h-93zM206 773h-62l112 153h102z" />
    <glyph glyph-name="Ibreve" unicode="&#x12c;" horiz-adv-x="264" 
d="M67 0l55 712h94l-56 -712h-93zM179 785q-55 0 -99 26t-63 81l57 23q19 -40 45.5 -54t62.5 -14q33 0 62 14t54 54l53 -23q-26 -56 -72 -81.5t-100 -25.5z" />
    <glyph glyph-name="Icircumflex" unicode="&#xce;" horiz-adv-x="264" 
d="M67 0l55 712h94l-56 -712h-93zM103 773h-79l134 153h58l110 -153h-78l-62 101z" />
    <glyph glyph-name="uni0208" unicode="&#x208;" horiz-adv-x="264" 
d="M67 0l55 712h94l-56 -712h-93zM212 773l-86 153h73l61 -153h-48zM90 773l-87 153h73l62 -153h-48z" />
    <glyph glyph-name="Idieresis" unicode="&#xcf;" horiz-adv-x="264" 
d="M67 0l55 712h94l-56 -712h-93zM224 896h97l-6 -92h-98zM48 896h98l-8 -92h-96z" />
    <glyph glyph-name="uni1E2E" unicode="&#x1e2e;" horiz-adv-x="264" 
d="M67 0l55 712h94l-56 -712h-93zM224 896h97l-6 -92h-98zM48 896h98l-8 -92h-96zM219 935h-62l112 153h102z" />
    <glyph glyph-name="Idotaccent" unicode="&#x130;" horiz-adv-x="264" 
d="M67 0l55 712h94l-56 -712h-93zM131 900h108l-8 -99h-108z" />
    <glyph glyph-name="uni1ECA" unicode="&#x1eca;" horiz-adv-x="264" 
d="M67 0l55 712h94l-56 -712h-93zM58 -91h100l-9 -95h-100z" />
    <glyph glyph-name="Igrave" unicode="&#xcc;" horiz-adv-x="264" 
d="M67 0l55 712h94l-56 -712h-93zM144 773l-122 153h91l93 -153h-62z" />
    <glyph glyph-name="uni1EC8" unicode="&#x1ec8;" horiz-adv-x="264" 
d="M67 0l55 712h94l-56 -712h-93zM204 783l-1 -10h-56l2 18q1 17 12 27t25 17t24.5 13.5t10.5 16.5q0 7 -9.5 11.5t-26.5 4.5q-14 0 -29 -2.5t-35 -9.5l-12 45q20 8 41.5 12t42.5 4q47 0 72 -16.5t25 -42.5q0 -22 -12.5 -34t-29 -19t-30 -14.5t-14.5 -20.5z" />
    <glyph glyph-name="uni020A" unicode="&#x20a;" horiz-adv-x="264" 
d="M67 0l55 712h94l-56 -712h-93zM183 916q55 0 99 -26.5t63 -81.5l-57 -22q-19 38 -45.5 53t-62.5 15q-34 0 -62.5 -15t-53.5 -53l-53 22q26 57 72 82.5t100 25.5z" />
    <glyph glyph-name="Imacron" unicode="&#x12a;" horiz-adv-x="264" 
d="M67 0l55 712h94l-56 -712h-93zM26 817l6 66h304l-5 -66h-305z" />
    <glyph glyph-name="Iogonek" unicode="&#x12e;" horiz-adv-x="264" 
d="M102 -195q-54 0 -85 28t-31 75q0 51 32.5 85.5t96.5 46.5l-22 -40h-26l55 712h93l-56 -712h-8q-51 0 -73 -24t-22 -55q0 -30 16 -44.5t43 -14.5q13 0 28.5 4.5t31.5 11.5l13 -51q-17 -10 -40 -16t-46 -6z" />
    <glyph glyph-name="Itilde" unicode="&#x128;" horiz-adv-x="264" 
d="M67 0l55 712h94l-56 -712h-93zM12 792q2 42 16 68.5t36.5 39t49.5 12.5q28 0 51.5 -14t45.5 -28.5t41 -14.5q22 0 35.5 14t14.5 40h49q-2 -42 -16.5 -68t-37 -39t-49.5 -13q-28 0 -51.5 14.5t-45 28.5t-40.5 14q-22 0 -35.5 -14t-15.5 -40h-48z" />
    <glyph glyph-name="J" unicode="J" horiz-adv-x="336" 
d="M-38 -178l6 79q56 -11 92.5 -5.5t55 34t23.5 85.5l55 697h94l-56 -697q-6 -85 -36.5 -132.5t-88 -61.5t-145.5 1z" />
    <glyph glyph-name="Jcircumflex" unicode="&#x134;" horiz-adv-x="336" 
d="M-38 -178l6 79q56 -11 92.5 -5.5t55 34t23.5 85.5l55 697h94l-56 -697q-6 -85 -36.5 -132.5t-88 -61.5t-145.5 1zM173 773h-79l134 153h58l110 -153h-78l-62 101z" />
    <glyph glyph-name="K" unicode="K" horiz-adv-x="641" 
d="M524 0l-362 363l391 349h121l-427 -377l9 56l382 -391h-114zM68 0l55 712h93l-56 -712h-92z" />
    <glyph glyph-name="uni0136" unicode="&#x136;" horiz-adv-x="641" 
d="M524 0l-362 363l391 349h121l-427 -377l9 56l382 -391h-114zM68 0l55 712h93l-56 -712h-92zM353 -72l-4 -59q-4 -39 -17.5 -71.5t-46.5 -61.5l-37 29q25 24 33.5 45t9.5 45l24 -15h-75l6 88h107z" />
    <glyph glyph-name="L" unicode="L" horiz-adv-x="548" 
d="M67 0l56 712h93l-50 -634h351l-6 -78h-444z" />
    <glyph glyph-name="uni01C7" unicode="&#x1c7;" horiz-adv-x="813" 
d="M67 0l56 712h93l-50 -634h321l-6 -78h-414zM438 -178l6 79q57 -11 93 -5.5t55 34t23 85.5l54 697h95l-56 -697q-7 -85 -37.5 -132.5t-88 -61.5t-144.5 1z" />
    <glyph glyph-name="Lacute" unicode="&#x139;" horiz-adv-x="548" 
d="M67 0l56 712h93l-50 -634h351l-6 -78h-444zM205 773h-62l112 153h102z" />
    <glyph glyph-name="Lcaron" unicode="&#x13d;" horiz-adv-x="548" 
d="M67 0l56 712h93l-50 -634h351l-6 -78h-444zM334 520h-47l14 192h74z" />
    <glyph glyph-name="uni013B" unicode="&#x13b;" horiz-adv-x="548" 
d="M67 0l56 712h93l-50 -634h351l-6 -78h-444zM341 -72l-4 -59q-4 -39 -17.5 -71.5t-46.5 -61.5l-37 29q25 24 33.5 45t9.5 45l24 -15h-75l6 88h107z" />
    <glyph glyph-name="Ldot" unicode="&#x13f;" horiz-adv-x="548" 
d="M67 0l56 712h93l-50 -634h351l-6 -78h-444zM317 407h111l-8 -101h-111z" />
    <glyph glyph-name="uni1E36" unicode="&#x1e36;" horiz-adv-x="548" 
d="M67 0l56 712h93l-50 -634h351l-6 -78h-444zM237 -91h100l-9 -95h-100z" />
    <glyph glyph-name="uni01C8" unicode="&#x1c8;" horiz-adv-x="791" 
d="M67 0l56 712h93l-50 -634h351l-6 -78h-444zM461 -136q27 -8 48 -8q23 0 42.5 8.5t32.5 30t16 60.5l45 548h90l-45 -558q-6 -83 -51 -124t-116 -41q-17 0 -34 2t-34 7zM652 720h108l-8 -99h-109z" />
    <glyph glyph-name="uni1E3A" unicode="&#x1e3a;" horiz-adv-x="548" 
d="M67 0l56 712h93l-50 -634h351l-6 -78h-444zM128 -171l5 64h304l-5 -64h-304z" />
    <glyph glyph-name="Lslash" unicode="&#x141;" horiz-adv-x="564" 
d="M82 0l55 712h94l-50 -634h352l-6 -78h-445zM9 238l6 85l391 216l-6 -86z" />
    <glyph glyph-name="M" unicode="M" horiz-adv-x="849" 
d="M68 0l55 712h76l232 -647h-39l332 647h75l-55 -712h-84l46 586l33 -4l-300 -582h-64l-211 582l34 4l-46 -586h-84z" />
    <glyph glyph-name="uni1E42" unicode="&#x1e42;" horiz-adv-x="849" 
d="M68 0l55 712h76l232 -647h-39l332 647h75l-55 -712h-84l46 586l33 -4l-300 -582h-64l-211 582l34 4l-46 -586h-84zM350 -91h100l-9 -95h-100z" />
    <glyph glyph-name="N" unicode="N" horiz-adv-x="748" 
d="M67 0l56 712h71l398 -589l-27 -7l47 596h87l-56 -712h-70l-397 588l26 8l-48 -596h-87z" />
    <glyph glyph-name="uni01CA" unicode="&#x1ca;" horiz-adv-x="1084" 
d="M67 0l56 712h71l398 -589l-27 -7l47 596h87l-56 -712h-70l-397 588l26 8l-48 -596h-87zM710 -178l6 79q56 -11 92.5 -5.5t55 34t23.5 85.5l55 697h94l-56 -697q-6 -85 -36.5 -132.5t-88 -61.5t-145.5 1z" />
    <glyph glyph-name="Nacute" unicode="&#x143;" horiz-adv-x="748" 
d="M67 0l56 712h71l398 -589l-27 -7l47 596h87l-56 -712h-70l-397 588l26 8l-48 -596h-87zM447 773h-62l112 153h102z" />
    <glyph glyph-name="Ncaron" unicode="&#x147;" horiz-adv-x="748" 
d="M67 0l56 712h71l398 -589l-27 -7l47 596h87l-56 -712h-70l-397 588l26 8l-48 -596h-87zM500 926h79l-134 -153h-58l-110 153h78l66 -102z" />
    <glyph glyph-name="uni0145" unicode="&#x145;" horiz-adv-x="748" 
d="M67 0l56 712h71l398 -589l-27 -7l47 596h87l-56 -712h-70l-397 588l26 8l-48 -596h-87zM404 -72l-4 -59q-4 -39 -17.5 -71.5t-46.5 -61.5l-37 29q25 24 33.5 45t9.5 45l24 -15h-75l6 88h107z" />
    <glyph glyph-name="uni1E44" unicode="&#x1e44;" horiz-adv-x="748" 
d="M67 0l56 712h71l398 -589l-27 -7l47 596h87l-56 -712h-70l-397 588l26 8l-48 -596h-87zM372 900h108l-8 -99h-108z" />
    <glyph glyph-name="uni1E46" unicode="&#x1e46;" horiz-adv-x="748" 
d="M67 0l56 712h71l398 -589l-27 -7l47 596h87l-56 -712h-70l-397 588l26 8l-48 -596h-87zM300 -91h100l-9 -95h-100z" />
    <glyph glyph-name="Eng" unicode="&#x14a;" horiz-adv-x="748" 
d="M612 712h87l-55 -703q-7 -88 -55 -137.5t-146 -55.5l-65 -5l-3 75l62 4q53 4 84 32t35 80l5 55l12 -57l-397 588l26 8l-48 -596h-87l56 712h71l398 -589l-27 -7z" />
    <glyph glyph-name="uni01CB" unicode="&#x1cb;" horiz-adv-x="991" 
d="M67 0l56 712h71l398 -589l-27 -7l47 596h87l-56 -712h-70l-397 588l26 8l-48 -596h-87zM661 -136q27 -8 48 -8q23 0 42.5 8.5t32.5 30t16 60.5l45 548h90l-45 -558q-6 -83 -51 -124t-116 -41q-17 0 -34 2t-34 7zM852 720h108l-8 -99h-109z" />
    <glyph glyph-name="uni1E48" unicode="&#x1e48;" horiz-adv-x="748" 
d="M67 0l56 712h71l398 -589l-27 -7l47 596h87l-56 -712h-70l-397 588l26 8l-48 -596h-87zM191 -171l5 64h304l-5 -64h-304z" />
    <glyph glyph-name="Ntilde" unicode="&#xd1;" horiz-adv-x="748" 
d="M67 0l56 712h71l398 -589l-27 -7l47 596h87l-56 -712h-70l-397 588l26 8l-48 -596h-87zM253 792q2 42 16 68.5t36.5 39t49.5 12.5q28 0 51.5 -14t45.5 -28.5t41 -14.5q22 0 35.5 14t14.5 40h49q-2 -42 -16.5 -68t-37 -39t-49.5 -13q-28 0 -51.5 14.5t-45 28.5t-40.5 14
q-22 0 -35.5 -14t-15.5 -40h-48z" />
    <glyph glyph-name="O" unicode="O" horiz-adv-x="775" 
d="M389 -9q-100 0 -171.5 40.5t-110.5 116t-39 179.5q0 119 41.5 207.5t116.5 137.5t177 49q99 0 171 -40.5t111 -115.5t39 -181q0 -119 -41.5 -207.5t-116.5 -137t-177 -48.5zM389 69q74 0 127.5 38t83 109t29.5 169q0 124 -58.5 191t-166.5 67q-75 0 -129 -38t-83 -109
t-29 -170q0 -123 58.5 -190t167.5 -67z" />
    <glyph glyph-name="Oacute" unicode="&#xd3;" horiz-adv-x="775" 
d="M389 -9q-100 0 -171.5 40.5t-110.5 116t-39 179.5q0 119 41.5 207.5t116.5 137.5t177 49q99 0 171 -40.5t111 -115.5t39 -181q0 -119 -41.5 -207.5t-116.5 -137t-177 -48.5zM389 69q74 0 127.5 38t83 109t29.5 169q0 124 -58.5 191t-166.5 67q-75 0 -129 -38t-83 -109
t-29 -170q0 -123 58.5 -190t167.5 -67zM459 773h-62l112 153h102z" />
    <glyph glyph-name="Obreve" unicode="&#x14e;" horiz-adv-x="775" 
d="M389 -9q-100 0 -171.5 40.5t-110.5 116t-39 179.5q0 119 41.5 207.5t116.5 137.5t177 49q99 0 171 -40.5t111 -115.5t39 -181q0 -119 -41.5 -207.5t-116.5 -137t-177 -48.5zM389 69q74 0 127.5 38t83 109t29.5 169q0 124 -58.5 191t-166.5 67q-75 0 -129 -38t-83 -109
t-29 -170q0 -123 58.5 -190t167.5 -67zM432 785q-55 0 -99 26t-63 81l57 23q19 -40 45.5 -54t62.5 -14q33 0 62 14t54 54l53 -23q-26 -56 -72 -81.5t-100 -25.5z" />
    <glyph glyph-name="Ocircumflex" unicode="&#xd4;" horiz-adv-x="775" 
d="M389 -9q-100 0 -171.5 40.5t-110.5 116t-39 179.5q0 119 41.5 207.5t116.5 137.5t177 49q99 0 171 -40.5t111 -115.5t39 -181q0 -119 -41.5 -207.5t-116.5 -137t-177 -48.5zM389 69q74 0 127.5 38t83 109t29.5 169q0 124 -58.5 191t-166.5 67q-75 0 -129 -38t-83 -109
t-29 -170q0 -123 58.5 -190t167.5 -67zM356 773h-79l134 153h58l110 -153h-78l-62 101z" />
    <glyph glyph-name="uni1ED0" unicode="&#x1ed0;" horiz-adv-x="775" 
d="M389 -9q-100 0 -171.5 40.5t-110.5 116t-39 179.5q0 119 41.5 207.5t116.5 137.5t177 49q99 0 171 -40.5t111 -115.5t39 -181q0 -119 -41.5 -207.5t-116.5 -137t-177 -48.5zM389 69q74 0 127.5 38t83 109t29.5 169q0 124 -58.5 191t-166.5 67q-75 0 -129 -38t-83 -109
t-29 -170q0 -123 58.5 -190t167.5 -67zM277 773l134 147h58l110 -147h-77l-64 96l-82 -96h-79zM523 877l98 142h96l-141 -142h-53z" />
    <glyph glyph-name="uni1ED8" unicode="&#x1ed8;" horiz-adv-x="775" 
d="M389 -9q-100 0 -171.5 40.5t-110.5 116t-39 179.5q0 119 41.5 207.5t116.5 137.5t177 49q99 0 171 -40.5t111 -115.5t39 -181q0 -119 -41.5 -207.5t-116.5 -137t-177 -48.5zM389 69q74 0 127.5 38t83 109t29.5 169q0 124 -58.5 191t-166.5 67q-75 0 -129 -38t-83 -109
t-29 -170q0 -123 58.5 -190t167.5 -67zM313 -91h100l-9 -95h-100zM356 773h-79l134 153h58l110 -153h-78l-62 101z" />
    <glyph glyph-name="uni1ED2" unicode="&#x1ed2;" horiz-adv-x="775" 
d="M389 -9q-100 0 -171.5 40.5t-110.5 116t-39 179.5q0 119 41.5 207.5t116.5 137.5t177 49q99 0 171 -40.5t111 -115.5t39 -181q0 -119 -41.5 -207.5t-116.5 -137t-177 -48.5zM389 69q74 0 127.5 38t83 109t29.5 169q0 124 -58.5 191t-166.5 67q-75 0 -129 -38t-83 -109
t-29 -170q0 -123 58.5 -190t167.5 -67zM277 773l134 147h58l110 -147h-77l-64 96l-82 -96h-79zM565 877l-100 142h85l70 -142h-55z" />
    <glyph glyph-name="uni1ED4" unicode="&#x1ed4;" horiz-adv-x="775" 
d="M389 -9q-100 0 -171.5 40.5t-110.5 116t-39 179.5q0 119 41.5 207.5t116.5 137.5t177 49q99 0 171 -40.5t111 -115.5t39 -181q0 -119 -41.5 -207.5t-116.5 -137t-177 -48.5zM389 69q74 0 127.5 38t83 109t29.5 169q0 124 -58.5 191t-166.5 67q-75 0 -129 -38t-83 -109
t-29 -170q0 -123 58.5 -190t167.5 -67zM277 773l134 147h58l110 -147h-77l-64 96l-82 -96h-79zM522 878l1 17q1 17 12.5 26.5t25.5 15t25 11t11 13.5t-10 11.5t-25 3.5t-31 -2.5t-36 -8.5l-11 44q19 7 41 11.5t44 4.5q45 0 70.5 -15.5t25.5 -40.5q0 -21 -12.5 -32
t-28.5 -17.5t-29.5 -13.5t-15.5 -20l-1 -8h-56z" />
    <glyph glyph-name="uni1ED6" unicode="&#x1ed6;" horiz-adv-x="775" 
d="M389 -9q-100 0 -171.5 40.5t-110.5 116t-39 179.5q0 119 41.5 207.5t116.5 137.5t177 49q99 0 171 -40.5t111 -115.5t39 -181q0 -119 -41.5 -207.5t-116.5 -137t-177 -48.5zM389 69q74 0 127.5 38t83 109t29.5 169q0 124 -58.5 191t-166.5 67q-75 0 -129 -38t-83 -109
t-29 -170q0 -123 58.5 -190t167.5 -67zM277 773l134 147h58l110 -147h-77l-64 96l-82 -96h-79zM276 935q2 32 15.5 54.5t35.5 34t48 11.5q29 0 54 -10t46.5 -20.5t42.5 -10.5q20 0 33 11.5t14 31.5h49q-2 -32 -15.5 -54.5t-35.5 -34.5t-48 -12q-30 0 -54.5 10.5t-46 21
t-42.5 10.5q-20 0 -33 -12t-15 -31h-48z" />
    <glyph glyph-name="uni020C" unicode="&#x20c;" horiz-adv-x="775" 
d="M389 -9q-100 0 -171.5 40.5t-110.5 116t-39 179.5q0 119 41.5 207.5t116.5 137.5t177 49q99 0 171 -40.5t111 -115.5t39 -181q0 -119 -41.5 -207.5t-116.5 -137t-177 -48.5zM389 69q74 0 127.5 38t83 109t29.5 169q0 124 -58.5 191t-166.5 67q-75 0 -129 -38t-83 -109
t-29 -170q0 -123 58.5 -190t167.5 -67zM465 773l-86 153h73l61 -153h-48zM343 773l-87 153h73l62 -153h-48z" />
    <glyph glyph-name="Odieresis" unicode="&#xd6;" horiz-adv-x="775" 
d="M389 -9q-100 0 -171.5 40.5t-110.5 116t-39 179.5q0 119 41.5 207.5t116.5 137.5t177 49q99 0 171 -40.5t111 -115.5t39 -181q0 -119 -41.5 -207.5t-116.5 -137t-177 -48.5zM389 69q74 0 127.5 38t83 109t29.5 169q0 124 -58.5 191t-166.5 67q-75 0 -129 -38t-83 -109
t-29 -170q0 -123 58.5 -190t167.5 -67zM477 896h97l-6 -92h-98zM301 896h98l-8 -92h-96z" />
    <glyph glyph-name="uni022A" unicode="&#x22a;" horiz-adv-x="775" 
d="M389 -9q-100 0 -171.5 40.5t-110.5 116t-39 179.5q0 119 41.5 207.5t116.5 137.5t177 49q99 0 171 -40.5t111 -115.5t39 -181q0 -119 -41.5 -207.5t-116.5 -137t-177 -48.5zM389 69q74 0 127.5 38t83 109t29.5 169q0 124 -58.5 191t-166.5 67q-75 0 -129 -38t-83 -109
t-29 -170q0 -123 58.5 -190t167.5 -67zM477 896h97l-6 -92h-98zM301 896h98l-8 -92h-96zM292 979l6 66h304l-5 -66h-305z" />
    <glyph glyph-name="uni0230" unicode="&#x230;" horiz-adv-x="775" 
d="M389 -9q-100 0 -171.5 40.5t-110.5 116t-39 179.5q0 119 41.5 207.5t116.5 137.5t177 49q99 0 171 -40.5t111 -115.5t39 -181q0 -119 -41.5 -207.5t-116.5 -137t-177 -48.5zM389 69q74 0 127.5 38t83 109t29.5 169q0 124 -58.5 191t-166.5 67q-75 0 -129 -38t-83 -109
t-29 -170q0 -123 58.5 -190t167.5 -67zM384 900h108l-8 -99h-108zM292 979l6 66h304l-5 -66h-305z" />
    <glyph glyph-name="uni1ECC" unicode="&#x1ecc;" horiz-adv-x="775" 
d="M389 -9q-100 0 -171.5 40.5t-110.5 116t-39 179.5q0 119 41.5 207.5t116.5 137.5t177 49q99 0 171 -40.5t111 -115.5t39 -181q0 -119 -41.5 -207.5t-116.5 -137t-177 -48.5zM389 69q74 0 127.5 38t83 109t29.5 169q0 124 -58.5 191t-166.5 67q-75 0 -129 -38t-83 -109
t-29 -170q0 -123 58.5 -190t167.5 -67zM313 -91h100l-9 -95h-100z" />
    <glyph glyph-name="Ograve" unicode="&#xd2;" horiz-adv-x="775" 
d="M389 -9q-100 0 -171.5 40.5t-110.5 116t-39 179.5q0 119 41.5 207.5t116.5 137.5t177 49q99 0 171 -40.5t111 -115.5t39 -181q0 -119 -41.5 -207.5t-116.5 -137t-177 -48.5zM389 69q74 0 127.5 38t83 109t29.5 169q0 124 -58.5 191t-166.5 67q-75 0 -129 -38t-83 -109
t-29 -170q0 -123 58.5 -190t167.5 -67zM397 773l-122 153h91l93 -153h-62z" />
    <glyph glyph-name="uni1ECE" unicode="&#x1ece;" horiz-adv-x="775" 
d="M389 -9q-100 0 -171.5 40.5t-110.5 116t-39 179.5q0 119 41.5 207.5t116.5 137.5t177 49q99 0 171 -40.5t111 -115.5t39 -181q0 -119 -41.5 -207.5t-116.5 -137t-177 -48.5zM389 69q74 0 127.5 38t83 109t29.5 169q0 124 -58.5 191t-166.5 67q-75 0 -129 -38t-83 -109
t-29 -170q0 -123 58.5 -190t167.5 -67zM457 783l-1 -10h-56l2 18q1 17 12 27t25 17t24.5 13.5t10.5 16.5q0 7 -9.5 11.5t-26.5 4.5q-14 0 -29 -2.5t-35 -9.5l-12 45q20 8 41.5 12t42.5 4q47 0 72 -16.5t25 -42.5q0 -22 -12.5 -34t-29 -19t-30 -14.5t-14.5 -20.5z" />
    <glyph glyph-name="Ohorn" unicode="&#x1a0;" horiz-adv-x="775" 
d="M389 -9q-100 0 -171.5 40.5t-110.5 115.5t-39 180q0 119 41.5 207.5t119 137.5t184.5 49q39 0 74 -4.5t76 -4.5q60 0 86 25t31 85l1 16h80l-1 -29q-4 -46 -24 -80.5t-56.5 -52.5t-89.5 -18l-1 14q38 -24 68.5 -63.5t48.5 -95.5t18 -129q0 -119 -41.5 -207.5t-116.5 -137
t-177 -48.5zM389 69q74 0 127.5 38t83 109t29.5 169q0 124 -58.5 191t-166.5 67q-75 0 -129 -38t-83 -109t-29 -170q0 -123 58.5 -190t167.5 -67z" />
    <glyph glyph-name="uni1EDA" unicode="&#x1eda;" horiz-adv-x="775" 
d="M389 -9q-100 0 -171.5 40.5t-110.5 115.5t-39 180q0 119 41.5 207.5t119 137.5t184.5 49q39 0 74 -4.5t76 -4.5q60 0 86 25t31 85l1 16h80l-1 -29q-4 -46 -24 -80.5t-56.5 -52.5t-89.5 -18l-1 14q38 -24 68.5 -63.5t48.5 -95.5t18 -129q0 -119 -41.5 -207.5t-116.5 -137
t-177 -48.5zM389 69q74 0 127.5 38t83 109t29.5 169q0 124 -58.5 191t-166.5 67q-75 0 -129 -38t-83 -109t-29 -170q0 -123 58.5 -190t167.5 -67zM459 773h-62l112 153h102z" />
    <glyph glyph-name="uni1EE2" unicode="&#x1ee2;" horiz-adv-x="775" 
d="M389 -9q-100 0 -171.5 40.5t-110.5 115.5t-39 180q0 119 41.5 207.5t119 137.5t184.5 49q39 0 74 -4.5t76 -4.5q60 0 86 25t31 85l1 16h80l-1 -29q-4 -46 -24 -80.5t-56.5 -52.5t-89.5 -18l-1 14q38 -24 68.5 -63.5t48.5 -95.5t18 -129q0 -119 -41.5 -207.5t-116.5 -137
t-177 -48.5zM389 69q74 0 127.5 38t83 109t29.5 169q0 124 -58.5 191t-166.5 67q-75 0 -129 -38t-83 -109t-29 -170q0 -123 58.5 -190t167.5 -67zM313 -91h100l-9 -95h-100z" />
    <glyph glyph-name="uni1EDC" unicode="&#x1edc;" horiz-adv-x="775" 
d="M389 -9q-100 0 -171.5 40.5t-110.5 115.5t-39 180q0 119 41.5 207.5t119 137.5t184.5 49q39 0 74 -4.5t76 -4.5q60 0 86 25t31 85l1 16h80l-1 -29q-4 -46 -24 -80.5t-56.5 -52.5t-89.5 -18l-1 14q38 -24 68.5 -63.5t48.5 -95.5t18 -129q0 -119 -41.5 -207.5t-116.5 -137
t-177 -48.5zM389 69q74 0 127.5 38t83 109t29.5 169q0 124 -58.5 191t-166.5 67q-75 0 -129 -38t-83 -109t-29 -170q0 -123 58.5 -190t167.5 -67zM397 773l-122 153h91l93 -153h-62z" />
    <glyph glyph-name="uni1EDE" unicode="&#x1ede;" horiz-adv-x="775" 
d="M389 -9q-100 0 -171.5 40.5t-110.5 115.5t-39 180q0 119 41.5 207.5t119 137.5t184.5 49q39 0 74 -4.5t76 -4.5q60 0 86 25t31 85l1 16h80l-1 -29q-4 -46 -24 -80.5t-56.5 -52.5t-89.5 -18l-1 14q38 -24 68.5 -63.5t48.5 -95.5t18 -129q0 -119 -41.5 -207.5t-116.5 -137
t-177 -48.5zM389 69q74 0 127.5 38t83 109t29.5 169q0 124 -58.5 191t-166.5 67q-75 0 -129 -38t-83 -109t-29 -170q0 -123 58.5 -190t167.5 -67zM457 783l-1 -10h-56l2 18q1 17 12 27t25 17t24.5 13.5t10.5 16.5q0 7 -9.5 11.5t-26.5 4.5q-14 0 -29 -2.5t-35 -9.5l-12 45
q20 8 41.5 12t42.5 4q47 0 72 -16.5t25 -42.5q0 -22 -12.5 -34t-29 -19t-30 -14.5t-14.5 -20.5z" />
    <glyph glyph-name="uni1EE0" unicode="&#x1ee0;" horiz-adv-x="775" 
d="M389 -9q-100 0 -171.5 40.5t-110.5 115.5t-39 180q0 119 41.5 207.5t119 137.5t184.5 49q39 0 74 -4.5t76 -4.5q60 0 86 25t31 85l1 16h80l-1 -29q-4 -46 -24 -80.5t-56.5 -52.5t-89.5 -18l-1 14q38 -24 68.5 -63.5t48.5 -95.5t18 -129q0 -119 -41.5 -207.5t-116.5 -137
t-177 -48.5zM389 69q74 0 127.5 38t83 109t29.5 169q0 124 -58.5 191t-166.5 67q-75 0 -129 -38t-83 -109t-29 -170q0 -123 58.5 -190t167.5 -67zM265 792q2 42 16 68.5t36.5 39t49.5 12.5q28 0 51.5 -14t45.5 -28.5t41 -14.5q22 0 35.5 14t14.5 40h49q-2 -42 -16.5 -68
t-37 -39t-49.5 -13q-28 0 -51.5 14.5t-45 28.5t-40.5 14q-22 0 -35.5 -14t-15.5 -40h-48z" />
    <glyph glyph-name="Ohungarumlaut" unicode="&#x150;" horiz-adv-x="775" 
d="M389 -9q-100 0 -171.5 40.5t-110.5 116t-39 179.5q0 119 41.5 207.5t116.5 137.5t177 49q99 0 171 -40.5t111 -115.5t39 -181q0 -119 -41.5 -207.5t-116.5 -137t-177 -48.5zM389 69q74 0 127.5 38t83 109t29.5 169q0 124 -58.5 191t-166.5 67q-75 0 -129 -38t-83 -109
t-29 -170q0 -123 58.5 -190t167.5 -67zM465 773l83 153h78l-113 -153h-48zM343 773l82 153h78l-112 -153h-48z" />
    <glyph glyph-name="uni020E" unicode="&#x20e;" horiz-adv-x="775" 
d="M389 -9q-100 0 -171.5 40.5t-110.5 116t-39 179.5q0 119 41.5 207.5t116.5 137.5t177 49q99 0 171 -40.5t111 -115.5t39 -181q0 -119 -41.5 -207.5t-116.5 -137t-177 -48.5zM389 69q74 0 127.5 38t83 109t29.5 169q0 124 -58.5 191t-166.5 67q-75 0 -129 -38t-83 -109
t-29 -170q0 -123 58.5 -190t167.5 -67zM436 916q55 0 99 -26.5t63 -81.5l-57 -22q-19 38 -45.5 53t-62.5 15q-34 0 -62.5 -15t-53.5 -53l-53 22q26 57 72 82.5t100 25.5z" />
    <glyph glyph-name="Omacron" unicode="&#x14c;" horiz-adv-x="775" 
d="M389 -9q-100 0 -171.5 40.5t-110.5 116t-39 179.5q0 119 41.5 207.5t116.5 137.5t177 49q99 0 171 -40.5t111 -115.5t39 -181q0 -119 -41.5 -207.5t-116.5 -137t-177 -48.5zM389 69q74 0 127.5 38t83 109t29.5 169q0 124 -58.5 191t-166.5 67q-75 0 -129 -38t-83 -109
t-29 -170q0 -123 58.5 -190t167.5 -67zM279 817l6 66h304l-5 -66h-305z" />
    <glyph glyph-name="uni1E52" unicode="&#x1e52;" horiz-adv-x="775" 
d="M389 -9q-100 0 -171.5 40.5t-110.5 116t-39 179.5q0 119 41.5 207.5t116.5 137.5t177 49q99 0 171 -40.5t111 -115.5t39 -181q0 -119 -41.5 -207.5t-116.5 -137t-177 -48.5zM389 69q74 0 127.5 38t83 109t29.5 169q0 124 -58.5 191t-166.5 67q-75 0 -129 -38t-83 -109
t-29 -170q0 -123 58.5 -190t167.5 -67zM279 817l6 66h304l-5 -66h-305zM472 935h-62l112 153h102z" />
    <glyph glyph-name="uni1E50" unicode="&#x1e50;" horiz-adv-x="775" 
d="M389 -9q-100 0 -171.5 40.5t-110.5 116t-39 179.5q0 119 41.5 207.5t116.5 137.5t177 49q99 0 171 -40.5t111 -115.5t39 -181q0 -119 -41.5 -207.5t-116.5 -137t-177 -48.5zM389 69q74 0 127.5 38t83 109t29.5 169q0 124 -58.5 191t-166.5 67q-75 0 -129 -38t-83 -109
t-29 -170q0 -123 58.5 -190t167.5 -67zM279 817l6 66h304l-5 -66h-305zM410 935l-122 153h91l93 -153h-62z" />
    <glyph glyph-name="uni01EA" unicode="&#x1ea;" horiz-adv-x="775" 
d="M470 0q-41 -9 -61.5 -30t-20.5 -50t16 -43.5t44 -14.5q13 0 28.5 4.5t31.5 11.5l12 -51q-17 -10 -39.5 -16t-46.5 -6q-53 0 -84.5 28t-31.5 74q0 35 17 61.5t48 42.5l-1 -19q-96 0 -166.5 40t-109 115t-38.5 180q0 119 41.5 207.5t116.5 137.5t177 49q100 0 172 -40.5
t110.5 -115.5t38.5 -181q0 -109 -33 -189t-90.5 -129t-130.5 -66zM389 69q74 0 127.5 38t83 109t29.5 169q0 124 -58.5 191t-166.5 67q-75 0 -129 -38t-83 -109t-29 -170q0 -123 58.5 -190t167.5 -67z" />
    <glyph glyph-name="Oslash" unicode="&#xd8;" horiz-adv-x="775" 
d="M389 -9q-100 0 -171.5 40.5t-110.5 115.5t-39 180q0 119 41.5 207.5t116.5 137.5t177 49q99 0 171 -40.5t111 -115.5t39 -181q0 -119 -41.5 -207.5t-116.5 -137t-177 -48.5zM389 69q74 0 127.5 38t83 109t29.5 169q0 124 -58.5 191t-166.5 67q-75 0 -129 -38t-83 -109
t-29 -170q0 -123 58.5 -190t167.5 -67zM170 -50l-61 38l514 774l61 -38z" />
    <glyph glyph-name="Oslashacute" unicode="&#x1fe;" horiz-adv-x="775" 
d="M389 -9q-100 0 -171.5 40.5t-110.5 115.5t-39 180q0 119 41.5 207.5t116.5 137.5t177 49q99 0 171 -40.5t111 -115.5t39 -181q0 -119 -41.5 -207.5t-116.5 -137t-177 -48.5zM389 69q74 0 127.5 38t83 109t29.5 169q0 124 -58.5 191t-166.5 67q-75 0 -129 -38t-83 -109
t-29 -170q0 -123 58.5 -190t167.5 -67zM170 -50l-61 38l514 774l61 -38zM459 773h-62l112 153h102z" />
    <glyph glyph-name="Otilde" unicode="&#xd5;" horiz-adv-x="775" 
d="M389 -9q-100 0 -171.5 40.5t-110.5 116t-39 179.5q0 119 41.5 207.5t116.5 137.5t177 49q99 0 171 -40.5t111 -115.5t39 -181q0 -119 -41.5 -207.5t-116.5 -137t-177 -48.5zM389 69q74 0 127.5 38t83 109t29.5 169q0 124 -58.5 191t-166.5 67q-75 0 -129 -38t-83 -109
t-29 -170q0 -123 58.5 -190t167.5 -67zM265 792q2 42 16 68.5t36.5 39t49.5 12.5q28 0 51.5 -14t45.5 -28.5t41 -14.5q22 0 35.5 14t14.5 40h49q-2 -42 -16.5 -68t-37 -39t-49.5 -13q-28 0 -51.5 14.5t-45 28.5t-40.5 14q-22 0 -35.5 -14t-15.5 -40h-48z" />
    <glyph glyph-name="uni1E4C" unicode="&#x1e4c;" horiz-adv-x="775" 
d="M389 -9q-100 0 -171.5 40.5t-110.5 116t-39 179.5q0 119 41.5 207.5t116.5 137.5t177 49q99 0 171 -40.5t111 -115.5t39 -181q0 -119 -41.5 -207.5t-116.5 -137t-177 -48.5zM389 69q74 0 127.5 38t83 109t29.5 169q0 124 -58.5 191t-166.5 67q-75 0 -129 -38t-83 -109
t-29 -170q0 -123 58.5 -190t167.5 -67zM265 792q2 42 16 68.5t36.5 39t49.5 12.5q28 0 51.5 -14t45.5 -28.5t41 -14.5q22 0 35.5 14t14.5 40h49q-2 -42 -16.5 -68t-37 -39t-49.5 -13q-28 0 -51.5 14.5t-45 28.5t-40.5 14q-22 0 -35.5 -14t-15.5 -40h-48zM472 935h-62
l112 153h102z" />
    <glyph glyph-name="uni1E4E" unicode="&#x1e4e;" horiz-adv-x="775" 
d="M389 -9q-100 0 -171.5 40.5t-110.5 116t-39 179.5q0 119 41.5 207.5t116.5 137.5t177 49q99 0 171 -40.5t111 -115.5t39 -181q0 -119 -41.5 -207.5t-116.5 -137t-177 -48.5zM389 69q74 0 127.5 38t83 109t29.5 169q0 124 -58.5 191t-166.5 67q-75 0 -129 -38t-83 -109
t-29 -170q0 -123 58.5 -190t167.5 -67zM265 792q2 42 16 68.5t36.5 39t49.5 12.5q28 0 51.5 -14t45.5 -28.5t41 -14.5q22 0 35.5 14t14.5 40h49q-2 -42 -16.5 -68t-37 -39t-49.5 -13q-28 0 -51.5 14.5t-45 28.5t-40.5 14q-22 0 -35.5 -14t-15.5 -40h-48zM490 1058h97l-6 -92
h-98zM314 1058h98l-8 -92h-96z" />
    <glyph glyph-name="uni022C" unicode="&#x22c;" horiz-adv-x="775" 
d="M389 -9q-100 0 -171.5 40.5t-110.5 116t-39 179.5q0 119 41.5 207.5t116.5 137.5t177 49q99 0 171 -40.5t111 -115.5t39 -181q0 -119 -41.5 -207.5t-116.5 -137t-177 -48.5zM389 69q74 0 127.5 38t83 109t29.5 169q0 124 -58.5 191t-166.5 67q-75 0 -129 -38t-83 -109
t-29 -170q0 -123 58.5 -190t167.5 -67zM265 792q2 42 16 68.5t36.5 39t49.5 12.5q28 0 51.5 -14t45.5 -28.5t41 -14.5q22 0 35.5 14t14.5 40h49q-2 -42 -16.5 -68t-37 -39t-49.5 -13q-28 0 -51.5 14.5t-45 28.5t-40.5 14q-22 0 -35.5 -14t-15.5 -40h-48zM292 979l6 66h304
l-5 -66h-305z" />
    <glyph glyph-name="OE" unicode="&#x152;" horiz-adv-x="1056" 
d="M378 -9q-94 0 -163.5 40.5t-108 115.5t-38.5 180q0 119 41.5 207.5t118.5 137.5t181 49q35 0 70 -6.5t68 -20.5t60 -38l-7 -90q-27 38 -76 57.5t-107 19.5q-122 0 -188 -84.5t-66 -232.5q0 -123 58.5 -190t167.5 -67q50 0 97.5 19.5t80.5 58.5l-6 -90q-36 -32 -82 -49
t-101 -17zM536 0l5 71l-2 24l42 528l6 18l5 71h451l-5 -76h-365l-43 -560h365l-7 -76h-452zM635 323l7 77h358l-7 -77h-358z" />
    <glyph glyph-name="P" unicode="P" horiz-adv-x="655" 
d="M160 0h-93l56 712h279q113 0 171.5 -53t58.5 -135q0 -104 -68 -159t-185 -55h-210l6 75h198q82 0 125.5 33.5t43.5 101.5q0 53 -35.5 85t-111.5 32h-185z" />
    <glyph glyph-name="Thorn" unicode="&#xde;" horiz-adv-x="654" 
d="M149 167l2 74h225q79 0 116.5 33t37.5 96q0 59 -34 85.5t-100 26.5h-223l2 75h229q103 0 159.5 -47t56.5 -136q0 -98 -60 -152.5t-177 -54.5h-234zM67 0l56 712h92l-56 -712h-92z" />
    <glyph glyph-name="Q" unicode="Q" horiz-adv-x="775" 
d="M546 -191q-42 33 -80.5 83.5t-64.5 103.5l89 31q23 -51 55.5 -90t68.5 -72zM389 -9q-100 0 -171.5 40.5t-110.5 115.5t-39 180q0 119 41.5 207.5t116.5 137.5t177 49q99 0 171 -40.5t111 -115.5t39 -181q0 -119 -41.5 -207.5t-116.5 -137t-177 -48.5zM389 69
q74 0 127.5 38t83 109t29.5 169q0 124 -58.5 191t-166.5 67q-75 0 -129 -38t-83 -109t-29 -170q0 -123 58.5 -190t167.5 -67z" />
    <glyph glyph-name="R" unicode="R" horiz-adv-x="695" 
d="M159 0h-91l55 712h295q109 0 168.5 -49.5t59.5 -137.5q0 -98 -62.5 -154.5t-188.5 -56.5l43 14q48 0 78.5 -23t46.5 -82l69 -223h-98l-72 237q-12 43 -43 57t-78 14h-172l6 75h215q84 0 125 34t41 103q0 59 -36 88t-109 29h-202z" />
    <glyph glyph-name="Racute" unicode="&#x154;" horiz-adv-x="695" 
d="M159 0h-91l55 712h295q109 0 168.5 -49.5t59.5 -137.5q0 -98 -62.5 -154.5t-188.5 -56.5l43 14q48 0 78.5 -23t46.5 -82l69 -223h-98l-72 237q-12 43 -43 57t-78 14h-172l6 75h215q84 0 125 34t41 103q0 59 -36 88t-109 29h-202zM419 773h-62l112 153h102z" />
    <glyph glyph-name="Rcaron" unicode="&#x158;" horiz-adv-x="695" 
d="M159 0h-91l55 712h295q109 0 168.5 -49.5t59.5 -137.5q0 -98 -62.5 -154.5t-188.5 -56.5l43 14q48 0 78.5 -23t46.5 -82l69 -223h-98l-72 237q-12 43 -43 57t-78 14h-172l6 75h215q84 0 125 34t41 103q0 59 -36 88t-109 29h-202zM472 926h79l-134 -153h-58l-110 153h78
l66 -102z" />
    <glyph glyph-name="uni0156" unicode="&#x156;" horiz-adv-x="695" 
d="M159 0h-91l55 712h295q109 0 168.5 -49.5t59.5 -137.5q0 -98 -62.5 -154.5t-188.5 -56.5l43 14q48 0 78.5 -23t46.5 -82l69 -223h-98l-72 237q-12 43 -43 57t-78 14h-172l6 75h215q84 0 125 34t41 103q0 59 -36 88t-109 29h-202zM375 -72l-4 -59q-4 -39 -17.5 -71.5
t-46.5 -61.5l-37 29q25 24 33.5 45t9.5 45l24 -15h-75l6 88h107z" />
    <glyph glyph-name="uni0210" unicode="&#x210;" horiz-adv-x="695" 
d="M159 0h-91l55 712h295q109 0 168.5 -49.5t59.5 -137.5q0 -98 -62.5 -154.5t-188.5 -56.5l43 14q48 0 78.5 -23t46.5 -82l69 -223h-98l-72 237q-12 43 -43 57t-78 14h-172l6 75h215q84 0 125 34t41 103q0 59 -36 88t-109 29h-202zM425 773l-86 153h73l61 -153h-48z
M303 773l-87 153h73l62 -153h-48z" />
    <glyph glyph-name="uni1E5A" unicode="&#x1e5a;" horiz-adv-x="695" 
d="M159 0h-91l55 712h295q109 0 168.5 -49.5t59.5 -137.5q0 -98 -62.5 -154.5t-188.5 -56.5l43 14q48 0 78.5 -23t46.5 -82l69 -223h-98l-72 237q-12 43 -43 57t-78 14h-172l6 75h215q84 0 125 34t41 103q0 59 -36 88t-109 29h-202zM271 -91h100l-9 -95h-100z" />
    <glyph glyph-name="uni0212" unicode="&#x212;" horiz-adv-x="695" 
d="M159 0h-91l55 712h295q109 0 168.5 -49.5t59.5 -137.5q0 -98 -62.5 -154.5t-188.5 -56.5l43 14q48 0 78.5 -23t46.5 -82l69 -223h-98l-72 237q-12 43 -43 57t-78 14h-172l6 75h215q84 0 125 34t41 103q0 59 -36 88t-109 29h-202zM396 916q55 0 99 -26.5t63 -81.5l-57 -22
q-19 38 -45.5 53t-62.5 15q-34 0 -62.5 -15t-53.5 -53l-53 22q26 57 72 82.5t100 25.5z" />
    <glyph glyph-name="uni1E5E" unicode="&#x1e5e;" horiz-adv-x="695" 
d="M159 0h-91l55 712h295q109 0 168.5 -49.5t59.5 -137.5q0 -98 -62.5 -154.5t-188.5 -56.5l43 14q48 0 78.5 -23t46.5 -82l69 -223h-98l-72 237q-12 43 -43 57t-78 14h-172l6 75h215q84 0 125 34t41 103q0 59 -36 88t-109 29h-202zM162 -171l5 64h304l-5 -64h-304z" />
    <glyph glyph-name="S" unicode="S" horiz-adv-x="628" 
d="M308 -8q-84 0 -151.5 22t-122.5 67l40 70q54 -43 110.5 -63t125.5 -20q86 0 129.5 31.5t43.5 86.5q0 36 -21.5 57.5t-57.5 36t-79 26.5t-86 26.5t-79 36.5t-57.5 57.5t-21.5 89.5q0 61 33 107.5t93.5 71.5t141.5 25q75 0 141 -23t111 -66l-40 -70q-47 41 -101 62t-112 21
q-84 0 -129 -33t-45 -90q0 -38 22 -62t58 -39t79 -27t86 -26t79.5 -34.5t58 -54t21.5 -85.5q0 -62 -32.5 -107.5t-93 -69.5t-144.5 -24z" />
    <glyph glyph-name="Sacute" unicode="&#x15a;" horiz-adv-x="628" 
d="M308 -8q-84 0 -151.5 22t-122.5 67l40 70q54 -43 110.5 -63t125.5 -20q86 0 129.5 31.5t43.5 86.5q0 36 -21.5 57.5t-57.5 36t-79 26.5t-86 26.5t-79 36.5t-57.5 57.5t-21.5 89.5q0 61 33 107.5t93.5 71.5t141.5 25q75 0 141 -23t111 -66l-40 -70q-47 41 -101 62t-112 21
q-84 0 -129 -33t-45 -90q0 -38 22 -62t58 -39t79 -27t86 -26t79.5 -34.5t58 -54t21.5 -85.5q0 -62 -32.5 -107.5t-93 -69.5t-144.5 -24zM388 773h-62l112 153h102z" />
    <glyph glyph-name="uni1E64" unicode="&#x1e64;" horiz-adv-x="628" 
d="M308 -8q-84 0 -151.5 22t-122.5 67l40 70q54 -43 110.5 -63t125.5 -20q86 0 129.5 31.5t43.5 86.5q0 36 -21.5 57.5t-57.5 36t-79 26.5t-86 26.5t-79 36.5t-57.5 57.5t-21.5 89.5q0 61 33 107.5t93.5 71.5t141.5 25q75 0 141 -23t111 -66l-40 -70q-47 41 -101 62t-112 21
q-84 0 -129 -33t-45 -90q0 -38 22 -62t58 -39t79 -27t86 -26t79.5 -34.5t58 -54t21.5 -85.5q0 -62 -32.5 -107.5t-93 -69.5t-144.5 -24zM397 773h-62l112 153h102zM197 926h108l-8 -99h-108z" />
    <glyph glyph-name="Scaron" unicode="&#x160;" horiz-adv-x="628" 
d="M308 -8q-84 0 -151.5 22t-122.5 67l40 70q54 -43 110.5 -63t125.5 -20q86 0 129.5 31.5t43.5 86.5q0 36 -21.5 57.5t-57.5 36t-79 26.5t-86 26.5t-79 36.5t-57.5 57.5t-21.5 89.5q0 61 33 107.5t93.5 71.5t141.5 25q75 0 141 -23t111 -66l-40 -70q-47 41 -101 62t-112 21
q-84 0 -129 -33t-45 -90q0 -38 22 -62t58 -39t79 -27t86 -26t79.5 -34.5t58 -54t21.5 -85.5q0 -62 -32.5 -107.5t-93 -69.5t-144.5 -24zM441 926h79l-134 -153h-58l-110 153h78l66 -102z" />
    <glyph glyph-name="uni1E66" unicode="&#x1e66;" horiz-adv-x="628" 
d="M308 -8q-84 0 -151.5 22t-122.5 67l40 70q54 -43 110.5 -63t125.5 -20q86 0 129.5 31.5t43.5 86.5q0 36 -21.5 57.5t-57.5 36t-79 26.5t-86 26.5t-79 36.5t-57.5 57.5t-21.5 89.5q0 61 33 107.5t93.5 71.5t141.5 25q75 0 141 -23t111 -66l-40 -70q-47 41 -101 62t-112 21
q-84 0 -129 -33t-45 -90q0 -38 22 -62t58 -39t79 -27t86 -26t79.5 -34.5t58 -54t21.5 -85.5q0 -62 -32.5 -107.5t-93 -69.5t-144.5 -24zM441 926h79l-134 -153h-58l-110 153h78l66 -102zM326 1062h108l-8 -99h-108z" />
    <glyph glyph-name="Scedilla" unicode="&#x15e;" horiz-adv-x="628" 
d="M308 -8q-84 0 -151.5 22t-122.5 67l40 70q54 -43 110.5 -63t125.5 -20q86 0 129.5 31.5t43.5 86.5q0 36 -21.5 57.5t-57.5 36t-79 26.5t-86 26.5t-79 36.5t-57.5 57.5t-21.5 89.5q0 61 33 107.5t93.5 71.5t141.5 25q75 0 141 -23t111 -66l-40 -70q-47 41 -101 62t-112 21
q-84 0 -129 -33t-45 -90q0 -38 22 -62t58 -39t79 -27t86 -26t79.5 -34.5t58 -54t21.5 -85.5q0 -62 -32.5 -107.5t-93 -69.5t-144.5 -24zM284 -195q-20 0 -46 4.5t-46 13.5l15 46q22 -8 41.5 -11t35.5 -3q25 0 40.5 8t15.5 26q0 26 -35 26q-12 0 -23 -2.5t-20 -5.5l-18 16
l19 97h60l-15 -73l-26 2q13 6 24 8t23 2q33 0 54 -17.5t21 -50.5q0 -37 -30.5 -61.5t-89.5 -24.5z" />
    <glyph glyph-name="Scircumflex" unicode="&#x15c;" horiz-adv-x="628" 
d="M308 -8q-84 0 -151.5 22t-122.5 67l40 70q54 -43 110.5 -63t125.5 -20q86 0 129.5 31.5t43.5 86.5q0 36 -21.5 57.5t-57.5 36t-79 26.5t-86 26.5t-79 36.5t-57.5 57.5t-21.5 89.5q0 61 33 107.5t93.5 71.5t141.5 25q75 0 141 -23t111 -66l-40 -70q-47 41 -101 62t-112 21
q-84 0 -129 -33t-45 -90q0 -38 22 -62t58 -39t79 -27t86 -26t79.5 -34.5t58 -54t21.5 -85.5q0 -62 -32.5 -107.5t-93 -69.5t-144.5 -24zM285 773h-79l134 153h58l110 -153h-78l-62 101z" />
    <glyph glyph-name="uni0218" unicode="&#x218;" horiz-adv-x="628" 
d="M308 -8q-84 0 -151.5 22t-122.5 67l40 70q54 -43 110.5 -63t125.5 -20q86 0 129.5 31.5t43.5 86.5q0 36 -21.5 57.5t-57.5 36t-79 26.5t-86 26.5t-79 36.5t-57.5 57.5t-21.5 89.5q0 61 33 107.5t93.5 71.5t141.5 25q75 0 141 -23t111 -66l-40 -70q-47 41 -101 62t-112 21
q-84 0 -129 -33t-45 -90q0 -38 22 -62t58 -39t79 -27t86 -26t79.5 -34.5t58 -54t21.5 -85.5q0 -62 -32.5 -107.5t-93 -69.5t-144.5 -24zM346 -72l-4 -59q-4 -39 -17.5 -71.5t-46.5 -61.5l-37 29q25 24 33.5 45t9.5 45l24 -15h-75l6 88h107z" />
    <glyph glyph-name="uni1E60" unicode="&#x1e60;" horiz-adv-x="628" 
d="M308 -8q-84 0 -151.5 22t-122.5 67l40 70q54 -43 110.5 -63t125.5 -20q86 0 129.5 31.5t43.5 86.5q0 36 -21.5 57.5t-57.5 36t-79 26.5t-86 26.5t-79 36.5t-57.5 57.5t-21.5 89.5q0 61 33 107.5t93.5 71.5t141.5 25q75 0 141 -23t111 -66l-40 -70q-47 41 -101 62t-112 21
q-84 0 -129 -33t-45 -90q0 -38 22 -62t58 -39t79 -27t86 -26t79.5 -34.5t58 -54t21.5 -85.5q0 -62 -32.5 -107.5t-93 -69.5t-144.5 -24zM313 900h108l-8 -99h-108z" />
    <glyph glyph-name="uni1E62" unicode="&#x1e62;" horiz-adv-x="628" 
d="M308 -8q-84 0 -151.5 22t-122.5 67l40 70q54 -43 110.5 -63t125.5 -20q86 0 129.5 31.5t43.5 86.5q0 36 -21.5 57.5t-57.5 36t-79 26.5t-86 26.5t-79 36.5t-57.5 57.5t-21.5 89.5q0 61 33 107.5t93.5 71.5t141.5 25q75 0 141 -23t111 -66l-40 -70q-47 41 -101 62t-112 21
q-84 0 -129 -33t-45 -90q0 -38 22 -62t58 -39t79 -27t86 -26t79.5 -34.5t58 -54t21.5 -85.5q0 -62 -32.5 -107.5t-93 -69.5t-144.5 -24zM242 -91h100l-9 -95h-100z" />
    <glyph glyph-name="uni1E68" unicode="&#x1e68;" horiz-adv-x="628" 
d="M308 -8q-84 0 -151.5 22t-122.5 67l40 70q54 -43 110.5 -63t125.5 -20q86 0 129.5 31.5t43.5 86.5q0 36 -21.5 57.5t-57.5 36t-79 26.5t-86 26.5t-79 36.5t-57.5 57.5t-21.5 89.5q0 61 33 107.5t93.5 71.5t141.5 25q75 0 141 -23t111 -66l-40 -70q-47 41 -101 62t-112 21
q-84 0 -129 -33t-45 -90q0 -38 22 -62t58 -39t79 -27t86 -26t79.5 -34.5t58 -54t21.5 -85.5q0 -62 -32.5 -107.5t-93 -69.5t-144.5 -24zM242 -91h100l-9 -95h-100zM313 900h108l-8 -99h-108z" />
    <glyph glyph-name="uni1E9E" unicode="&#x1e9e;" horiz-adv-x="699" 
d="M67 0l36 466q10 125 82.5 189t203.5 64q70 0 121 -22.5t78.5 -62.5t27.5 -96q0 -68 -36.5 -114t-104.5 -61l8 12q74 -11 115.5 -54t41.5 -114q0 -63 -29.5 -111t-82.5 -75.5t-121 -27.5q-55 0 -100.5 16t-85.5 48l36 70q39 -30 74.5 -44t70.5 -14q69 0 108.5 36.5
t39.5 102.5q0 58 -38.5 86.5t-118.5 28.5h-124l6 77h100q72 0 111.5 34t39.5 98q0 51 -38 80.5t-102 29.5q-93 0 -138.5 -44.5t-52.5 -136.5l-37 -461h-91z" />
    <glyph glyph-name="uni018F" unicode="&#x18f;" horiz-adv-x="754" 
d="M363 -8q-104 0 -172.5 46t-99 129t-21.5 193l3 39h579l-7 -77h-508l27 35q-10 -90 10 -154.5t68.5 -99.5t124.5 -34q75 0 129 38.5t82.5 109.5t28.5 168q0 124 -59.5 191t-171.5 66q-41 -1 -78 -9t-72.5 -25.5t-69.5 -46.5l-29 70q49 43 115.5 66t146.5 23q96 0 166 -40
t108.5 -115.5t38.5 -180.5q0 -119 -41.5 -207.5t-117.5 -136.5t-180 -48z" />
    <glyph glyph-name="T" unicode="T" horiz-adv-x="606" 
d="M238 0l50 634h-246l7 78h582l-5 -78h-245l-50 -634h-93z" />
    <glyph glyph-name="Tbar" unicode="&#x166;" horiz-adv-x="606" 
d="M119 324l7 73h379l-6 -73h-380zM238 0l50 634h-246l7 78h582l-5 -78h-245l-50 -634h-93z" />
    <glyph glyph-name="Tcaron" unicode="&#x164;" horiz-adv-x="606" 
d="M238 0l50 634h-246l7 78h582l-5 -78h-245l-50 -634h-93zM429 926h79l-134 -153h-58l-110 153h78l66 -102z" />
    <glyph glyph-name="uni0162" unicode="&#x162;" horiz-adv-x="606" 
d="M238 0l50 634h-246l7 78h582l-5 -78h-245l-50 -634h-93zM273 -195q-20 0 -46 4.5t-46 13.5l15 46q22 -8 41.5 -11t35.5 -3q25 0 40.5 8t15.5 26q0 26 -35 26q-12 0 -23 -2.5t-20 -5.5l-18 16l19 97h60l-15 -73l-26 2q13 6 24 8t23 2q33 0 54 -17.5t21 -50.5
q0 -37 -30.5 -61.5t-89.5 -24.5z" />
    <glyph glyph-name="uni021A" unicode="&#x21a;" horiz-adv-x="606" 
d="M238 0l50 634h-246l7 78h582l-5 -78h-245l-50 -634h-93zM333 -72l-4 -59q-4 -39 -17.5 -71.5t-46.5 -61.5l-37 29q25 24 33.5 45t9.5 45l24 -15h-75l6 88h107z" />
    <glyph glyph-name="uni1E6C" unicode="&#x1e6c;" horiz-adv-x="606" 
d="M238 0l50 634h-246l7 78h582l-5 -78h-245l-50 -634h-93zM229 -91h100l-9 -95h-100z" />
    <glyph glyph-name="uni1E6E" unicode="&#x1e6e;" horiz-adv-x="606" 
d="M238 0l50 634h-246l7 78h582l-5 -78h-245l-50 -634h-93zM120 -171l5 64h304l-5 -64h-304z" />
    <glyph glyph-name="U" unicode="U" horiz-adv-x="733" 
d="M354 -8q-146 0 -213.5 75.5t-57.5 216.5l34 428h92l-34 -428q-17 -215 182 -215q93 0 145 48.5t60 153.5l35 441h92l-34 -432q-11 -145 -87.5 -216.5t-213.5 -71.5z" />
    <glyph glyph-name="Uacute" unicode="&#xda;" horiz-adv-x="733" 
d="M354 -8q-146 0 -213.5 75.5t-57.5 216.5l34 428h92l-34 -428q-17 -215 182 -215q93 0 145 48.5t60 153.5l35 441h92l-34 -432q-11 -145 -87.5 -216.5t-213.5 -71.5zM439 773h-62l112 153h102z" />
    <glyph glyph-name="Ubreve" unicode="&#x16c;" horiz-adv-x="733" 
d="M354 -8q-146 0 -213.5 75.5t-57.5 216.5l34 428h92l-34 -428q-17 -215 182 -215q93 0 145 48.5t60 153.5l35 441h92l-34 -432q-11 -145 -87.5 -216.5t-213.5 -71.5zM412 785q-55 0 -99 26t-63 81l57 23q19 -40 45.5 -54t62.5 -14q33 0 62 14t54 54l53 -23
q-26 -56 -72 -81.5t-100 -25.5z" />
    <glyph glyph-name="Ucircumflex" unicode="&#xdb;" horiz-adv-x="733" 
d="M354 -8q-146 0 -213.5 75.5t-57.5 216.5l34 428h92l-34 -428q-17 -215 182 -215q93 0 145 48.5t60 153.5l35 441h92l-34 -432q-11 -145 -87.5 -216.5t-213.5 -71.5zM336 773h-79l134 153h58l110 -153h-78l-62 101z" />
    <glyph glyph-name="uni0214" unicode="&#x214;" horiz-adv-x="733" 
d="M354 -8q-146 0 -213.5 75.5t-57.5 216.5l34 428h92l-34 -428q-17 -215 182 -215q93 0 145 48.5t60 153.5l35 441h92l-34 -432q-11 -145 -87.5 -216.5t-213.5 -71.5zM445 773l-86 153h73l61 -153h-48zM323 773l-87 153h73l62 -153h-48z" />
    <glyph glyph-name="Udieresis" unicode="&#xdc;" horiz-adv-x="733" 
d="M354 -8q-146 0 -213.5 75.5t-57.5 216.5l34 428h92l-34 -428q-17 -215 182 -215q93 0 145 48.5t60 153.5l35 441h92l-34 -432q-11 -145 -87.5 -216.5t-213.5 -71.5zM457 896h97l-6 -92h-98zM281 896h98l-8 -92h-96z" />
    <glyph glyph-name="uni1EE4" unicode="&#x1ee4;" horiz-adv-x="733" 
d="M354 -8q-146 0 -213.5 75.5t-57.5 216.5l34 428h92l-34 -428q-17 -215 182 -215q93 0 145 48.5t60 153.5l35 441h92l-34 -432q-11 -145 -87.5 -216.5t-213.5 -71.5zM291 -91h100l-9 -95h-100z" />
    <glyph glyph-name="Ugrave" unicode="&#xd9;" horiz-adv-x="733" 
d="M354 -8q-146 0 -213.5 75.5t-57.5 216.5l34 428h92l-34 -428q-17 -215 182 -215q93 0 145 48.5t60 153.5l35 441h92l-34 -432q-11 -145 -87.5 -216.5t-213.5 -71.5zM377 773l-122 153h91l93 -153h-62z" />
    <glyph glyph-name="uni1EE6" unicode="&#x1ee6;" horiz-adv-x="733" 
d="M354 -8q-146 0 -213.5 75.5t-57.5 216.5l34 428h92l-34 -428q-17 -215 182 -215q93 0 145 48.5t60 153.5l35 441h92l-34 -432q-11 -145 -87.5 -216.5t-213.5 -71.5zM437 783l-1 -10h-56l2 18q1 17 12 27t25 17t24.5 13.5t10.5 16.5q0 7 -9.5 11.5t-26.5 4.5
q-14 0 -29 -2.5t-35 -9.5l-12 45q20 8 41.5 12t42.5 4q47 0 72 -16.5t25 -42.5q0 -22 -12.5 -34t-29 -19t-30 -14.5t-14.5 -20.5z" />
    <glyph glyph-name="Uhorn" unicode="&#x1af;" horiz-adv-x="733" 
d="M736 838h81l-3 -29q-5 -69 -47.5 -109t-115.5 -42l37 34l-33 -412q-12 -145 -88 -216.5t-213 -71.5q-146 0 -213.5 75.5t-57.5 216.5l34 428h92l-34 -428q-17 -215 182 -215q93 0 145 48.5t60 153.5l35 441h26q56 1 81.5 25.5t29.5 84.5z" />
    <glyph glyph-name="uni1EE8" unicode="&#x1ee8;" horiz-adv-x="733" 
d="M736 838h81l-3 -29q-5 -69 -47.5 -109t-115.5 -42l37 34l-33 -412q-12 -145 -88 -216.5t-213 -71.5q-146 0 -213.5 75.5t-57.5 216.5l34 428h92l-34 -428q-17 -215 182 -215q93 0 145 48.5t60 153.5l35 441h26q56 1 81.5 25.5t29.5 84.5zM439 773h-62l112 153h102z" />
    <glyph glyph-name="uni1EF0" unicode="&#x1ef0;" horiz-adv-x="733" 
d="M736 838h81l-3 -29q-5 -69 -47.5 -109t-115.5 -42l37 34l-33 -412q-12 -145 -88 -216.5t-213 -71.5q-146 0 -213.5 75.5t-57.5 216.5l34 428h92l-34 -428q-17 -215 182 -215q93 0 145 48.5t60 153.5l35 441h26q56 1 81.5 25.5t29.5 84.5zM291 -91h100l-9 -95h-100z" />
    <glyph glyph-name="uni1EEA" unicode="&#x1eea;" horiz-adv-x="733" 
d="M736 838h81l-3 -29q-5 -69 -47.5 -109t-115.5 -42l37 34l-33 -412q-12 -145 -88 -216.5t-213 -71.5q-146 0 -213.5 75.5t-57.5 216.5l34 428h92l-34 -428q-17 -215 182 -215q93 0 145 48.5t60 153.5l35 441h26q56 1 81.5 25.5t29.5 84.5zM377 773l-122 153h91l93 -153
h-62z" />
    <glyph glyph-name="uni1EEC" unicode="&#x1eec;" horiz-adv-x="733" 
d="M736 838h81l-3 -29q-5 -69 -47.5 -109t-115.5 -42l37 34l-33 -412q-12 -145 -88 -216.5t-213 -71.5q-146 0 -213.5 75.5t-57.5 216.5l34 428h92l-34 -428q-17 -215 182 -215q93 0 145 48.5t60 153.5l35 441h26q56 1 81.5 25.5t29.5 84.5zM437 783l-1 -10h-56l2 18
q1 17 12 27t25 17t24.5 13.5t10.5 16.5q0 7 -9.5 11.5t-26.5 4.5q-14 0 -29 -2.5t-35 -9.5l-12 45q20 8 41.5 12t42.5 4q47 0 72 -16.5t25 -42.5q0 -22 -12.5 -34t-29 -19t-30 -14.5t-14.5 -20.5z" />
    <glyph glyph-name="uni1EEE" unicode="&#x1eee;" horiz-adv-x="733" 
d="M736 838h81l-3 -29q-5 -69 -47.5 -109t-115.5 -42l37 34l-33 -412q-12 -145 -88 -216.5t-213 -71.5q-146 0 -213.5 75.5t-57.5 216.5l34 428h92l-34 -428q-17 -215 182 -215q93 0 145 48.5t60 153.5l35 441h26q56 1 81.5 25.5t29.5 84.5zM245 792q2 42 16 68.5t36.5 39
t49.5 12.5q28 0 51.5 -14t45.5 -28.5t41 -14.5q22 0 35.5 14t14.5 40h49q-2 -42 -16.5 -68t-37 -39t-49.5 -13q-28 0 -51.5 14.5t-45 28.5t-40.5 14q-22 0 -35.5 -14t-15.5 -40h-48z" />
    <glyph glyph-name="Uhungarumlaut" unicode="&#x170;" horiz-adv-x="733" 
d="M354 -8q-146 0 -213.5 75.5t-57.5 216.5l34 428h92l-34 -428q-17 -215 182 -215q93 0 145 48.5t60 153.5l35 441h92l-34 -432q-11 -145 -87.5 -216.5t-213.5 -71.5zM445 773l83 153h78l-113 -153h-48zM323 773l82 153h78l-112 -153h-48z" />
    <glyph glyph-name="uni0216" unicode="&#x216;" horiz-adv-x="733" 
d="M354 -8q-146 0 -213.5 75.5t-57.5 216.5l34 428h92l-34 -428q-17 -215 182 -215q93 0 145 48.5t60 153.5l35 441h92l-34 -432q-11 -145 -87.5 -216.5t-213.5 -71.5zM416 916q55 0 99 -26.5t63 -81.5l-57 -22q-19 38 -45.5 53t-62.5 15q-34 0 -62.5 -15t-53.5 -53l-53 22
q26 57 72 82.5t100 25.5z" />
    <glyph glyph-name="Umacron" unicode="&#x16a;" horiz-adv-x="733" 
d="M354 -8q-146 0 -213.5 75.5t-57.5 216.5l34 428h92l-34 -428q-17 -215 182 -215q93 0 145 48.5t60 153.5l35 441h92l-34 -432q-11 -145 -87.5 -216.5t-213.5 -71.5zM259 817l6 66h304l-5 -66h-305z" />
    <glyph glyph-name="uni1E7A" unicode="&#x1e7a;" horiz-adv-x="733" 
d="M354 -8q-146 0 -213.5 75.5t-57.5 216.5l34 428h92l-34 -428q-17 -215 182 -215q93 0 145 48.5t60 153.5l35 441h92l-34 -432q-11 -145 -87.5 -216.5t-213.5 -71.5zM259 817l6 66h304l-5 -66h-305zM470 1058h97l-6 -92h-98zM294 1058h98l-8 -92h-96z" />
    <glyph glyph-name="Uogonek" unicode="&#x172;" horiz-adv-x="733" 
d="M597 712h92l-34 -432q-9 -113 -58 -182.5t-139 -93.5q-41 -12 -62.5 -32t-21.5 -52q0 -29 16 -43.5t44 -14.5q12 0 27.5 4.5t31.5 11.5l13 -51q-17 -10 -39.5 -16t-47.5 -6q-53 0 -83.5 28t-30.5 72q0 39 18.5 65t55.5 41l10 -19h-39q-143 0 -210 75.5t-57 216.5l34 428
h92l-34 -428q-17 -215 182 -215q93 0 145 48.5t60 153.5z" />
    <glyph glyph-name="Uring" unicode="&#x16e;" horiz-adv-x="733" 
d="M354 -8q-146 0 -213.5 75.5t-57.5 216.5l34 428h92l-34 -428q-17 -215 182 -215q93 0 145 48.5t60 153.5l35 441h92l-34 -432q-11 -145 -87.5 -216.5t-213.5 -71.5zM415 768q-42 0 -72.5 29.5t-30.5 71.5q0 43 30.5 72t72.5 29q44 0 73.5 -29t29.5 -72q0 -42 -29.5 -71.5
t-73.5 -29.5zM415 819q21 0 34.5 14t13.5 36q0 21 -13.5 35t-34.5 14t-34.5 -14t-13.5 -35q0 -22 13.5 -36t34.5 -14z" />
    <glyph glyph-name="Utilde" unicode="&#x168;" horiz-adv-x="733" 
d="M354 -8q-146 0 -213.5 75.5t-57.5 216.5l34 428h92l-34 -428q-17 -215 182 -215q93 0 145 48.5t60 153.5l35 441h92l-34 -432q-11 -145 -87.5 -216.5t-213.5 -71.5zM245 792q2 42 16 68.5t36.5 39t49.5 12.5q28 0 51.5 -14t45.5 -28.5t41 -14.5q22 0 35.5 14t14.5 40h49
q-2 -42 -16.5 -68t-37 -39t-49.5 -13q-28 0 -51.5 14.5t-45 28.5t-40.5 14q-22 0 -35.5 -14t-15.5 -40h-48z" />
    <glyph glyph-name="uni1E78" unicode="&#x1e78;" horiz-adv-x="733" 
d="M354 -8q-146 0 -213.5 75.5t-57.5 216.5l34 428h92l-34 -428q-17 -215 182 -215q93 0 145 48.5t60 153.5l35 441h92l-34 -432q-11 -145 -87.5 -216.5t-213.5 -71.5zM245 792q2 42 16 68.5t36.5 39t49.5 12.5q28 0 51.5 -14t45.5 -28.5t41 -14.5q22 0 35.5 14t14.5 40h49
q-2 -42 -16.5 -68t-37 -39t-49.5 -13q-28 0 -51.5 14.5t-45 28.5t-40.5 14q-22 0 -35.5 -14t-15.5 -40h-48zM452 935h-62l112 153h102z" />
    <glyph glyph-name="V" unicode="V" horiz-adv-x="702" 
d="M293 0l-257 712h97l223 -635h-34l321 635h97l-368 -712h-79z" />
    <glyph glyph-name="W" unicode="W" horiz-adv-x="1114" 
d="M261 0l-193 712h93l164 -629h-33l268 629l70 -1l165 -628h-32l265 629h90l-304 -712h-79l-161 599h22l-257 -599h-78z" />
    <glyph glyph-name="Wacute" unicode="&#x1e82;" horiz-adv-x="1114" 
d="M261 0l-193 712h93l164 -629h-33l268 629l70 -1l165 -628h-32l265 629h90l-304 -712h-79l-161 599h22l-257 -599h-78zM629 773h-62l112 153h102z" />
    <glyph glyph-name="Wcircumflex" unicode="&#x174;" horiz-adv-x="1114" 
d="M261 0l-193 712h93l164 -629h-33l268 629l70 -1l165 -628h-32l265 629h90l-304 -712h-79l-161 599h22l-257 -599h-78zM526 773h-79l134 153h58l110 -153h-78l-62 101z" />
    <glyph glyph-name="Wdieresis" unicode="&#x1e84;" horiz-adv-x="1114" 
d="M261 0l-193 712h93l164 -629h-33l268 629l70 -1l165 -628h-32l265 629h90l-304 -712h-79l-161 599h22l-257 -599h-78zM647 896h97l-6 -92h-98zM471 896h98l-8 -92h-96z" />
    <glyph glyph-name="Wgrave" unicode="&#x1e80;" horiz-adv-x="1114" 
d="M261 0l-193 712h93l164 -629h-33l268 629l70 -1l165 -628h-32l265 629h90l-304 -712h-79l-161 599h22l-257 -599h-78zM567 773l-122 153h91l93 -153h-62z" />
    <glyph glyph-name="X" unicode="X" horiz-adv-x="656" 
d="M96 0h-111l300 366l57 69l224 277h111l-286 -349l-58 -70zM524 0l-191 293l-48 73l-232 346h108l181 -277l49 -72l242 -363h-109z" />
    <glyph glyph-name="Y" unicode="Y" horiz-adv-x="612" 
d="M239 0l26 320l15 -63l-267 455h106l205 -367h-24l262 367h108l-337 -455l25 63l-25 -320h-94z" />
    <glyph glyph-name="Yacute" unicode="&#xdd;" horiz-adv-x="612" 
d="M239 0l26 320l15 -63l-267 455h106l205 -367h-24l262 367h108l-337 -455l25 63l-25 -320h-94zM378 773h-62l112 153h102z" />
    <glyph glyph-name="Ycircumflex" unicode="&#x176;" horiz-adv-x="612" 
d="M239 0l26 320l15 -63l-267 455h106l205 -367h-24l262 367h108l-337 -455l25 63l-25 -320h-94zM275 773h-79l134 153h58l110 -153h-78l-62 101z" />
    <glyph glyph-name="Ydieresis" unicode="&#x178;" horiz-adv-x="612" 
d="M239 0l26 320l15 -63l-267 455h106l205 -367h-24l262 367h108l-337 -455l25 63l-25 -320h-94zM396 896h97l-6 -92h-98zM220 896h98l-8 -92h-96z" />
    <glyph glyph-name="uni1E8E" unicode="&#x1e8e;" horiz-adv-x="612" 
d="M239 0l26 320l15 -63l-267 455h106l205 -367h-24l262 367h108l-337 -455l25 63l-25 -320h-94zM303 900h108l-8 -99h-108z" />
    <glyph glyph-name="uni1EF4" unicode="&#x1ef4;" horiz-adv-x="612" 
d="M239 0l26 320l15 -63l-267 455h106l205 -367h-24l262 367h108l-337 -455l25 63l-25 -320h-94zM231 -91h100l-9 -95h-100z" />
    <glyph glyph-name="Ygrave" unicode="&#x1ef2;" horiz-adv-x="612" 
d="M239 0l26 320l15 -63l-267 455h106l205 -367h-24l262 367h108l-337 -455l25 63l-25 -320h-94zM316 773l-122 153h91l93 -153h-62z" />
    <glyph glyph-name="uni1EF6" unicode="&#x1ef6;" horiz-adv-x="612" 
d="M239 0l26 320l15 -63l-267 455h106l205 -367h-24l262 367h108l-337 -455l25 63l-25 -320h-94zM376 783l-1 -10h-56l2 18q1 17 12 27t25 17t24.5 13.5t10.5 16.5q0 7 -9.5 11.5t-26.5 4.5q-14 0 -29 -2.5t-35 -9.5l-12 45q20 8 41.5 12t42.5 4q47 0 72 -16.5t25 -42.5
q0 -22 -12.5 -34t-29 -19t-30 -14.5t-14.5 -20.5z" />
    <glyph glyph-name="uni0232" unicode="&#x232;" horiz-adv-x="612" 
d="M239 0l26 320l15 -63l-267 455h106l205 -367h-24l262 367h108l-337 -455l25 63l-25 -320h-94zM198 817l6 66h304l-5 -66h-305z" />
    <glyph glyph-name="uni1EF8" unicode="&#x1ef8;" horiz-adv-x="612" 
d="M239 0l26 320l15 -63l-267 455h106l205 -367h-24l262 367h108l-337 -455l25 63l-25 -320h-94zM184 792q2 42 16 68.5t36.5 39t49.5 12.5q28 0 51.5 -14t45.5 -28.5t41 -14.5q22 0 35.5 14t14.5 40h49q-2 -42 -16.5 -68t-37 -39t-49.5 -13q-28 0 -51.5 14.5t-45 28.5
t-40.5 14q-22 0 -35.5 -14t-15.5 -40h-48z" />
    <glyph glyph-name="Z" unicode="Z" horiz-adv-x="599" 
d="M27 0l4 69l473 609l-2 -43h-425l6 77h505l-6 -67l-472 -611l2 43h437l-7 -77h-515z" />
    <glyph glyph-name="Zacute" unicode="&#x179;" horiz-adv-x="599" 
d="M27 0l4 69l473 609l-2 -43h-425l6 77h505l-6 -67l-472 -611l2 43h437l-7 -77h-515zM371 773h-62l112 153h102z" />
    <glyph glyph-name="Zcaron" unicode="&#x17d;" horiz-adv-x="599" 
d="M27 0l4 69l473 609l-2 -43h-425l6 77h505l-6 -67l-472 -611l2 43h437l-7 -77h-515zM424 926h79l-134 -153h-58l-110 153h78l66 -102z" />
    <glyph glyph-name="Zdotaccent" unicode="&#x17b;" horiz-adv-x="599" 
d="M27 0l4 69l473 609l-2 -43h-425l6 77h505l-6 -67l-472 -611l2 43h437l-7 -77h-515zM296 900h108l-8 -99h-108z" />
    <glyph glyph-name="uni1E92" unicode="&#x1e92;" horiz-adv-x="599" 
d="M27 0l4 69l473 609l-2 -43h-425l6 77h505l-6 -67l-472 -611l2 43h437l-7 -77h-515zM227 -91h100l-9 -95h-100z" />
    <glyph glyph-name="Iacute_J.loclNLD" horiz-adv-x="600" 
d="M67 0l55 712h94l-56 -712h-93zM206 773h-62l112 153h102zM226 -178l6 79q56 -11 92.5 -5.5t55 34t23.5 85.5l55 697h94l-56 -697q-6 -85 -36.5 -132.5t-88 -61.5t-145.5 1zM539 773h-62l112 153h102z" />
    <glyph glyph-name="a" unicode="a" horiz-adv-x="604" 
d="M261 -7q-64 0 -112.5 29.5t-75.5 84t-27 129.5q0 84 30 146.5t83.5 98t123.5 35.5q68 0 114.5 -32.5t64.5 -91.5l-13 -12l10 123h89l-40 -503h-89l11 126l10 -16q-13 -37 -40 -63.5t-63 -40t-76 -13.5zM286 66q71 0 112.5 55.5t41.5 149.5q0 84 -37.5 127.5t-108.5 43.5
q-73 0 -114.5 -54.5t-41.5 -151.5q0 -80 38.5 -125t109.5 -45z" />
    <glyph glyph-name="aacute" unicode="&#xe1;" horiz-adv-x="604" 
d="M261 -7q-64 0 -112.5 29.5t-75.5 84t-27 129.5q0 84 30 146.5t83.5 98t123.5 35.5q68 0 114.5 -32.5t64.5 -91.5l-13 -12l10 123h89l-40 -503h-89l11 126l10 -16q-13 -37 -40 -63.5t-63 -40t-76 -13.5zM286 66q71 0 112.5 55.5t41.5 149.5q0 84 -37.5 127.5t-108.5 43.5
q-73 0 -114.5 -54.5t-41.5 -151.5q0 -80 38.5 -125t109.5 -45zM359 568h-62l114 205h105z" />
    <glyph glyph-name="abreve" unicode="&#x103;" horiz-adv-x="604" 
d="M261 -7q-64 0 -112.5 29.5t-75.5 84t-27 129.5q0 84 30 146.5t83.5 98t123.5 35.5q68 0 114.5 -32.5t64.5 -91.5l-13 -12l10 123h89l-40 -503h-89l11 126l10 -16q-13 -37 -40 -63.5t-63 -40t-76 -13.5zM286 66q71 0 112.5 55.5t41.5 149.5q0 84 -37.5 127.5t-108.5 43.5
q-73 0 -114.5 -54.5t-41.5 -151.5q0 -80 38.5 -125t109.5 -45zM332 598q-53 0 -98 31t-63 99l56 23q19 -49 47.5 -69t62.5 -20t64 19.5t56 69.5l53 -23q-26 -71 -75 -100.5t-103 -29.5z" />
    <glyph glyph-name="uni1EAF" unicode="&#x1eaf;" horiz-adv-x="604" 
d="M261 -7q-64 0 -112.5 29.5t-75.5 84t-27 129.5q0 84 30 146.5t83.5 98t123.5 35.5q68 0 114.5 -32.5t64.5 -91.5l-13 -12l10 123h89l-40 -503h-89l11 126l10 -16q-13 -37 -40 -63.5t-63 -40t-76 -13.5zM286 66q71 0 112.5 55.5t41.5 149.5q0 84 -37.5 127.5t-108.5 43.5
q-73 0 -114.5 -54.5t-41.5 -151.5q0 -80 38.5 -125t109.5 -45zM331 563q-55 0 -98.5 26t-63.5 82l51 20q20 -40 49 -54.5t66 -14.5q22 0 42.5 6t41 21.5t36.5 41.5l47 -20q-27 -58 -73 -83t-98 -25zM365 673h-58l109 143h98z" />
    <glyph glyph-name="uni1EB7" unicode="&#x1eb7;" horiz-adv-x="604" 
d="M261 -7q-64 0 -112.5 29.5t-75.5 84t-27 129.5q0 84 30 146.5t83.5 98t123.5 35.5q68 0 114.5 -32.5t64.5 -91.5l-13 -12l10 123h89l-40 -503h-89l11 126l10 -16q-13 -37 -40 -63.5t-63 -40t-76 -13.5zM286 66q71 0 112.5 55.5t41.5 149.5q0 84 -37.5 127.5t-108.5 43.5
q-73 0 -114.5 -54.5t-41.5 -151.5q0 -80 38.5 -125t109.5 -45zM228 -91h100l-9 -95h-100zM332 598q-53 0 -98 31t-63 99l56 23q19 -49 47.5 -69t62.5 -20t64 19.5t56 69.5l53 -23q-26 -71 -75 -100.5t-103 -29.5z" />
    <glyph glyph-name="uni1EB1" unicode="&#x1eb1;" horiz-adv-x="604" 
d="M261 -7q-64 0 -112.5 29.5t-75.5 84t-27 129.5q0 84 30 146.5t83.5 98t123.5 35.5q68 0 114.5 -32.5t64.5 -91.5l-13 -12l10 123h89l-40 -503h-89l11 126l10 -16q-13 -37 -40 -63.5t-63 -40t-76 -13.5zM286 66q71 0 112.5 55.5t41.5 149.5q0 84 -37.5 127.5t-108.5 43.5
q-73 0 -114.5 -54.5t-41.5 -151.5q0 -80 38.5 -125t109.5 -45zM331 563q-55 0 -98.5 26t-63.5 82l51 20q20 -40 49 -54.5t66 -14.5q22 0 42.5 6t41 21.5t36.5 41.5l47 -20q-27 -58 -73 -83t-98 -25zM307 673l-122 143h88l92 -143h-58z" />
    <glyph glyph-name="uni1EB3" unicode="&#x1eb3;" horiz-adv-x="604" 
d="M261 -7q-64 0 -112.5 29.5t-75.5 84t-27 129.5q0 84 30 146.5t83.5 98t123.5 35.5q68 0 114.5 -32.5t64.5 -91.5l-13 -12l10 123h89l-40 -503h-89l11 126l10 -16q-13 -37 -40 -63.5t-63 -40t-76 -13.5zM286 66q71 0 112.5 55.5t41.5 149.5q0 84 -37.5 127.5t-108.5 43.5
q-73 0 -114.5 -54.5t-41.5 -151.5q0 -80 38.5 -125t109.5 -45zM331 563q-55 0 -98.5 26t-63.5 82l51 20q20 -40 49 -54.5t66 -14.5q22 0 42.5 6t41 21.5t36.5 41.5l47 -20q-27 -58 -73 -83t-98 -25zM308 673l2 18q1 17 12.5 26.5t25 15t24 10t10.5 13.5q0 7 -9.5 11.5
t-24.5 4.5t-30.5 -2.5t-36.5 -9.5l-11 45q18 8 40.5 12t44.5 4q47 0 71.5 -16t24.5 -42q0 -20 -12.5 -31t-28.5 -17.5t-29.5 -13.5t-14.5 -19l-1 -9h-57z" />
    <glyph glyph-name="uni1EB5" unicode="&#x1eb5;" horiz-adv-x="604" 
d="M261 -7q-64 0 -112.5 29.5t-75.5 84t-27 129.5q0 84 30 146.5t83.5 98t123.5 35.5q68 0 114.5 -32.5t64.5 -91.5l-13 -12l10 123h89l-40 -503h-89l11 126l10 -16q-13 -37 -40 -63.5t-63 -40t-76 -13.5zM286 66q71 0 112.5 55.5t41.5 149.5q0 84 -37.5 127.5t-108.5 43.5
q-73 0 -114.5 -54.5t-41.5 -151.5q0 -80 38.5 -125t109.5 -45zM331 563q-55 0 -98.5 26t-63.5 82l51 20q20 -40 49 -54.5t66 -14.5q22 0 42.5 6t41 21.5t36.5 41.5l47 -20q-27 -58 -73 -83t-98 -25zM414 716q-29 0 -53.5 12.5t-46 25t-42.5 12.5q-20 0 -33 -12t-15 -35h-49
q2 34 15.5 57t35.5 35t48 12q29 0 53.5 -12.5t46.5 -25t43 -12.5q20 0 33 12t14 35h49q-2 -33 -15.5 -56.5t-35.5 -35.5t-48 -12z" />
    <glyph glyph-name="uni01CE" unicode="&#x1ce;" horiz-adv-x="604" 
d="M261 -7q-64 0 -112.5 29.5t-75.5 84t-27 129.5q0 84 30 146.5t83.5 98t123.5 35.5q68 0 114.5 -32.5t64.5 -91.5l-13 -12l10 123h89l-40 -503h-89l11 126l10 -16q-13 -37 -40 -63.5t-63 -40t-76 -13.5zM286 66q71 0 112.5 55.5t41.5 149.5q0 84 -37.5 127.5t-108.5 43.5
q-73 0 -114.5 -54.5t-41.5 -151.5q0 -80 38.5 -125t109.5 -45zM413 773h83l-137 -205h-61l-105 205h79l60 -141z" />
    <glyph glyph-name="acircumflex" unicode="&#xe2;" horiz-adv-x="604" 
d="M261 -7q-64 0 -112.5 29.5t-75.5 84t-27 129.5q0 84 30 146.5t83.5 98t123.5 35.5q68 0 114.5 -32.5t64.5 -91.5l-13 -12l10 123h89l-40 -503h-89l11 126l10 -16q-13 -37 -40 -63.5t-63 -40t-76 -13.5zM286 66q71 0 112.5 55.5t41.5 149.5q0 84 -37.5 127.5t-108.5 43.5
q-73 0 -114.5 -54.5t-41.5 -151.5q0 -80 38.5 -125t109.5 -45zM259 568h-83l138 205h61l105 -205h-80l-60 141z" />
    <glyph glyph-name="uni1EA5" unicode="&#x1ea5;" horiz-adv-x="604" 
d="M261 -7q-64 0 -112.5 29.5t-75.5 84t-27 129.5q0 84 30 146.5t83.5 98t123.5 35.5q68 0 114.5 -32.5t64.5 -91.5l-13 -12l10 123h89l-40 -503h-89l11 126l10 -16q-13 -37 -40 -63.5t-63 -40t-76 -13.5zM286 66q71 0 112.5 55.5t41.5 149.5q0 84 -37.5 127.5t-108.5 43.5
q-73 0 -114.5 -54.5t-41.5 -151.5q0 -80 38.5 -125t109.5 -45zM256 568h-80l135 147h58l111 -147h-78l-64 96zM476 673h-53l98 143h97z" />
    <glyph glyph-name="uni1EAD" unicode="&#x1ead;" horiz-adv-x="604" 
d="M261 -7q-64 0 -112.5 29.5t-75.5 84t-27 129.5q0 84 30 146.5t83.5 98t123.5 35.5q68 0 114.5 -32.5t64.5 -91.5l-13 -12l10 123h89l-40 -503h-89l11 126l10 -16q-13 -37 -40 -63.5t-63 -40t-76 -13.5zM286 66q71 0 112.5 55.5t41.5 149.5q0 84 -37.5 127.5t-108.5 43.5
q-73 0 -114.5 -54.5t-41.5 -151.5q0 -80 38.5 -125t109.5 -45zM228 -91h100l-9 -95h-100zM259 568h-83l138 205h61l105 -205h-80l-60 141z" />
    <glyph glyph-name="uni1EA7" unicode="&#x1ea7;" horiz-adv-x="604" 
d="M261 -7q-64 0 -112.5 29.5t-75.5 84t-27 129.5q0 84 30 146.5t83.5 98t123.5 35.5q68 0 114.5 -32.5t64.5 -91.5l-13 -12l10 123h89l-40 -503h-89l11 126l10 -16q-13 -37 -40 -63.5t-63 -40t-76 -13.5zM286 66q71 0 112.5 55.5t41.5 149.5q0 84 -37.5 127.5t-108.5 43.5
q-73 0 -114.5 -54.5t-41.5 -151.5q0 -80 38.5 -125t109.5 -45zM176 568l135 147h58l111 -147h-78l-64 96l-82 -96h-80zM466 673l-101 143h86l68 -143h-53z" />
    <glyph glyph-name="uni1EA9" unicode="&#x1ea9;" horiz-adv-x="604" 
d="M261 -7q-64 0 -112.5 29.5t-75.5 84t-27 129.5q0 84 30 146.5t83.5 98t123.5 35.5q68 0 114.5 -32.5t64.5 -91.5l-13 -12l10 123h89l-40 -503h-89l11 126l10 -16q-13 -37 -40 -63.5t-63 -40t-76 -13.5zM286 66q71 0 112.5 55.5t41.5 149.5q0 84 -37.5 127.5t-108.5 43.5
q-73 0 -114.5 -54.5t-41.5 -151.5q0 -80 38.5 -125t109.5 -45zM176 568l135 147h58l111 -147h-78l-64 96l-82 -96h-80zM422 673l2 18q1 17 12 26.5t25 15t24.5 10t10.5 13.5q0 7 -9.5 11.5t-24.5 4.5t-30.5 -2.5t-36.5 -9.5l-11 45q18 8 40.5 12t44.5 4q46 0 71 -16t25 -42
q0 -20 -12.5 -31t-28.5 -17.5t-29.5 -13.5t-14.5 -19l-1 -9h-57z" />
    <glyph glyph-name="uni1EAB" unicode="&#x1eab;" horiz-adv-x="604" 
d="M261 -7q-64 0 -112.5 29.5t-75.5 84t-27 129.5q0 84 30 146.5t83.5 98t123.5 35.5q68 0 114.5 -32.5t64.5 -91.5l-13 -12l10 123h89l-40 -503h-89l11 126l10 -16q-13 -37 -40 -63.5t-63 -40t-76 -13.5zM286 66q71 0 112.5 55.5t41.5 149.5q0 84 -37.5 127.5t-108.5 43.5
q-73 0 -114.5 -54.5t-41.5 -151.5q0 -80 38.5 -125t109.5 -45zM176 568l135 147h58l111 -147h-78l-64 96l-82 -96h-80zM176 731q2 32 15.5 54t35.5 34t48 12q30 0 54.5 -10.5t46 -20.5t42.5 -10q20 0 33 11.5t14 30.5h49q-1 -31 -15 -54t-36 -34.5t-48 -11.5q-29 0 -54 10.5
t-46.5 21t-42.5 10.5q-20 0 -33 -12t-14 -31h-49z" />
    <glyph glyph-name="uni0201" unicode="&#x201;" horiz-adv-x="604" 
d="M261 -7q-64 0 -112.5 29.5t-75.5 84t-27 129.5q0 84 30 146.5t83.5 98t123.5 35.5q68 0 114.5 -32.5t64.5 -91.5l-13 -12l10 123h89l-40 -503h-89l11 126l10 -16q-13 -37 -40 -63.5t-63 -40t-76 -13.5zM286 66q71 0 112.5 55.5t41.5 149.5q0 84 -37.5 127.5t-108.5 43.5
q-73 0 -114.5 -54.5t-41.5 -151.5q0 -80 38.5 -125t109.5 -45zM368 568l-61 205h77l28 -205h-44zM243 568l-62 205h78l28 -205h-44z" />
    <glyph glyph-name="adieresis" unicode="&#xe4;" horiz-adv-x="604" 
d="M261 -7q-64 0 -112.5 29.5t-75.5 84t-27 129.5q0 84 30 146.5t83.5 98t123.5 35.5q68 0 114.5 -32.5t64.5 -91.5l-13 -12l10 123h89l-40 -503h-89l11 126l10 -16q-13 -37 -40 -63.5t-63 -40t-76 -13.5zM286 66q71 0 112.5 55.5t41.5 149.5q0 84 -37.5 127.5t-108.5 43.5
q-73 0 -114.5 -54.5t-41.5 -151.5q0 -80 38.5 -125t109.5 -45zM379 717h97l-7 -93h-97zM203 717h97l-7 -93h-96z" />
    <glyph glyph-name="uni0227" unicode="&#x227;" horiz-adv-x="604" 
d="M261 -7q-64 0 -112.5 29.5t-75.5 84t-27 129.5q0 84 30 146.5t83.5 98t123.5 35.5q68 0 114.5 -32.5t64.5 -91.5l-13 -12l10 123h89l-40 -503h-89l11 126l10 -16q-13 -37 -40 -63.5t-63 -40t-76 -13.5zM286 66q71 0 112.5 55.5t41.5 149.5q0 84 -37.5 127.5t-108.5 43.5
q-73 0 -114.5 -54.5t-41.5 -151.5q0 -80 38.5 -125t109.5 -45zM286 720h108l-8 -99h-109z" />
    <glyph glyph-name="uni1EA1" unicode="&#x1ea1;" horiz-adv-x="604" 
d="M261 -7q-64 0 -112.5 29.5t-75.5 84t-27 129.5q0 84 30 146.5t83.5 98t123.5 35.5q68 0 114.5 -32.5t64.5 -91.5l-13 -12l10 123h89l-40 -503h-89l11 126l10 -16q-13 -37 -40 -63.5t-63 -40t-76 -13.5zM286 66q71 0 112.5 55.5t41.5 149.5q0 84 -37.5 127.5t-108.5 43.5
q-73 0 -114.5 -54.5t-41.5 -151.5q0 -80 38.5 -125t109.5 -45zM228 -91h100l-9 -95h-100z" />
    <glyph glyph-name="agrave" unicode="&#xe0;" horiz-adv-x="604" 
d="M261 -7q-64 0 -112.5 29.5t-75.5 84t-27 129.5q0 84 30 146.5t83.5 98t123.5 35.5q68 0 114.5 -32.5t64.5 -91.5l-13 -12l10 123h89l-40 -503h-89l11 126l10 -16q-13 -37 -40 -63.5t-63 -40t-76 -13.5zM286 66q71 0 112.5 55.5t41.5 149.5q0 84 -37.5 127.5t-108.5 43.5
q-73 0 -114.5 -54.5t-41.5 -151.5q0 -80 38.5 -125t109.5 -45zM297 568l-121 205h96l87 -205h-62z" />
    <glyph glyph-name="uni1EA3" unicode="&#x1ea3;" horiz-adv-x="604" 
d="M261 -7q-64 0 -112.5 29.5t-75.5 84t-27 129.5q0 84 30 146.5t83.5 98t123.5 35.5q68 0 114.5 -32.5t64.5 -91.5l-13 -12l10 123h89l-40 -503h-89l11 126l10 -16q-13 -37 -40 -63.5t-63 -40t-76 -13.5zM286 66q71 0 112.5 55.5t41.5 149.5q0 84 -37.5 127.5t-108.5 43.5
q-73 0 -114.5 -54.5t-41.5 -151.5q0 -80 38.5 -125t109.5 -45zM359 586l-1 -18h-56l2 27q1 21 12.5 36t25 26t24 21.5t10.5 22.5q0 22 -38 22q-13 0 -27 -2.5t-33 -7.5l-12 48q21 8 42 12t43 4q45 0 70.5 -19t25.5 -48q0 -24 -13 -40t-29.5 -28t-30 -24.5t-15.5 -31.5z" />
    <glyph glyph-name="uni0203" unicode="&#x203;" horiz-adv-x="604" 
d="M261 -7q-64 0 -112.5 29.5t-75.5 84t-27 129.5q0 84 30 146.5t83.5 98t123.5 35.5q68 0 114.5 -32.5t64.5 -91.5l-13 -12l10 123h89l-40 -503h-89l11 126l10 -16q-13 -37 -40 -63.5t-63 -40t-76 -13.5zM286 66q71 0 112.5 55.5t41.5 149.5q0 84 -37.5 127.5t-108.5 43.5
q-73 0 -114.5 -54.5t-41.5 -151.5q0 -80 38.5 -125t109.5 -45zM340 749q54 0 98.5 -31.5t62.5 -98.5l-55 -23q-19 49 -48 68.5t-63 19.5q-33 0 -63 -19t-56 -69l-54 22q18 47 46 76t62 42t70 13z" />
    <glyph glyph-name="amacron" unicode="&#x101;" horiz-adv-x="604" 
d="M261 -7q-64 0 -112.5 29.5t-75.5 84t-27 129.5q0 84 30 146.5t83.5 98t123.5 35.5q68 0 114.5 -32.5t64.5 -91.5l-13 -12l10 123h89l-40 -503h-89l11 126l10 -16q-13 -37 -40 -63.5t-63 -40t-76 -13.5zM286 66q71 0 112.5 55.5t41.5 149.5q0 84 -37.5 127.5t-108.5 43.5
q-73 0 -114.5 -54.5t-41.5 -151.5q0 -80 38.5 -125t109.5 -45zM181 637l5 67h304l-5 -67h-304z" />
    <glyph glyph-name="aogonek" unicode="&#x105;" horiz-adv-x="604" 
d="M452 -200q-54 0 -85.5 29t-31.5 74q0 52 36 87t96 48l-22 -38h-26l9 110h12q-13 -37 -40 -63.5t-63 -40t-77 -13.5q-64 0 -112 29.5t-75 84t-27 129.5q0 84 30 146.5t83.5 98t123.5 35.5q67 0 114 -32.5t65 -91.5l-13 -12l9 123h90l-40 -503h-13q-37 0 -64 -22t-27 -60
q0 -30 16.5 -45.5t44.5 -15.5q13 0 29 4.5t33 13.5l13 -52q-17 -10 -40.5 -16.5t-47.5 -6.5zM285 66q72 0 113 55.5t41 149.5q0 83 -37 126.5t-108 43.5q-72 0 -113.5 -54.5t-41.5 -149.5q0 -81 38 -126t108 -45z" />
    <glyph glyph-name="aring" unicode="&#xe5;" horiz-adv-x="604" 
d="M261 -7q-64 0 -112.5 29.5t-75.5 84t-27 129.5q0 84 30 146.5t83.5 98t123.5 35.5q68 0 114.5 -32.5t64.5 -91.5l-13 -12l10 123h89l-40 -503h-89l11 126l10 -16q-13 -37 -40 -63.5t-63 -40t-76 -13.5zM286 66q71 0 112.5 55.5t41.5 149.5q0 84 -37.5 127.5t-108.5 43.5
q-73 0 -114.5 -54.5t-41.5 -151.5q0 -80 38.5 -125t109.5 -45zM336 570q-42 0 -72.5 28.5t-30.5 72.5q0 42 30.5 71.5t72.5 29.5q43 0 73 -29.5t30 -71.5q0 -44 -30 -72.5t-73 -28.5zM336 620q21 0 34.5 14.5t13.5 36.5q0 21 -13.5 35t-34.5 14t-34.5 -14t-13.5 -35
q0 -22 13.5 -36.5t34.5 -14.5z" />
    <glyph glyph-name="aringacute" unicode="&#x1fb;" horiz-adv-x="604" 
d="M260 -7q-64 0 -112 29.5t-75 84t-27 129.5q0 84 29.5 146.5t83.5 98t124 35.5q67 0 114 -32.5t65 -91.5l-13 -12l9 123h90l-40 -503h-89l9 126l12 -16q-13 -37 -40 -63.5t-63 -40t-77 -13.5zM285 66q72 0 113.5 55.5t41.5 149.5q0 84 -38 127.5t-108 43.5
q-73 0 -114.5 -54.5t-41.5 -151.5q0 -80 38.5 -125t108.5 -45zM333 572q-43 0 -73.5 29.5t-28.5 73.5q1 43 32.5 73.5t75.5 30.5q43 0 73 -30.5t30 -73.5q-1 -29 -16 -52.5t-39.5 -37t-53.5 -13.5zM335 623q21 0 35.5 15.5t14.5 36.5q1 21 -12.5 36t-35.5 15q-21 0 -35 -15
t-15 -36q0 -21 13.5 -36.5t34.5 -15.5zM420 716l-45 21l107 143l101 -4z" />
    <glyph glyph-name="atilde" unicode="&#xe3;" horiz-adv-x="604" 
d="M261 -7q-64 0 -112.5 29.5t-75.5 84t-27 129.5q0 84 30 146.5t83.5 98t123.5 35.5q68 0 114.5 -32.5t64.5 -91.5l-13 -12l10 123h89l-40 -503h-89l11 126l10 -16q-13 -37 -40 -63.5t-63 -40t-76 -13.5zM286 66q71 0 112.5 55.5t41.5 149.5q0 84 -37.5 127.5t-108.5 43.5
q-73 0 -114.5 -54.5t-41.5 -151.5q0 -80 38.5 -125t109.5 -45zM167 613q2 41 16 67.5t36 39.5t48 13q29 0 53 -14.5t46 -28.5t42 -14q21 0 34.5 14.5t14.5 39.5h48q-2 -42 -16 -68.5t-35.5 -39t-47.5 -12.5q-29 0 -53.5 14.5t-46 29t-40.5 14.5q-22 0 -35.5 -14.5
t-15.5 -40.5h-48z" />
    <glyph glyph-name="ae" unicode="&#xe6;" horiz-adv-x="879" 
d="M226 -7q-78 0 -127 40.5t-49 106.5q0 57 29.5 94.5t94 55.5t170.5 18h59l-5 -55h-50q-63 0 -103 -7t-62.5 -20.5t-32 -33t-9.5 -44.5q0 -39 27 -62.5t72 -23.5q39 0 71 19.5t52 53t24 78.5l9 108q5 63 -20.5 92t-84.5 29q-42 0 -85.5 -13t-86.5 -40l-25 65q40 28 96.5 45
t110.5 17q68 0 108.5 -24.5t56.5 -69t12 -106.5l-12 -129l-25 -2q-9 -60 -38.5 -103t-75 -66t-101.5 -23zM629 -7q-110 0 -169.5 66t-59.5 178q0 83 28.5 146t82 98t126.5 35q66 0 114.5 -30t71 -89t13.5 -145h-375l2 56h324l-29 -25q10 81 -25 123t-94 42
q-79 0 -120.5 -55.5t-41.5 -157.5q0 -79 40 -124t117 -45q38 0 78 13.5t77 42.5l24 -64q-21 -20 -51.5 -34.5t-65.5 -22.5t-67 -8z" />
    <glyph glyph-name="aeacute" unicode="&#x1fd;" horiz-adv-x="879" 
d="M226 -7q-78 0 -127 40.5t-49 106.5q0 57 29.5 94.5t94 55.5t170.5 18h59l-5 -55h-50q-63 0 -103 -7t-62.5 -20.5t-32 -33t-9.5 -44.5q0 -39 27 -62.5t72 -23.5q39 0 71 19.5t52 53t24 78.5l9 108q5 63 -20.5 92t-84.5 29q-42 0 -85.5 -13t-86.5 -40l-25 65q40 28 96.5 45
t110.5 17q68 0 108.5 -24.5t56.5 -69t12 -106.5l-12 -129l-25 -2q-9 -60 -38.5 -103t-75 -66t-101.5 -23zM629 -7q-110 0 -169.5 66t-59.5 178q0 83 28.5 146t82 98t126.5 35q66 0 114.5 -30t71 -89t13.5 -145h-375l2 56h324l-29 -25q10 81 -25 123t-94 42
q-79 0 -120.5 -55.5t-41.5 -157.5q0 -79 40 -124t117 -45q38 0 78 13.5t77 42.5l24 -64q-21 -20 -51.5 -34.5t-65.5 -22.5t-67 -8zM490 568h-62l114 205h105z" />
    <glyph glyph-name="b" unicode="b" horiz-adv-x="604" 
d="M322 -7q-66 0 -113 32t-65 89l13 19l-11 -133h-89l58 736h91l-30 -360l-11 22q13 37 39.5 63t63 40.5t77.5 14.5q63 0 111.5 -30t75.5 -84.5t27 -129.5q0 -84 -30 -146.5t-83 -97.5t-124 -35zM313 66q72 0 113.5 55t41.5 150q0 82 -39 126.5t-108 44.5q-73 0 -114 -55
t-41 -150q0 -84 37.5 -127.5t109.5 -43.5z" />
    <glyph glyph-name="c" unicode="c" horiz-adv-x="497" 
d="M283 -7q-73 0 -126.5 30t-82 84.5t-28.5 128.5q0 85 31.5 148t90 97.5t137.5 34.5q57 0 104 -17.5t80 -48.5l-34 -65q-37 28 -73 42.5t-76 14.5q-80 0 -123 -55t-43 -152q0 -79 39 -123.5t111 -44.5q41 0 74.5 14t70.5 43l24 -66q-32 -30 -78.5 -47.5t-97.5 -17.5z" />
    <glyph glyph-name="cacute" unicode="&#x107;" horiz-adv-x="497" 
d="M283 -7q-73 0 -126.5 30t-82 84.5t-28.5 128.5q0 85 31.5 148t90 97.5t137.5 34.5q57 0 104 -17.5t80 -48.5l-34 -65q-37 28 -73 42.5t-76 14.5q-80 0 -123 -55t-43 -152q0 -79 39 -123.5t111 -44.5q41 0 74.5 14t70.5 43l24 -66q-32 -30 -78.5 -47.5t-97.5 -17.5z
M347 568h-62l114 205h105z" />
    <glyph glyph-name="ccaron" unicode="&#x10d;" horiz-adv-x="497" 
d="M283 -7q-73 0 -126.5 30t-82 84.5t-28.5 128.5q0 85 31.5 148t90 97.5t137.5 34.5q57 0 104 -17.5t80 -48.5l-34 -65q-37 28 -73 42.5t-76 14.5q-80 0 -123 -55t-43 -152q0 -79 39 -123.5t111 -44.5q41 0 74.5 14t70.5 43l24 -66q-32 -30 -78.5 -47.5t-97.5 -17.5z
M401 773h83l-137 -205h-61l-105 205h79l60 -141z" />
    <glyph glyph-name="ccedilla" unicode="&#xe7;" horiz-adv-x="497" 
d="M283 -7q-73 0 -126.5 30t-82 84.5t-28.5 128.5q0 85 31.5 148t90 97.5t137.5 34.5q57 0 104 -17.5t80 -48.5l-34 -65q-37 28 -73 42.5t-76 14.5q-80 0 -123 -55t-43 -152q0 -79 39 -123.5t111 -44.5q41 0 74.5 14t70.5 43l24 -66q-32 -30 -78.5 -47.5t-97.5 -17.5z
M253 -195q-20 0 -46 4.5t-46 13.5l15 46q22 -8 41.5 -11t35.5 -3q25 0 40.5 8t15.5 26q0 26 -35 26q-12 0 -23 -2.5t-20 -5.5l-18 16l19 97h60l-15 -73l-26 2q13 6 24 8t23 2q33 0 54 -17.5t21 -50.5q0 -37 -30.5 -61.5t-89.5 -24.5z" />
    <glyph glyph-name="uni1E09" unicode="&#x1e09;" horiz-adv-x="497" 
d="M283 -7q-73 0 -126.5 30t-82 84.5t-28.5 128.5q0 85 31.5 148t90 97.5t137.5 34.5q57 0 104 -17.5t80 -48.5l-34 -65q-37 28 -73 42.5t-76 14.5q-80 0 -123 -55t-43 -152q0 -79 39 -123.5t111 -44.5q41 0 74.5 14t70.5 43l24 -66q-32 -30 -78.5 -47.5t-97.5 -17.5z
M253 -195q-20 0 -46 4.5t-46 13.5l15 46q22 -8 41.5 -11t35.5 -3q25 0 40.5 8t15.5 26q0 26 -35 26q-12 0 -23 -2.5t-20 -5.5l-18 16l19 97h60l-15 -73l-26 2q13 6 24 8t23 2q33 0 54 -17.5t21 -50.5q0 -37 -30.5 -61.5t-89.5 -24.5zM347 568h-62l114 205h105z" />
    <glyph glyph-name="ccircumflex" unicode="&#x109;" horiz-adv-x="497" 
d="M283 -7q-73 0 -126.5 30t-82 84.5t-28.5 128.5q0 85 31.5 148t90 97.5t137.5 34.5q57 0 104 -17.5t80 -48.5l-34 -65q-37 28 -73 42.5t-76 14.5q-80 0 -123 -55t-43 -152q0 -79 39 -123.5t111 -44.5q41 0 74.5 14t70.5 43l24 -66q-32 -30 -78.5 -47.5t-97.5 -17.5z
M247 568h-83l138 205h61l105 -205h-80l-60 141z" />
    <glyph glyph-name="cdotaccent" unicode="&#x10b;" horiz-adv-x="497" 
d="M283 -7q-73 0 -126.5 30t-82 84.5t-28.5 128.5q0 85 31.5 148t90 97.5t137.5 34.5q57 0 104 -17.5t80 -48.5l-34 -65q-37 28 -73 42.5t-76 14.5q-80 0 -123 -55t-43 -152q0 -79 39 -123.5t111 -44.5q41 0 74.5 14t70.5 43l24 -66q-32 -30 -78.5 -47.5t-97.5 -17.5z
M274 720h108l-8 -99h-109z" />
    <glyph glyph-name="d" unicode="d" horiz-adv-x="604" 
d="M260 -7q-63 0 -111.5 29.5t-75.5 84t-27 128.5q0 84 30 147t83 98.5t124 35.5q67 0 113.5 -32.5t65.5 -91.5l-14 -16l28 360h90l-58 -736h-89l10 133l10 -23q-12 -37 -39 -63.5t-63.5 -40t-76.5 -13.5zM285 66q72 0 113.5 55.5t41.5 149.5q0 84 -38 127.5t-109 43.5
q-72 0 -113.5 -54.5t-41.5 -149.5q0 -82 38.5 -127t108.5 -45z" />
    <glyph glyph-name="eth" unicode="&#xf0;" horiz-adv-x="581" 
d="M282 -7q-73 0 -126.5 27.5t-82.5 78t-29 118.5q0 77 31.5 133.5t86 88t125.5 31.5q53 0 93.5 -17.5t66 -50t32.5 -79.5l-23 -11q7 90 -21 164.5t-89 127t-152 76.5l27 64q80 -19 140 -56.5t99.5 -90.5t60 -120.5t20.5 -144.5q0 -121 -33.5 -195.5t-92 -109t-133.5 -34.5z
M283 66q50 0 84.5 22.5t53 64t18.5 98.5q0 67 -38.5 106.5t-107.5 39.5q-51 0 -86 -22.5t-53 -63.5t-18 -95q0 -71 37.5 -110.5t109.5 -39.5zM204 518l-14 55l359 121l13 -54z" />
    <glyph glyph-name="dcaron" unicode="&#x10f;" horiz-adv-x="604" 
d="M625 540h-40l14 196h67zM260 -7q-63 0 -111.5 29.5t-75.5 84t-27 128.5q0 84 30 147t83 98.5t124 35.5q67 0 113.5 -32.5t65.5 -91.5l-14 -16l28 360h90l-58 -736h-89l10 133l10 -23q-12 -37 -39 -63.5t-63.5 -40t-76.5 -13.5zM285 66q72 0 113.5 55.5t41.5 149.5
q0 84 -38 127.5t-109 43.5q-72 0 -113.5 -54.5t-41.5 -149.5q0 -82 38.5 -127t108.5 -45z" />
    <glyph glyph-name="dcroat" unicode="&#x111;" horiz-adv-x="604" 
d="M261 -7q-63 0 -111.5 30t-75.5 85t-27 132q0 80 30 142.5t83 98t124 35.5q67 0 113.5 -32.5t65.5 -91.5l-14 -16l28 360h90l-58 -736h-89l10 133l10 -23q-12 -37 -39 -63.5t-63.5 -40t-76.5 -13.5zM286 66q72 0 113.5 55.5t41.5 153.5q0 81 -37.5 124t-109.5 43
q-71 0 -113 -54.5t-42 -151.5q0 -82 39 -126t108 -44zM266 579l5 67h384l-6 -67h-383z" />
    <glyph glyph-name="uni1E0D" unicode="&#x1e0d;" horiz-adv-x="604" 
d="M260 -7q-63 0 -111.5 29.5t-75.5 84t-27 128.5q0 84 30 147t83 98.5t124 35.5q67 0 113.5 -32.5t65.5 -91.5l-14 -16l28 360h90l-58 -736h-89l10 133l10 -23q-12 -37 -39 -63.5t-63.5 -40t-76.5 -13.5zM285 66q72 0 113.5 55.5t41.5 149.5q0 84 -38 127.5t-109 43.5
q-72 0 -113.5 -54.5t-41.5 -149.5q0 -82 38.5 -127t108.5 -45zM229 -91h100l-9 -95h-100z" />
    <glyph glyph-name="uni1E0F" unicode="&#x1e0f;" horiz-adv-x="604" 
d="M260 -7q-63 0 -111.5 29.5t-75.5 84t-27 128.5q0 84 30 147t83 98.5t124 35.5q67 0 113.5 -32.5t65.5 -91.5l-14 -16l28 360h90l-58 -736h-89l10 133l10 -23q-12 -37 -39 -63.5t-63.5 -40t-76.5 -13.5zM285 66q72 0 113.5 55.5t41.5 149.5q0 84 -38 127.5t-109 43.5
q-72 0 -113.5 -54.5t-41.5 -149.5q0 -82 38.5 -127t108.5 -45zM120 -171l5 64h304l-5 -64h-304z" />
    <glyph glyph-name="uni01C6" unicode="&#x1c6;" horiz-adv-x="1124" 
d="M260 -7q-63 0 -111.5 29.5t-75.5 84t-27 128.5q0 84 30 147t83 98.5t124 35.5q67 0 113.5 -32.5t65.5 -91.5l-14 -16l28 360h90l-58 -736h-89l10 133l10 -23q-12 -37 -39 -63.5t-63.5 -40t-76.5 -13.5zM285 66q72 0 113.5 55.5t41.5 149.5q0 84 -38 127.5t-109 43.5
q-72 0 -113.5 -54.5t-41.5 -149.5q0 -82 38.5 -127t108.5 -45zM634 0l5 62l365 404l12 -33h-338l6 70h406l-4 -64l-363 -403l-11 34h355l-5 -70h-428zM978 773h83l-137 -205h-61l-105 205h79l60 -141z" />
    <glyph glyph-name="e" unicode="e" horiz-adv-x="545" 
d="M480 58q-32 -30 -85 -47.5t-107 -17.5q-75 0 -129 30t-83.5 84.5t-29.5 129.5q0 83 31 146t87 98t131 35q69 0 119 -30t74 -89t14 -145h-376l3 56h324l-29 -20q9 78 -26.5 119t-98.5 41q-78 0 -120.5 -55.5t-42.5 -157.5q0 -79 39.5 -124t116.5 -45q44 0 85.5 13.5
t77.5 42.5z" />
    <glyph glyph-name="eacute" unicode="&#xe9;" horiz-adv-x="545" 
d="M480 58q-32 -30 -85 -47.5t-107 -17.5q-75 0 -129 30t-83.5 84.5t-29.5 129.5q0 83 31 146t87 98t131 35q69 0 119 -30t74 -89t14 -145h-376l3 56h324l-29 -20q9 78 -26.5 119t-98.5 41q-78 0 -120.5 -55.5t-42.5 -157.5q0 -79 39.5 -124t116.5 -45q44 0 85.5 13.5
t77.5 42.5zM341 568h-62l114 205h105z" />
    <glyph glyph-name="ebreve" unicode="&#x115;" horiz-adv-x="545" 
d="M480 58q-32 -30 -85 -47.5t-107 -17.5q-75 0 -129 30t-83.5 84.5t-29.5 129.5q0 83 31 146t87 98t131 35q69 0 119 -30t74 -89t14 -145h-376l3 56h324l-29 -20q9 78 -26.5 119t-98.5 41q-78 0 -120.5 -55.5t-42.5 -157.5q0 -79 39.5 -124t116.5 -45q44 0 85.5 13.5
t77.5 42.5zM314 598q-53 0 -98 31t-63 99l56 23q19 -49 47.5 -69t62.5 -20t64 19.5t56 69.5l53 -23q-26 -71 -75 -100.5t-103 -29.5z" />
    <glyph glyph-name="ecaron" unicode="&#x11b;" horiz-adv-x="545" 
d="M480 58q-32 -30 -85 -47.5t-107 -17.5q-75 0 -129 30t-83.5 84.5t-29.5 129.5q0 83 31 146t87 98t131 35q69 0 119 -30t74 -89t14 -145h-376l3 56h324l-29 -20q9 78 -26.5 119t-98.5 41q-78 0 -120.5 -55.5t-42.5 -157.5q0 -79 39.5 -124t116.5 -45q44 0 85.5 13.5
t77.5 42.5zM395 773h83l-137 -205h-61l-105 205h79l60 -141z" />
    <glyph glyph-name="uni1E1D" unicode="&#x1e1d;" horiz-adv-x="545" 
d="M480 58q-32 -30 -85 -47.5t-107 -17.5q-75 0 -129 30t-83.5 84.5t-29.5 129.5q0 83 31 146t87 98t131 35q69 0 119 -30t74 -89t14 -145h-376l3 56h324l-29 -20q9 78 -26.5 119t-98.5 41q-78 0 -120.5 -55.5t-42.5 -157.5q0 -79 39.5 -124t116.5 -45q44 0 85.5 13.5
t77.5 42.5zM267 -195q-20 0 -46 4.5t-46 13.5l15 46q22 -8 41.5 -11t35.5 -3q25 0 40.5 8t15.5 26q0 26 -35 26q-12 0 -23 -2.5t-20 -5.5l-18 16l19 97h60l-15 -73l-26 2q13 6 24 8t23 2q33 0 54 -17.5t21 -50.5q0 -37 -30.5 -61.5t-89.5 -24.5zM314 598q-53 0 -98 31
t-63 99l56 23q19 -49 47.5 -69t62.5 -20t64 19.5t56 69.5l53 -23q-26 -71 -75 -100.5t-103 -29.5z" />
    <glyph glyph-name="ecircumflex" unicode="&#xea;" horiz-adv-x="545" 
d="M480 58q-32 -30 -85 -47.5t-107 -17.5q-75 0 -129 30t-83.5 84.5t-29.5 129.5q0 83 31 146t87 98t131 35q69 0 119 -30t74 -89t14 -145h-376l3 56h324l-29 -20q9 78 -26.5 119t-98.5 41q-78 0 -120.5 -55.5t-42.5 -157.5q0 -79 39.5 -124t116.5 -45q44 0 85.5 13.5
t77.5 42.5zM241 568h-83l138 205h61l105 -205h-80l-60 141z" />
    <glyph glyph-name="uni1EBF" unicode="&#x1ebf;" horiz-adv-x="545" 
d="M480 58q-32 -30 -85 -47.5t-107 -17.5q-75 0 -129 30t-83.5 84.5t-29.5 129.5q0 83 31 146t87 98t131 35q69 0 119 -30t74 -89t14 -145h-376l3 56h324l-29 -20q9 78 -26.5 119t-98.5 41q-78 0 -120.5 -55.5t-42.5 -157.5q0 -79 39.5 -124t116.5 -45q44 0 85.5 13.5
t77.5 42.5zM238 568h-80l135 147h58l111 -147h-78l-64 96zM458 673h-53l98 143h97z" />
    <glyph glyph-name="uni1EC7" unicode="&#x1ec7;" horiz-adv-x="545" 
d="M480 58q-32 -30 -85 -47.5t-107 -17.5q-75 0 -129 30t-83.5 84.5t-29.5 129.5q0 83 31 146t87 98t131 35q69 0 119 -30t74 -89t14 -145h-376l3 56h324l-29 -20q9 78 -26.5 119t-98.5 41q-78 0 -120.5 -55.5t-42.5 -157.5q0 -79 39.5 -124t116.5 -45q44 0 85.5 13.5
t77.5 42.5zM225 -91h100l-9 -95h-100zM241 568h-83l138 205h61l105 -205h-80l-60 141z" />
    <glyph glyph-name="uni1EC1" unicode="&#x1ec1;" horiz-adv-x="545" 
d="M480 58q-32 -30 -85 -47.5t-107 -17.5q-75 0 -129 30t-83.5 84.5t-29.5 129.5q0 83 31 146t87 98t131 35q69 0 119 -30t74 -89t14 -145h-376l3 56h324l-29 -20q9 78 -26.5 119t-98.5 41q-78 0 -120.5 -55.5t-42.5 -157.5q0 -79 39.5 -124t116.5 -45q44 0 85.5 13.5
t77.5 42.5zM158 568l135 147h58l111 -147h-78l-64 96l-82 -96h-80zM448 673l-101 143h86l68 -143h-53z" />
    <glyph glyph-name="uni1EC3" unicode="&#x1ec3;" horiz-adv-x="545" 
d="M480 58q-32 -30 -85 -47.5t-107 -17.5q-75 0 -129 30t-83.5 84.5t-29.5 129.5q0 83 31 146t87 98t131 35q69 0 119 -30t74 -89t14 -145h-376l3 56h324l-29 -20q9 78 -26.5 119t-98.5 41q-78 0 -120.5 -55.5t-42.5 -157.5q0 -79 39.5 -124t116.5 -45q44 0 85.5 13.5
t77.5 42.5zM158 568l135 147h58l111 -147h-78l-64 96l-82 -96h-80zM404 673l2 18q1 17 12 26.5t25 15t24.5 10t10.5 13.5q0 7 -9.5 11.5t-24.5 4.5t-30.5 -2.5t-36.5 -9.5l-11 45q18 8 40.5 12t44.5 4q46 0 71 -16t25 -42q0 -20 -12.5 -31t-28.5 -17.5t-29.5 -13.5
t-14.5 -19l-1 -9h-57z" />
    <glyph glyph-name="uni1EC5" unicode="&#x1ec5;" horiz-adv-x="545" 
d="M480 58q-32 -30 -85 -47.5t-107 -17.5q-75 0 -129 30t-83.5 84.5t-29.5 129.5q0 83 31 146t87 98t131 35q69 0 119 -30t74 -89t14 -145h-376l3 56h324l-29 -20q9 78 -26.5 119t-98.5 41q-78 0 -120.5 -55.5t-42.5 -157.5q0 -79 39.5 -124t116.5 -45q44 0 85.5 13.5
t77.5 42.5zM158 568l135 147h58l111 -147h-78l-64 96l-82 -96h-80zM158 731q2 32 15.5 54t35.5 34t48 12q30 0 54.5 -10.5t46 -20.5t42.5 -10q20 0 33 11.5t14 30.5h49q-1 -31 -15 -54t-36 -34.5t-48 -11.5q-29 0 -54 10.5t-46.5 21t-42.5 10.5q-20 0 -33 -12t-14 -31h-49z
" />
    <glyph glyph-name="uni0205" unicode="&#x205;" horiz-adv-x="545" 
d="M480 58q-32 -30 -85 -47.5t-107 -17.5q-75 0 -129 30t-83.5 84.5t-29.5 129.5q0 83 31 146t87 98t131 35q69 0 119 -30t74 -89t14 -145h-376l3 56h324l-29 -20q9 78 -26.5 119t-98.5 41q-78 0 -120.5 -55.5t-42.5 -157.5q0 -79 39.5 -124t116.5 -45q44 0 85.5 13.5
t77.5 42.5zM350 568l-61 205h77l28 -205h-44zM225 568l-62 205h78l28 -205h-44z" />
    <glyph glyph-name="edieresis" unicode="&#xeb;" horiz-adv-x="545" 
d="M480 58q-32 -30 -85 -47.5t-107 -17.5q-75 0 -129 30t-83.5 84.5t-29.5 129.5q0 83 31 146t87 98t131 35q69 0 119 -30t74 -89t14 -145h-376l3 56h324l-29 -20q9 78 -26.5 119t-98.5 41q-78 0 -120.5 -55.5t-42.5 -157.5q0 -79 39.5 -124t116.5 -45q44 0 85.5 13.5
t77.5 42.5zM361 717h97l-7 -93h-97zM185 717h97l-7 -93h-96z" />
    <glyph glyph-name="edotaccent" unicode="&#x117;" horiz-adv-x="545" 
d="M480 58q-32 -30 -85 -47.5t-107 -17.5q-75 0 -129 30t-83.5 84.5t-29.5 129.5q0 83 31 146t87 98t131 35q69 0 119 -30t74 -89t14 -145h-376l3 56h324l-29 -20q9 78 -26.5 119t-98.5 41q-78 0 -120.5 -55.5t-42.5 -157.5q0 -79 39.5 -124t116.5 -45q44 0 85.5 13.5
t77.5 42.5zM268 720h108l-8 -99h-109z" />
    <glyph glyph-name="uni1EB9" unicode="&#x1eb9;" horiz-adv-x="545" 
d="M480 58q-32 -30 -85 -47.5t-107 -17.5q-75 0 -129 30t-83.5 84.5t-29.5 129.5q0 83 31 146t87 98t131 35q69 0 119 -30t74 -89t14 -145h-376l3 56h324l-29 -20q9 78 -26.5 119t-98.5 41q-78 0 -120.5 -55.5t-42.5 -157.5q0 -79 39.5 -124t116.5 -45q44 0 85.5 13.5
t77.5 42.5zM225 -91h100l-9 -95h-100z" />
    <glyph glyph-name="egrave" unicode="&#xe8;" horiz-adv-x="545" 
d="M480 58q-32 -30 -85 -47.5t-107 -17.5q-75 0 -129 30t-83.5 84.5t-29.5 129.5q0 83 31 146t87 98t131 35q69 0 119 -30t74 -89t14 -145h-376l3 56h324l-29 -20q9 78 -26.5 119t-98.5 41q-78 0 -120.5 -55.5t-42.5 -157.5q0 -79 39.5 -124t116.5 -45q44 0 85.5 13.5
t77.5 42.5zM279 568l-121 205h96l87 -205h-62z" />
    <glyph glyph-name="uni1EBB" unicode="&#x1ebb;" horiz-adv-x="545" 
d="M480 58q-32 -30 -85 -47.5t-107 -17.5q-75 0 -129 30t-83.5 84.5t-29.5 129.5q0 83 31 146t87 98t131 35q69 0 119 -30t74 -89t14 -145h-376l3 56h324l-29 -20q9 78 -26.5 119t-98.5 41q-78 0 -120.5 -55.5t-42.5 -157.5q0 -79 39.5 -124t116.5 -45q44 0 85.5 13.5
t77.5 42.5zM341 586l-1 -18h-56l2 27q1 21 12.5 36t25 26t24 21.5t10.5 22.5q0 22 -38 22q-13 0 -27 -2.5t-33 -7.5l-12 48q21 8 42 12t43 4q45 0 70.5 -19t25.5 -48q0 -24 -13 -40t-29.5 -28t-30 -24.5t-15.5 -31.5z" />
    <glyph glyph-name="uni0207" unicode="&#x207;" horiz-adv-x="545" 
d="M480 58q-32 -30 -85 -47.5t-107 -17.5q-75 0 -129 30t-83.5 84.5t-29.5 129.5q0 83 31 146t87 98t131 35q69 0 119 -30t74 -89t14 -145h-376l3 56h324l-29 -20q9 78 -26.5 119t-98.5 41q-78 0 -120.5 -55.5t-42.5 -157.5q0 -79 39.5 -124t116.5 -45q44 0 85.5 13.5
t77.5 42.5zM322 749q54 0 98.5 -31.5t62.5 -98.5l-55 -23q-19 49 -48 68.5t-63 19.5q-33 0 -63 -19t-56 -69l-54 22q18 47 46 76t62 42t70 13z" />
    <glyph glyph-name="emacron" unicode="&#x113;" horiz-adv-x="545" 
d="M480 58q-32 -30 -85 -47.5t-107 -17.5q-75 0 -129 30t-83.5 84.5t-29.5 129.5q0 83 31 146t87 98t131 35q69 0 119 -30t74 -89t14 -145h-376l3 56h324l-29 -20q9 78 -26.5 119t-98.5 41q-78 0 -120.5 -55.5t-42.5 -157.5q0 -79 39.5 -124t116.5 -45q44 0 85.5 13.5
t77.5 42.5zM163 637l5 67h304l-5 -67h-304z" />
    <glyph glyph-name="uni1E17" unicode="&#x1e17;" horiz-adv-x="545" 
d="M480 58q-32 -30 -85 -47.5t-107 -17.5q-75 0 -129 30t-83.5 84.5t-29.5 129.5q0 83 31 146t87 98t131 35q69 0 119 -30t74 -89t14 -145h-376l3 56h324l-29 -20q9 78 -26.5 119t-98.5 41q-78 0 -120.5 -55.5t-42.5 -157.5q0 -79 39.5 -124t116.5 -45q44 0 85.5 13.5
t77.5 42.5zM163 637l5 67h304l-5 -67h-304zM356 764h-62l114 205h105z" />
    <glyph glyph-name="uni1E15" unicode="&#x1e15;" horiz-adv-x="545" 
d="M480 58q-32 -30 -85 -47.5t-107 -17.5q-75 0 -129 30t-83.5 84.5t-29.5 129.5q0 83 31 146t87 98t131 35q69 0 119 -30t74 -89t14 -145h-376l3 56h324l-29 -20q9 78 -26.5 119t-98.5 41q-78 0 -120.5 -55.5t-42.5 -157.5q0 -79 39.5 -124t116.5 -45q44 0 85.5 13.5
t77.5 42.5zM163 637l5 67h304l-5 -67h-304zM294 764l-121 205h96l87 -205h-62z" />
    <glyph glyph-name="eogonek" unicode="&#x119;" horiz-adv-x="545" 
d="M372 -200q-54 0 -85.5 29t-31.5 74q0 39 19 67.5t52 42.5l18 -11q-19 -5 -31.5 -7t-24.5 -2q-75 0 -129 30t-83.5 84.5t-29.5 129.5q0 83 31 146t87 98t131 35q69 0 119 -30t74 -89t14 -145h-376l3 56h324l-29 -20q9 78 -26.5 119t-98.5 41q-47 0 -83.5 -21.5t-58 -68.5
t-21.5 -123q0 -79 39.5 -124t116.5 -45q44 0 85.5 13.5t77.5 42.5l25 -64q-8 -9 -23.5 -19t-36.5 -18q-39 -17 -59.5 -34t-28 -34.5t-7.5 -34.5q0 -30 16 -45.5t44 -15.5q13 0 29 4.5t33 13.5l13 -52q-18 -10 -40.5 -16.5t-47.5 -6.5z" />
    <glyph glyph-name="uni1EBD" unicode="&#x1ebd;" horiz-adv-x="545" 
d="M480 58q-32 -30 -85 -47.5t-107 -17.5q-75 0 -129 30t-83.5 84.5t-29.5 129.5q0 83 31 146t87 98t131 35q69 0 119 -30t74 -89t14 -145h-376l3 56h324l-29 -20q9 78 -26.5 119t-98.5 41q-78 0 -120.5 -55.5t-42.5 -157.5q0 -79 39.5 -124t116.5 -45q44 0 85.5 13.5
t77.5 42.5zM149 613q2 41 16 67.5t36 39.5t48 13q29 0 53 -14.5t46 -28.5t42 -14q21 0 34.5 14.5t14.5 39.5h48q-2 -42 -16 -68.5t-35.5 -39t-47.5 -12.5q-29 0 -53.5 14.5t-46 29t-40.5 14.5q-22 0 -35.5 -14.5t-15.5 -40.5h-48z" />
    <glyph glyph-name="uni0259" unicode="&#x259;" horiz-adv-x="546" 
d="M67 450q33 31 87 48.5t108 17.5q74 0 127.5 -30.5t82.5 -85.5t29 -128q0 -84 -30.5 -146.5t-85.5 -97.5t-127 -35q-73 0 -124.5 30t-75.5 88.5t-14 144.5h377l-4 -57h-325l30 21q-9 -77 28 -118.5t105 -41.5q74 0 115.5 55t41.5 158q0 81 -41 125t-115 44
q-44 0 -85.5 -14t-78.5 -43z" />
    <glyph glyph-name="f" unicode="f" horiz-adv-x="344" 
d="M21 433l7 70h329l-6 -70h-330zM359 657q-26 7 -48 7q-23 0 -42.5 -8.5t-32.5 -29.5t-16 -61l-46 -565h-90l46 576q7 83 51.5 124t115.5 41q17 0 34.5 -2.5t33.5 -6.5z" />
    <glyph glyph-name="g" unicode="g" horiz-adv-x="608" 
d="M88 -98q47 -30 88.5 -41t93.5 -11q71 0 109 38t44 114l11 133h13q-12 -38 -39.5 -65t-64 -41t-78.5 -14q-66 0 -115 28.5t-76 81t-27 122.5q0 80 30 140t83 94.5t125 34.5q69 0 116 -32.5t65 -91.5l-12 4l8 107h90l-40 -495q-9 -118 -71 -174.5t-173 -56.5
q-116 0 -203 52zM288 89q72 0 114.5 51.5t42.5 140.5q0 78 -39 119.5t-110 41.5q-73 0 -115 -51.5t-42 -142.5q0 -76 38 -117.5t111 -41.5z" />
    <glyph glyph-name="gbreve" unicode="&#x11f;" horiz-adv-x="608" 
d="M88 -98q47 -30 88.5 -41t93.5 -11q71 0 109 38t44 114l11 133h13q-12 -38 -39.5 -65t-64 -41t-78.5 -14q-66 0 -115 28.5t-76 81t-27 122.5q0 80 30 140t83 94.5t125 34.5q69 0 116 -32.5t65 -91.5l-12 4l8 107h90l-40 -495q-9 -118 -71 -174.5t-173 -56.5
q-116 0 -203 52zM288 89q72 0 114.5 51.5t42.5 140.5q0 78 -39 119.5t-110 41.5q-73 0 -115 -51.5t-42 -142.5q0 -76 38 -117.5t111 -41.5zM335 598q-53 0 -98 31t-63 99l56 23q19 -49 47.5 -69t62.5 -20t64 19.5t56 69.5l53 -23q-26 -71 -75 -100.5t-103 -29.5z" />
    <glyph glyph-name="gcaron" unicode="&#x1e7;" horiz-adv-x="608" 
d="M88 -98q47 -30 88.5 -41t93.5 -11q71 0 109 38t44 114l11 133h13q-12 -38 -39.5 -65t-64 -41t-78.5 -14q-66 0 -115 28.5t-76 81t-27 122.5q0 80 30 140t83 94.5t125 34.5q69 0 116 -32.5t65 -91.5l-12 4l8 107h90l-40 -495q-9 -118 -71 -174.5t-173 -56.5
q-116 0 -203 52zM288 89q72 0 114.5 51.5t42.5 140.5q0 78 -39 119.5t-110 41.5q-73 0 -115 -51.5t-42 -142.5q0 -76 38 -117.5t111 -41.5zM416 773h83l-137 -205h-61l-105 205h79l60 -141z" />
    <glyph glyph-name="gcircumflex" unicode="&#x11d;" horiz-adv-x="608" 
d="M88 -98q47 -30 88.5 -41t93.5 -11q71 0 109 38t44 114l11 133h13q-12 -38 -39.5 -65t-64 -41t-78.5 -14q-66 0 -115 28.5t-76 81t-27 122.5q0 80 30 140t83 94.5t125 34.5q69 0 116 -32.5t65 -91.5l-12 4l8 107h90l-40 -495q-9 -118 -71 -174.5t-173 -56.5
q-116 0 -203 52zM288 89q72 0 114.5 51.5t42.5 140.5q0 78 -39 119.5t-110 41.5q-73 0 -115 -51.5t-42 -142.5q0 -76 38 -117.5t111 -41.5zM262 568h-83l138 205h61l105 -205h-80l-60 141z" />
    <glyph glyph-name="uni0123" unicode="&#x123;" horiz-adv-x="608" 
d="M88 -98q47 -30 88.5 -41t93.5 -11q71 0 109 38t44 114l11 133h13q-12 -38 -39.5 -65t-64 -41t-78.5 -14q-66 0 -115 28.5t-76 81t-27 122.5q0 80 30 140t83 94.5t125 34.5q69 0 116 -32.5t65 -91.5l-12 4l8 107h90l-40 -495q-9 -118 -71 -174.5t-173 -56.5
q-116 0 -203 52zM288 89q72 0 114.5 51.5t42.5 140.5q0 78 -39 119.5t-110 41.5q-73 0 -115 -51.5t-42 -142.5q0 -76 38 -117.5t111 -41.5zM280 597l4 59q4 39 17.5 71.5t46.5 62.5l37 -30q-25 -23 -33.5 -44.5t-10.5 -46.5l-23 16h75l-6 -88h-107z" />
    <glyph glyph-name="gdotaccent" unicode="&#x121;" horiz-adv-x="608" 
d="M88 -98q47 -30 88.5 -41t93.5 -11q71 0 109 38t44 114l11 133h13q-12 -38 -39.5 -65t-64 -41t-78.5 -14q-66 0 -115 28.5t-76 81t-27 122.5q0 80 30 140t83 94.5t125 34.5q69 0 116 -32.5t65 -91.5l-12 4l8 107h90l-40 -495q-9 -118 -71 -174.5t-173 -56.5
q-116 0 -203 52zM288 89q72 0 114.5 51.5t42.5 140.5q0 78 -39 119.5t-110 41.5q-73 0 -115 -51.5t-42 -142.5q0 -76 38 -117.5t111 -41.5zM289 720h108l-8 -99h-109z" />
    <glyph glyph-name="uni1E21" unicode="&#x1e21;" horiz-adv-x="608" 
d="M88 -98q47 -30 88.5 -41t93.5 -11q71 0 109 38t44 114l11 133h13q-12 -38 -39.5 -65t-64 -41t-78.5 -14q-66 0 -115 28.5t-76 81t-27 122.5q0 80 30 140t83 94.5t125 34.5q69 0 116 -32.5t65 -91.5l-12 4l8 107h90l-40 -495q-9 -118 -71 -174.5t-173 -56.5
q-116 0 -203 52zM288 89q72 0 114.5 51.5t42.5 140.5q0 78 -39 119.5t-110 41.5q-73 0 -115 -51.5t-42 -142.5q0 -76 38 -117.5t111 -41.5zM184 637l5 67h304l-5 -67h-304z" />
    <glyph glyph-name="h" unicode="h" horiz-adv-x="589" 
d="M56 0l58 736h91l-27 -339l-15 1q22 56 71.5 87t114.5 31q91 0 135 -52t36 -152l-25 -312h-90l25 307q5 68 -21.5 101t-85.5 33q-69 0 -108.5 -41t-44.5 -112l-23 -288h-91z" />
    <glyph glyph-name="hbar" unicode="&#x127;" horiz-adv-x="589" 
d="M56 0l58 731h91l-28 -334l-14 1q22 56 71.5 87t114.5 31q91 0 135 -52t36 -152l-25 -312h-90l25 307q5 68 -21.5 101t-85.5 33q-69 0 -108.5 -41t-44.5 -112l-23 -288h-91zM6 571l7 67h382l-6 -67h-383z" />
    <glyph glyph-name="uni1E2B" unicode="&#x1e2b;" horiz-adv-x="589" 
d="M56 0l58 736h91l-27 -339l-15 1q22 56 71.5 87t114.5 31q91 0 135 -52t36 -152l-25 -312h-90l25 307q5 68 -21.5 101t-85.5 33q-69 0 -108.5 -41t-44.5 -112l-23 -288h-91zM261 -215q-53 0 -98 31t-63 98l56 23q18 -48 47 -67.5t63 -19.5t64 18.5t55 68.5l54 -22
q-18 -47 -45.5 -75.5t-62 -41.5t-70.5 -13z" />
    <glyph glyph-name="hcircumflex" unicode="&#x125;" horiz-adv-x="589" 
d="M56 0l58 736h91l-27 -339l-15 1q22 56 71.5 87t114.5 31q91 0 135 -52t36 -152l-25 -312h-90l25 307q5 68 -21.5 101t-85.5 33q-69 0 -108.5 -41t-44.5 -112l-23 -288h-91zM93 797h-79l134 153h58l110 -153h-78l-62 101z" />
    <glyph glyph-name="uni1E25" unicode="&#x1e25;" horiz-adv-x="589" 
d="M56 0l58 736h91l-27 -339l-15 1q22 56 71.5 87t114.5 31q91 0 135 -52t36 -152l-25 -312h-90l25 307q5 68 -21.5 101t-85.5 33q-69 0 -108.5 -41t-44.5 -112l-23 -288h-91zM220 -91h100l-9 -95h-100z" />
    <glyph glyph-name="i" unicode="i" horiz-adv-x="243" 
d="M57 0l40 503h90l-40 -503h-90zM104 720h108l-8 -99h-109z" />
    <glyph glyph-name="dotlessi" unicode="&#x131;" horiz-adv-x="243" 
d="M57 0l40 503h90l-40 -503h-90z" />
    <glyph glyph-name="iacute" unicode="&#xed;" horiz-adv-x="243" 
d="M57 0l40 503h90l-40 -503h-90zM177 568h-62l114 205h105z" />
    <glyph glyph-name="ibreve" unicode="&#x12d;" horiz-adv-x="243" 
d="M57 0l40 503h90l-40 -503h-90zM150 598q-53 0 -98 31t-63 99l56 23q19 -49 47.5 -69t62.5 -20t64 19.5t56 69.5l53 -23q-26 -71 -75 -100.5t-103 -29.5z" />
    <glyph glyph-name="icircumflex" unicode="&#xee;" horiz-adv-x="243" 
d="M57 0l40 503h90l-40 -503h-90zM77 568h-83l138 205h61l105 -205h-80l-60 141z" />
    <glyph glyph-name="uni0209" unicode="&#x209;" horiz-adv-x="243" 
d="M57 0l40 503h90l-40 -503h-90zM186 568l-61 205h77l28 -205h-44zM61 568l-62 205h78l28 -205h-44z" />
    <glyph glyph-name="idieresis" unicode="&#xef;" horiz-adv-x="243" 
d="M57 0l40 503h90l-40 -503h-90zM197 717h97l-7 -93h-97zM21 717h97l-7 -93h-96z" />
    <glyph glyph-name="uni1E2F" unicode="&#x1e2f;" horiz-adv-x="243" 
d="M57 0l40 503h90l-40 -503h-90zM197 717h97l-7 -93h-97zM21 717h97l-7 -93h-96zM192 764h-62l114 205h105z" />
    <glyph glyph-name="i.loclTRK" horiz-adv-x="243" 
d="M57 0l40 503h90l-40 -503h-90zM104 720h108l-8 -99h-109z" />
    <glyph glyph-name="uni1ECB" unicode="&#x1ecb;" horiz-adv-x="243" 
d="M57 0l40 503h90l-40 -503h-90zM104 720h108l-8 -99h-109zM45 -91h100l-9 -95h-100z" />
    <glyph glyph-name="igrave" unicode="&#xec;" horiz-adv-x="243" 
d="M57 0l40 503h90l-40 -503h-90zM115 568l-121 205h96l87 -205h-62z" />
    <glyph glyph-name="uni1EC9" unicode="&#x1ec9;" horiz-adv-x="243" 
d="M57 0l40 503h90l-40 -503h-90zM177 586l-1 -18h-56l2 27q1 21 12.5 36t25 26t24 21.5t10.5 22.5q0 22 -38 22q-13 0 -27 -2.5t-33 -7.5l-12 48q21 8 42 12t43 4q45 0 70.5 -19t25.5 -48q0 -24 -13 -40t-29.5 -28t-30 -24.5t-15.5 -31.5z" />
    <glyph glyph-name="uni020B" unicode="&#x20b;" horiz-adv-x="243" 
d="M57 0l40 503h90l-40 -503h-90zM158 749q54 0 98.5 -31.5t62.5 -98.5l-55 -23q-19 49 -48 68.5t-63 19.5q-33 0 -63 -19t-56 -69l-54 22q18 47 46 76t62 42t70 13z" />
    <glyph glyph-name="imacron" unicode="&#x12b;" horiz-adv-x="243" 
d="M57 0l40 503h90l-40 -503h-90zM-1 637l5 67h304l-5 -67h-304z" />
    <glyph glyph-name="iogonek" unicode="&#x12f;" horiz-adv-x="242" 
d="M90 -200q-54 0 -85.5 29.5t-31.5 76.5q0 51 33.5 87t99.5 48l-22 -41h-28l41 503h91l-41 -503h-6q-54 0 -76.5 -24.5t-22.5 -56.5q0 -31 16.5 -46.5t45.5 -15.5q12 0 28.5 4.5t33.5 13.5l12 -52q-17 -10 -40.5 -16.5t-47.5 -6.5zM105 724h107l-7 -99h-109z" />
    <glyph glyph-name="itilde" unicode="&#x129;" horiz-adv-x="243" 
d="M57 0l40 503h90l-40 -503h-90zM-15 613q2 41 16 67.5t36 39.5t48 13q29 0 53 -14.5t46 -28.5t42 -14q21 0 34.5 14.5t14.5 39.5h48q-2 -42 -16 -68.5t-35.5 -39t-47.5 -12.5q-29 0 -53.5 14.5t-46 29t-40.5 14.5q-22 0 -35.5 -14.5t-15.5 -40.5h-48z" />
    <glyph glyph-name="j" unicode="j" horiz-adv-x="243" 
d="M-87 -136q27 -8 48 -8q23 0 42.5 8.5t32.5 30t16 60.5l45 548h90l-45 -558q-6 -83 -51 -124t-116 -41q-17 0 -34 2t-34 7zM104 720h108l-8 -99h-109z" />
    <glyph glyph-name="uni0237" unicode="&#x237;" horiz-adv-x="243" 
d="M-87 -136q27 -8 48 -8q23 0 42.5 8.5t32.5 30t16 60.5l45 548h90l-45 -558q-6 -83 -51 -124t-116 -41q-17 0 -34 2t-34 7z" />
    <glyph glyph-name="jcircumflex" unicode="&#x135;" horiz-adv-x="243" 
d="M-87 -136q27 -8 48 -8q23 0 42.5 8.5t32.5 30t16 60.5l45 548h90l-45 -558q-6 -83 -51 -124t-116 -41q-17 0 -34 2t-34 7zM77 568h-83l138 205h61l105 -205h-80l-60 141z" />
    <glyph glyph-name="k" unicode="k" horiz-adv-x="523" 
d="M400 0l-249 258l263 244h116l-294 -269l5 53l273 -286h-114zM57 0l58 736h90l-58 -736h-90z" />
    <glyph glyph-name="uni0137" unicode="&#x137;" horiz-adv-x="523" 
d="M400 0l-249 258l263 244h116l-294 -269l5 53l273 -286h-114zM57 0l58 736h90l-58 -736h-90zM290 -72l-4 -59q-4 -39 -17.5 -71.5t-46.5 -61.5l-37 29q25 24 33.5 45t9.5 45l24 -15h-75l6 88h107z" />
    <glyph glyph-name="kgreenlandic" unicode="&#x138;" horiz-adv-x="522" 
d="M56 0l40 503h90l-39 -503h-91zM400 0l-249 258l263 244h116l-294 -269l5 53l272 -286h-113z" />
    <glyph glyph-name="l" unicode="l" horiz-adv-x="243" 
d="M56 0l59 736h91l-59 -736h-91z" />
    <glyph glyph-name="lacute" unicode="&#x13a;" horiz-adv-x="243" 
d="M56 0l59 736h91l-59 -736h-91zM196 797h-62l112 153h102z" />
    <glyph glyph-name="lcaron" unicode="&#x13e;" horiz-adv-x="243" 
d="M266 540h-40l14 196h68zM56 0l59 736h91l-59 -736h-91z" />
    <glyph glyph-name="uni013C" unicode="&#x13c;" horiz-adv-x="243" 
d="M56 0l59 736h91l-59 -736h-91zM150 -72l-4 -59q-4 -39 -17.5 -71.5t-46.5 -61.5l-37 29q25 24 33.5 45t9.5 45l24 -15h-75l6 88h107z" />
    <glyph glyph-name="ldot" unicode="&#x140;" horiz-adv-x="283" 
d="M56 0l59 736h91l-59 -736h-91zM207 409h111l-8 -101h-111z" />
    <glyph glyph-name="uni1E37" unicode="&#x1e37;" horiz-adv-x="243" 
d="M56 0l59 736h91l-59 -736h-91zM46 -91h100l-9 -95h-100z" />
    <glyph glyph-name="uni01C9" unicode="&#x1c9;" horiz-adv-x="486" 
d="M56 0l59 736h91l-59 -736h-91zM156 -136q27 -8 48 -8q23 0 42.5 8.5t32.5 30t16 60.5l45 548h90l-45 -558q-6 -83 -51 -124t-116 -41q-17 0 -34 2t-34 7zM347 720h108l-8 -99h-109z" />
    <glyph glyph-name="uni1E3B" unicode="&#x1e3b;" horiz-adv-x="243" 
d="M56 0l59 736h91l-59 -736h-91zM-63 -171l5 64h304l-5 -64h-304z" />
    <glyph glyph-name="lslash" unicode="&#x142;" horiz-adv-x="299" 
d="M28 255l-31 64l291 161l32 -64zM85 0l58 733h89l-58 -733h-89z" />
    <glyph glyph-name="m" unicode="m" horiz-adv-x="884" 
d="M56 0l29 362q3 34 4 70t-1 71h85l2 -103l-13 -1q49 117 174 117q72 0 113 -37t46 -109l-25 20q22 60 71.5 93t114.5 33q86 0 126 -51.5t32 -151.5l-24 -313h-90l24 309q6 67 -17 99.5t-77 32.5q-61 0 -97.5 -40t-41.5 -116l-23 -285h-90l24 308q6 68 -17 100.5t-77 32.5
q-61 0 -97 -40t-42 -116l-22 -285h-91z" />
    <glyph glyph-name="uni1E43" unicode="&#x1e43;" horiz-adv-x="884" 
d="M56 0l29 362q3 34 4 70t-1 71h85l2 -103l-13 -1q49 117 174 117q72 0 113 -37t46 -109l-25 20q22 60 71.5 93t114.5 33q86 0 126 -51.5t32 -151.5l-24 -313h-90l24 309q6 67 -17 99.5t-77 32.5q-61 0 -97.5 -40t-41.5 -116l-23 -285h-90l24 308q6 68 -17 100.5t-77 32.5
q-61 0 -97 -40t-42 -116l-22 -285h-91zM367 -91h100l-9 -95h-100z" />
    <glyph glyph-name="n" unicode="n" horiz-adv-x="589" 
d="M56 0l29 362q6 70 3 141h85l2 -103l-12 -2q22 56 71.5 87t114.5 31q91 0 135 -52t36 -152l-25 -312h-90l25 307q5 68 -21.5 101t-85.5 33q-69 0 -108.5 -41t-44.5 -112l-23 -288h-91z" />
    <glyph glyph-name="nacute" unicode="&#x144;" horiz-adv-x="589" 
d="M56 0l29 362q6 70 3 141h85l2 -103l-12 -2q22 56 71.5 87t114.5 31q91 0 135 -52t36 -152l-25 -312h-90l25 307q5 68 -21.5 101t-85.5 33q-69 0 -108.5 -41t-44.5 -112l-23 -288h-91zM352 568h-62l114 205h105z" />
    <glyph glyph-name="napostrophe" unicode="&#x149;" horiz-adv-x="589" 
d="M242 762l-4 -59q-3 -39 -16.5 -71.5t-46.5 -61.5l-38 29q26 24 34.5 45t10.5 45l23 -15h-75l7 88h105zM56 0l29 362q6 70 3 141h85l2 -103l-12 -2q22 56 71.5 87t114.5 31q91 0 135 -52t36 -152l-25 -312h-90l25 307q5 68 -21.5 101t-85.5 33q-69 0 -108.5 -41
t-44.5 -112l-23 -288h-91z" />
    <glyph glyph-name="ncaron" unicode="&#x148;" horiz-adv-x="589" 
d="M56 0l29 362q6 70 3 141h85l2 -103l-12 -2q22 56 71.5 87t114.5 31q91 0 135 -52t36 -152l-25 -312h-90l25 307q5 68 -21.5 101t-85.5 33q-69 0 -108.5 -41t-44.5 -112l-23 -288h-91zM406 773h83l-137 -205h-61l-105 205h79l60 -141z" />
    <glyph glyph-name="uni0146" unicode="&#x146;" horiz-adv-x="589" 
d="M56 0l29 362q6 70 3 141h85l2 -103l-12 -2q22 56 71.5 87t114.5 31q91 0 135 -52t36 -152l-25 -312h-90l25 307q5 68 -21.5 101t-85.5 33q-69 0 -108.5 -41t-44.5 -112l-23 -288h-91zM324 -72l-4 -59q-4 -39 -17.5 -71.5t-46.5 -61.5l-37 29q25 24 33.5 45t9.5 45l24 -15
h-75l6 88h107z" />
    <glyph glyph-name="uni1E45" unicode="&#x1e45;" horiz-adv-x="589" 
d="M56 0l29 362q6 70 3 141h85l2 -103l-12 -2q22 56 71.5 87t114.5 31q91 0 135 -52t36 -152l-25 -312h-90l25 307q5 68 -21.5 101t-85.5 33q-69 0 -108.5 -41t-44.5 -112l-23 -288h-91zM279 720h108l-8 -99h-109z" />
    <glyph glyph-name="uni1E47" unicode="&#x1e47;" horiz-adv-x="589" 
d="M56 0l29 362q6 70 3 141h85l2 -103l-12 -2q22 56 71.5 87t114.5 31q91 0 135 -52t36 -152l-25 -312h-90l25 307q5 68 -21.5 101t-85.5 33q-69 0 -108.5 -41t-44.5 -112l-23 -288h-91zM220 -91h100l-9 -95h-100z" />
    <glyph glyph-name="eng" unicode="&#x14b;" horiz-adv-x="589" 
d="M327 -190q-18 0 -34.5 2t-33.5 7l6 75q15 -4 26 -6t22 -2q24 0 43.5 8.5t32.5 30t16 60.5l25 322q5 68 -21.5 101t-85.5 33q-69 0 -108.5 -41t-44.5 -112l-23 -288h-91l29 362q6 70 3 141h85l2 -103l-12 -2q22 56 71.5 87t114.5 31q91 0 135 -52t36 -152l-26 -337
q-6 -83 -51 -124t-116 -41z" />
    <glyph glyph-name="uni01CC" unicode="&#x1cc;" horiz-adv-x="832" 
d="M56 0l29 362q6 70 3 141h85l2 -103l-12 -2q22 56 71.5 87t114.5 31q91 0 135 -52t36 -152l-25 -312h-90l25 307q5 68 -21.5 101t-85.5 33q-69 0 -108.5 -41t-44.5 -112l-23 -288h-91zM502 -136q27 -8 48 -8q23 0 42.5 8.5t32.5 30t16 60.5l45 548h90l-45 -558
q-6 -83 -51 -124t-116 -41q-17 0 -34 2t-34 7zM693 720h108l-8 -99h-109z" />
    <glyph glyph-name="uni1E49" unicode="&#x1e49;" horiz-adv-x="589" 
d="M56 0l29 362q6 70 3 141h85l2 -103l-12 -2q22 56 71.5 87t114.5 31q91 0 135 -52t36 -152l-25 -312h-90l25 307q5 68 -21.5 101t-85.5 33q-69 0 -108.5 -41t-44.5 -112l-23 -288h-91zM111 -171l5 64h304l-5 -64h-304z" />
    <glyph glyph-name="ntilde" unicode="&#xf1;" horiz-adv-x="589" 
d="M56 0l29 362q6 70 3 141h85l2 -103l-12 -2q22 56 71.5 87t114.5 31q91 0 135 -52t36 -152l-25 -312h-90l25 307q5 68 -21.5 101t-85.5 33q-69 0 -108.5 -41t-44.5 -112l-23 -288h-91zM160 613q2 41 16 67.5t36 39.5t48 13q29 0 53 -14.5t46 -28.5t42 -14q21 0 34.5 14.5
t14.5 39.5h48q-2 -42 -16 -68.5t-35.5 -39t-47.5 -12.5q-29 0 -53.5 14.5t-46 29t-40.5 14.5q-22 0 -35.5 -14.5t-15.5 -40.5h-48z" />
    <glyph glyph-name="o" unicode="o" horiz-adv-x="577" 
d="M283 -7q-73 0 -126.5 30t-82 85t-28.5 129q0 85 31 147.5t87 97t130 34.5q72 0 125 -31t82 -85.5t29 -128.5q0 -85 -30.5 -147.5t-86.5 -96.5t-130 -34zM284 66q50 0 85 26t52.5 72.5t17.5 109.5q0 80 -38 124t-107 44q-51 0 -85.5 -26t-52.5 -73t-18 -109
q0 -83 37.5 -125.5t108.5 -42.5z" />
    <glyph glyph-name="oacute" unicode="&#xf3;" horiz-adv-x="577" 
d="M283 -7q-73 0 -126.5 30t-82 85t-28.5 129q0 85 31 147.5t87 97t130 34.5q72 0 125 -31t82 -85.5t29 -128.5q0 -85 -30.5 -147.5t-86.5 -96.5t-130 -34zM284 66q50 0 85 26t52.5 72.5t17.5 109.5q0 80 -38 124t-107 44q-51 0 -85.5 -26t-52.5 -73t-18 -109
q0 -83 37.5 -125.5t108.5 -42.5zM344 568h-62l114 205h105z" />
    <glyph glyph-name="obreve" unicode="&#x14f;" horiz-adv-x="577" 
d="M283 -7q-73 0 -126.5 30t-82 85t-28.5 129q0 85 31 147.5t87 97t130 34.5q72 0 125 -31t82 -85.5t29 -128.5q0 -85 -30.5 -147.5t-86.5 -96.5t-130 -34zM284 66q50 0 85 26t52.5 72.5t17.5 109.5q0 80 -38 124t-107 44q-51 0 -85.5 -26t-52.5 -73t-18 -109
q0 -83 37.5 -125.5t108.5 -42.5zM317 598q-53 0 -98 31t-63 99l56 23q19 -49 47.5 -69t62.5 -20t64 19.5t56 69.5l53 -23q-26 -71 -75 -100.5t-103 -29.5z" />
    <glyph glyph-name="ocircumflex" unicode="&#xf4;" horiz-adv-x="577" 
d="M283 -7q-73 0 -126.5 30t-82 85t-28.5 129q0 85 31 147.5t87 97t130 34.5q72 0 125 -31t82 -85.5t29 -128.5q0 -85 -30.5 -147.5t-86.5 -96.5t-130 -34zM284 66q50 0 85 26t52.5 72.5t17.5 109.5q0 80 -38 124t-107 44q-51 0 -85.5 -26t-52.5 -73t-18 -109
q0 -83 37.5 -125.5t108.5 -42.5zM244 568h-83l138 205h61l105 -205h-80l-60 141z" />
    <glyph glyph-name="uni1ED1" unicode="&#x1ed1;" horiz-adv-x="577" 
d="M283 -7q-73 0 -126.5 30t-82 85t-28.5 129q0 85 31 147.5t87 97t130 34.5q72 0 125 -31t82 -85.5t29 -128.5q0 -85 -30.5 -147.5t-86.5 -96.5t-130 -34zM284 66q50 0 85 26t52.5 72.5t17.5 109.5q0 80 -38 124t-107 44q-51 0 -85.5 -26t-52.5 -73t-18 -109
q0 -83 37.5 -125.5t108.5 -42.5zM241 568h-80l135 147h58l111 -147h-78l-64 96zM461 673h-53l98 143h97z" />
    <glyph glyph-name="uni1ED9" unicode="&#x1ed9;" horiz-adv-x="577" 
d="M283 -7q-73 0 -126.5 30t-82 85t-28.5 129q0 85 31 147.5t87 97t130 34.5q72 0 125 -31t82 -85.5t29 -128.5q0 -85 -30.5 -147.5t-86.5 -96.5t-130 -34zM284 66q50 0 85 26t52.5 72.5t17.5 109.5q0 80 -38 124t-107 44q-51 0 -85.5 -26t-52.5 -73t-18 -109
q0 -83 37.5 -125.5t108.5 -42.5zM212 -91h100l-9 -95h-100zM244 568h-83l138 205h61l105 -205h-80l-60 141z" />
    <glyph glyph-name="uni1ED3" unicode="&#x1ed3;" horiz-adv-x="577" 
d="M283 -7q-73 0 -126.5 30t-82 85t-28.5 129q0 85 31 147.5t87 97t130 34.5q72 0 125 -31t82 -85.5t29 -128.5q0 -85 -30.5 -147.5t-86.5 -96.5t-130 -34zM284 66q50 0 85 26t52.5 72.5t17.5 109.5q0 80 -38 124t-107 44q-51 0 -85.5 -26t-52.5 -73t-18 -109
q0 -83 37.5 -125.5t108.5 -42.5zM161 568l135 147h58l111 -147h-78l-64 96l-82 -96h-80zM451 673l-101 143h86l68 -143h-53z" />
    <glyph glyph-name="uni1ED5" unicode="&#x1ed5;" horiz-adv-x="577" 
d="M283 -7q-73 0 -126.5 30t-82 85t-28.5 129q0 85 31 147.5t87 97t130 34.5q72 0 125 -31t82 -85.5t29 -128.5q0 -85 -30.5 -147.5t-86.5 -96.5t-130 -34zM284 66q50 0 85 26t52.5 72.5t17.5 109.5q0 80 -38 124t-107 44q-51 0 -85.5 -26t-52.5 -73t-18 -109
q0 -83 37.5 -125.5t108.5 -42.5zM161 568l135 147h58l111 -147h-78l-64 96l-82 -96h-80zM407 673l2 18q1 17 12 26.5t25 15t24.5 10t10.5 13.5q0 7 -9.5 11.5t-24.5 4.5t-30.5 -2.5t-36.5 -9.5l-11 45q18 8 40.5 12t44.5 4q46 0 71 -16t25 -42q0 -20 -12.5 -31t-28.5 -17.5
t-29.5 -13.5t-14.5 -19l-1 -9h-57z" />
    <glyph glyph-name="uni1ED7" unicode="&#x1ed7;" horiz-adv-x="577" 
d="M283 -7q-73 0 -126.5 30t-82 85t-28.5 129q0 85 31 147.5t87 97t130 34.5q72 0 125 -31t82 -85.5t29 -128.5q0 -85 -30.5 -147.5t-86.5 -96.5t-130 -34zM284 66q50 0 85 26t52.5 72.5t17.5 109.5q0 80 -38 124t-107 44q-51 0 -85.5 -26t-52.5 -73t-18 -109
q0 -83 37.5 -125.5t108.5 -42.5zM161 568l135 147h58l111 -147h-78l-64 96l-82 -96h-80zM161 731q2 32 15.5 54t35.5 34t48 12q30 0 54.5 -10.5t46 -20.5t42.5 -10q20 0 33 11.5t14 30.5h49q-1 -31 -15 -54t-36 -34.5t-48 -11.5q-29 0 -54 10.5t-46.5 21t-42.5 10.5
q-20 0 -33 -12t-14 -31h-49z" />
    <glyph glyph-name="uni020D" unicode="&#x20d;" horiz-adv-x="577" 
d="M283 -7q-73 0 -126.5 30t-82 85t-28.5 129q0 85 31 147.5t87 97t130 34.5q72 0 125 -31t82 -85.5t29 -128.5q0 -85 -30.5 -147.5t-86.5 -96.5t-130 -34zM284 66q50 0 85 26t52.5 72.5t17.5 109.5q0 80 -38 124t-107 44q-51 0 -85.5 -26t-52.5 -73t-18 -109
q0 -83 37.5 -125.5t108.5 -42.5zM353 568l-61 205h77l28 -205h-44zM228 568l-62 205h78l28 -205h-44z" />
    <glyph glyph-name="odieresis" unicode="&#xf6;" horiz-adv-x="577" 
d="M283 -7q-73 0 -126.5 30t-82 85t-28.5 129q0 85 31 147.5t87 97t130 34.5q72 0 125 -31t82 -85.5t29 -128.5q0 -85 -30.5 -147.5t-86.5 -96.5t-130 -34zM284 66q50 0 85 26t52.5 72.5t17.5 109.5q0 80 -38 124t-107 44q-51 0 -85.5 -26t-52.5 -73t-18 -109
q0 -83 37.5 -125.5t108.5 -42.5zM364 717h97l-7 -93h-97zM188 717h97l-7 -93h-96z" />
    <glyph glyph-name="uni022B" unicode="&#x22b;" horiz-adv-x="577" 
d="M283 -7q-73 0 -126.5 30t-82 85t-28.5 129q0 85 31 147.5t87 97t130 34.5q72 0 125 -31t82 -85.5t29 -128.5q0 -85 -30.5 -147.5t-86.5 -96.5t-130 -34zM284 66q50 0 85 26t52.5 72.5t17.5 109.5q0 80 -38 124t-107 44q-51 0 -85.5 -26t-52.5 -73t-18 -109
q0 -83 37.5 -125.5t108.5 -42.5zM364 717h97l-7 -93h-97zM188 717h97l-7 -93h-96zM181 833l5 67h304l-5 -67h-304z" />
    <glyph glyph-name="uni0231" unicode="&#x231;" horiz-adv-x="577" 
d="M283 -7q-73 0 -126.5 30t-82 85t-28.5 129q0 85 31 147.5t87 97t130 34.5q72 0 125 -31t82 -85.5t29 -128.5q0 -85 -30.5 -147.5t-86.5 -96.5t-130 -34zM284 66q50 0 85 26t52.5 72.5t17.5 109.5q0 80 -38 124t-107 44q-51 0 -85.5 -26t-52.5 -73t-18 -109
q0 -83 37.5 -125.5t108.5 -42.5zM271 720h108l-8 -99h-109zM181 833l5 67h304l-5 -67h-304z" />
    <glyph glyph-name="uni1ECD" unicode="&#x1ecd;" horiz-adv-x="577" 
d="M283 -7q-73 0 -126.5 30t-82 85t-28.5 129q0 85 31 147.5t87 97t130 34.5q72 0 125 -31t82 -85.5t29 -128.5q0 -85 -30.5 -147.5t-86.5 -96.5t-130 -34zM284 66q50 0 85 26t52.5 72.5t17.5 109.5q0 80 -38 124t-107 44q-51 0 -85.5 -26t-52.5 -73t-18 -109
q0 -83 37.5 -125.5t108.5 -42.5zM212 -91h100l-9 -95h-100z" />
    <glyph glyph-name="ograve" unicode="&#xf2;" horiz-adv-x="577" 
d="M283 -7q-73 0 -126.5 30t-82 85t-28.5 129q0 85 31 147.5t87 97t130 34.5q72 0 125 -31t82 -85.5t29 -128.5q0 -85 -30.5 -147.5t-86.5 -96.5t-130 -34zM284 66q50 0 85 26t52.5 72.5t17.5 109.5q0 80 -38 124t-107 44q-51 0 -85.5 -26t-52.5 -73t-18 -109
q0 -83 37.5 -125.5t108.5 -42.5zM282 568l-121 205h96l87 -205h-62z" />
    <glyph glyph-name="uni1ECF" unicode="&#x1ecf;" horiz-adv-x="577" 
d="M283 -7q-73 0 -126.5 30t-82 85t-28.5 129q0 85 31 147.5t87 97t130 34.5q72 0 125 -31t82 -85.5t29 -128.5q0 -85 -30.5 -147.5t-86.5 -96.5t-130 -34zM284 66q50 0 85 26t52.5 72.5t17.5 109.5q0 80 -38 124t-107 44q-51 0 -85.5 -26t-52.5 -73t-18 -109
q0 -83 37.5 -125.5t108.5 -42.5zM344 586l-1 -18h-56l2 27q1 21 12.5 36t25 26t24 21.5t10.5 22.5q0 22 -38 22q-13 0 -27 -2.5t-33 -7.5l-12 48q21 8 42 12t43 4q45 0 70.5 -19t25.5 -48q0 -24 -13 -40t-29.5 -28t-30 -24.5t-15.5 -31.5z" />
    <glyph glyph-name="ohorn" unicode="&#x1a1;" horiz-adv-x="577" 
d="M283 -7q-73 0 -126.5 30t-82 85t-28.5 129q0 85 31 147.5t87 97t131 34.5q18 0 35 -2t30.5 -4t23.5 -2q30 0 51 11t33.5 35t15.5 66l1 16h80l-2 -28q-5 -67 -43.5 -108.5t-109.5 -45.5l18 26q52 -32 77 -88.5t25 -120.5q0 -85 -30.5 -147.5t-86.5 -96.5t-130 -34zM284 66
q50 0 85 26t52.5 72.5t17.5 109.5q0 80 -38 124t-107 44q-51 0 -85.5 -26t-52.5 -73t-18 -109q0 -83 37.5 -125.5t108.5 -42.5z" />
    <glyph glyph-name="uni1EDB" unicode="&#x1edb;" horiz-adv-x="577" 
d="M283 -7q-73 0 -126.5 30t-82 85t-28.5 129q0 85 31 147.5t87 97t131 34.5q18 0 35 -2t30.5 -4t23.5 -2q30 0 51 11t33.5 35t15.5 66l1 16h80l-2 -28q-5 -67 -43.5 -108.5t-109.5 -45.5l18 26q52 -32 77 -88.5t25 -120.5q0 -85 -30.5 -147.5t-86.5 -96.5t-130 -34zM284 66
q50 0 85 26t52.5 72.5t17.5 109.5q0 80 -38 124t-107 44q-51 0 -85.5 -26t-52.5 -73t-18 -109q0 -83 37.5 -125.5t108.5 -42.5zM344 568h-62l114 205h105z" />
    <glyph glyph-name="uni1EE3" unicode="&#x1ee3;" horiz-adv-x="577" 
d="M283 -7q-73 0 -126.5 30t-82 85t-28.5 129q0 85 31 147.5t87 97t131 34.5q18 0 35 -2t30.5 -4t23.5 -2q30 0 51 11t33.5 35t15.5 66l1 16h80l-2 -28q-5 -67 -43.5 -108.5t-109.5 -45.5l18 26q52 -32 77 -88.5t25 -120.5q0 -85 -30.5 -147.5t-86.5 -96.5t-130 -34zM284 66
q50 0 85 26t52.5 72.5t17.5 109.5q0 80 -38 124t-107 44q-51 0 -85.5 -26t-52.5 -73t-18 -109q0 -83 37.5 -125.5t108.5 -42.5zM212 -91h100l-9 -95h-100z" />
    <glyph glyph-name="uni1EDD" unicode="&#x1edd;" horiz-adv-x="577" 
d="M283 -7q-73 0 -126.5 30t-82 85t-28.5 129q0 85 31 147.5t87 97t131 34.5q18 0 35 -2t30.5 -4t23.5 -2q30 0 51 11t33.5 35t15.5 66l1 16h80l-2 -28q-5 -67 -43.5 -108.5t-109.5 -45.5l18 26q52 -32 77 -88.5t25 -120.5q0 -85 -30.5 -147.5t-86.5 -96.5t-130 -34zM284 66
q50 0 85 26t52.5 72.5t17.5 109.5q0 80 -38 124t-107 44q-51 0 -85.5 -26t-52.5 -73t-18 -109q0 -83 37.5 -125.5t108.5 -42.5zM282 568l-121 205h96l87 -205h-62z" />
    <glyph glyph-name="uni1EDF" unicode="&#x1edf;" horiz-adv-x="577" 
d="M283 -7q-73 0 -126.5 30t-82 85t-28.5 129q0 85 31 147.5t87 97t131 34.5q18 0 35 -2t30.5 -4t23.5 -2q30 0 51 11t33.5 35t15.5 66l1 16h80l-2 -28q-5 -67 -43.5 -108.5t-109.5 -45.5l18 26q52 -32 77 -88.5t25 -120.5q0 -85 -30.5 -147.5t-86.5 -96.5t-130 -34zM284 66
q50 0 85 26t52.5 72.5t17.5 109.5q0 80 -38 124t-107 44q-51 0 -85.5 -26t-52.5 -73t-18 -109q0 -83 37.5 -125.5t108.5 -42.5zM344 586l-1 -18h-56l2 27q1 21 12.5 36t25 26t24 21.5t10.5 22.5q0 22 -38 22q-13 0 -27 -2.5t-33 -7.5l-12 48q21 8 42 12t43 4q45 0 70.5 -19
t25.5 -48q0 -24 -13 -40t-29.5 -28t-30 -24.5t-15.5 -31.5z" />
    <glyph glyph-name="uni1EE1" unicode="&#x1ee1;" horiz-adv-x="577" 
d="M283 -7q-73 0 -126.5 30t-82 85t-28.5 129q0 85 31 147.5t87 97t131 34.5q18 0 35 -2t30.5 -4t23.5 -2q30 0 51 11t33.5 35t15.5 66l1 16h80l-2 -28q-5 -67 -43.5 -108.5t-109.5 -45.5l18 26q52 -32 77 -88.5t25 -120.5q0 -85 -30.5 -147.5t-86.5 -96.5t-130 -34zM284 66
q50 0 85 26t52.5 72.5t17.5 109.5q0 80 -38 124t-107 44q-51 0 -85.5 -26t-52.5 -73t-18 -109q0 -83 37.5 -125.5t108.5 -42.5zM152 613q2 41 16 67.5t36 39.5t48 13q29 0 53 -14.5t46 -28.5t42 -14q21 0 34.5 14.5t14.5 39.5h48q-2 -42 -16 -68.5t-35.5 -39t-47.5 -12.5
q-29 0 -53.5 14.5t-46 29t-40.5 14.5q-22 0 -35.5 -14.5t-15.5 -40.5h-48z" />
    <glyph glyph-name="ohungarumlaut" unicode="&#x151;" horiz-adv-x="577" 
d="M283 -7q-73 0 -126.5 30t-82 85t-28.5 129q0 85 31 147.5t87 97t130 34.5q72 0 125 -31t82 -85.5t29 -128.5q0 -85 -30.5 -147.5t-86.5 -96.5t-130 -34zM284 66q50 0 85 26t52.5 72.5t17.5 109.5q0 80 -38 124t-107 44q-51 0 -85.5 -26t-52.5 -73t-18 -109
q0 -83 37.5 -125.5t108.5 -42.5zM272 568h-44l59 205h82zM397 568h-44l59 205h82z" />
    <glyph glyph-name="uni020F" unicode="&#x20f;" horiz-adv-x="577" 
d="M283 -7q-73 0 -126.5 30t-82 85t-28.5 129q0 85 31 147.5t87 97t130 34.5q72 0 125 -31t82 -85.5t29 -128.5q0 -85 -30.5 -147.5t-86.5 -96.5t-130 -34zM284 66q50 0 85 26t52.5 72.5t17.5 109.5q0 80 -38 124t-107 44q-51 0 -85.5 -26t-52.5 -73t-18 -109
q0 -83 37.5 -125.5t108.5 -42.5zM325 749q54 0 98.5 -31.5t62.5 -98.5l-55 -23q-19 49 -48 68.5t-63 19.5q-33 0 -63 -19t-56 -69l-54 22q18 47 46 76t62 42t70 13z" />
    <glyph glyph-name="omacron" unicode="&#x14d;" horiz-adv-x="577" 
d="M283 -7q-73 0 -126.5 30t-82 85t-28.5 129q0 85 31 147.5t87 97t130 34.5q72 0 125 -31t82 -85.5t29 -128.5q0 -85 -30.5 -147.5t-86.5 -96.5t-130 -34zM284 66q50 0 85 26t52.5 72.5t17.5 109.5q0 80 -38 124t-107 44q-51 0 -85.5 -26t-52.5 -73t-18 -109
q0 -83 37.5 -125.5t108.5 -42.5zM166 637l5 67h304l-5 -67h-304z" />
    <glyph glyph-name="uni1E53" unicode="&#x1e53;" horiz-adv-x="577" 
d="M283 -7q-73 0 -126.5 30t-82 85t-28.5 129q0 85 31 147.5t87 97t130 34.5q72 0 125 -31t82 -85.5t29 -128.5q0 -85 -30.5 -147.5t-86.5 -96.5t-130 -34zM284 66q50 0 85 26t52.5 72.5t17.5 109.5q0 80 -38 124t-107 44q-51 0 -85.5 -26t-52.5 -73t-18 -109
q0 -83 37.5 -125.5t108.5 -42.5zM166 637l5 67h304l-5 -67h-304zM359 764h-62l114 205h105z" />
    <glyph glyph-name="uni1E51" unicode="&#x1e51;" horiz-adv-x="577" 
d="M283 -7q-73 0 -126.5 30t-82 85t-28.5 129q0 85 31 147.5t87 97t130 34.5q72 0 125 -31t82 -85.5t29 -128.5q0 -85 -30.5 -147.5t-86.5 -96.5t-130 -34zM284 66q50 0 85 26t52.5 72.5t17.5 109.5q0 80 -38 124t-107 44q-51 0 -85.5 -26t-52.5 -73t-18 -109
q0 -83 37.5 -125.5t108.5 -42.5zM166 637l5 67h304l-5 -67h-304zM297 764l-121 205h96l87 -205h-62z" />
    <glyph glyph-name="uni01EB" unicode="&#x1eb;" horiz-adv-x="577" 
d="M316 -200q-55 0 -86.5 29t-31.5 74q0 41 19.5 67.5t52.5 42.5l7 -20q-70 0 -122 30.5t-80.5 85t-28.5 128.5q0 85 31 147.5t87 97t130 34.5q72 0 125 -31t82 -85.5t29 -128.5q0 -79 -23.5 -133.5t-62.5 -87.5t-87 -47q-45 -14 -67 -33.5t-22 -51.5q0 -30 16 -45.5
t45 -15.5q12 0 27.5 4.5t33.5 13.5l12 -52q-17 -10 -39.5 -16.5t-46.5 -6.5zM284 66q50 0 85 26t52.5 72.5t17.5 109.5q0 80 -38 124t-107 44q-51 0 -85.5 -26t-52.5 -73t-18 -109q0 -83 37.5 -125.5t108.5 -42.5z" />
    <glyph glyph-name="oslash" unicode="&#xf8;" horiz-adv-x="577" 
d="M124 -49l-50 31l380 574l49 -29zM283 -7q-73 0 -126.5 30t-82 85t-28.5 129q0 85 31 147.5t87 97t130 34.5q72 0 125 -31t82 -85.5t29 -128.5q0 -85 -30.5 -147.5t-86.5 -96.5t-130 -34zM284 66q51 0 86 25.5t52.5 72.5t17.5 110q0 81 -38 124.5t-108 43.5q-51 0 -86 -26
t-53 -73t-18 -109q0 -83 37.5 -125.5t109.5 -42.5z" />
    <glyph glyph-name="oslashacute" unicode="&#x1ff;" horiz-adv-x="577" 
d="M124 -49l-50 31l380 574l49 -29zM283 -7q-73 0 -126.5 30t-82 85t-28.5 129q0 85 31 147.5t87 97t130 34.5q72 0 125 -31t82 -85.5t29 -128.5q0 -85 -30.5 -147.5t-86.5 -96.5t-130 -34zM284 66q51 0 86 25.5t52.5 72.5t17.5 110q0 81 -38 124.5t-108 43.5q-51 0 -86 -26
t-53 -73t-18 -109q0 -83 37.5 -125.5t109.5 -42.5zM344 568h-62l114 205h105z" />
    <glyph glyph-name="otilde" unicode="&#xf5;" horiz-adv-x="577" 
d="M283 -7q-73 0 -126.5 30t-82 85t-28.5 129q0 85 31 147.5t87 97t130 34.5q72 0 125 -31t82 -85.5t29 -128.5q0 -85 -30.5 -147.5t-86.5 -96.5t-130 -34zM284 66q50 0 85 26t52.5 72.5t17.5 109.5q0 80 -38 124t-107 44q-51 0 -85.5 -26t-52.5 -73t-18 -109
q0 -83 37.5 -125.5t108.5 -42.5zM152 613q2 41 16 67.5t36 39.5t48 13q29 0 53 -14.5t46 -28.5t42 -14q21 0 34.5 14.5t14.5 39.5h48q-2 -42 -16 -68.5t-35.5 -39t-47.5 -12.5q-29 0 -53.5 14.5t-46 29t-40.5 14.5q-22 0 -35.5 -14.5t-15.5 -40.5h-48z" />
    <glyph glyph-name="uni1E4D" unicode="&#x1e4d;" horiz-adv-x="577" 
d="M283 -7q-73 0 -126.5 30t-82 85t-28.5 129q0 85 31 147.5t87 97t130 34.5q72 0 125 -31t82 -85.5t29 -128.5q0 -85 -30.5 -147.5t-86.5 -96.5t-130 -34zM284 66q50 0 85 26t52.5 72.5t17.5 109.5q0 80 -38 124t-107 44q-51 0 -85.5 -26t-52.5 -73t-18 -109
q0 -83 37.5 -125.5t108.5 -42.5zM152 613q2 41 16 67.5t36 39.5t48 13q29 0 53 -14.5t46 -28.5t42 -14q21 0 34.5 14.5t14.5 39.5h48q-2 -42 -16 -68.5t-35.5 -39t-47.5 -12.5q-29 0 -53.5 14.5t-46 29t-40.5 14.5q-22 0 -35.5 -14.5t-15.5 -40.5h-48zM359 764h-62l114 205
h105z" />
    <glyph glyph-name="uni1E4F" unicode="&#x1e4f;" horiz-adv-x="577" 
d="M283 -7q-73 0 -126.5 30t-82 85t-28.5 129q0 85 31 147.5t87 97t130 34.5q72 0 125 -31t82 -85.5t29 -128.5q0 -85 -30.5 -147.5t-86.5 -96.5t-130 -34zM284 66q50 0 85 26t52.5 72.5t17.5 109.5q0 80 -38 124t-107 44q-51 0 -85.5 -26t-52.5 -73t-18 -109
q0 -83 37.5 -125.5t108.5 -42.5zM152 613q2 41 16 67.5t36 39.5t48 13q29 0 53 -14.5t46 -28.5t42 -14q21 0 34.5 14.5t14.5 39.5h48q-2 -42 -16 -68.5t-35.5 -39t-47.5 -12.5q-29 0 -53.5 14.5t-46 29t-40.5 14.5q-22 0 -35.5 -14.5t-15.5 -40.5h-48zM379 913h97l-7 -93
h-97zM203 913h97l-7 -93h-96z" />
    <glyph glyph-name="uni022D" unicode="&#x22d;" horiz-adv-x="577" 
d="M283 -7q-73 0 -126.5 30t-82 85t-28.5 129q0 85 31 147.5t87 97t130 34.5q72 0 125 -31t82 -85.5t29 -128.5q0 -85 -30.5 -147.5t-86.5 -96.5t-130 -34zM284 66q50 0 85 26t52.5 72.5t17.5 109.5q0 80 -38 124t-107 44q-51 0 -85.5 -26t-52.5 -73t-18 -109
q0 -83 37.5 -125.5t108.5 -42.5zM152 613q2 41 16 67.5t36 39.5t48 13q29 0 53 -14.5t46 -28.5t42 -14q21 0 34.5 14.5t14.5 39.5h48q-2 -42 -16 -68.5t-35.5 -39t-47.5 -12.5q-29 0 -53.5 14.5t-46 29t-40.5 14.5q-22 0 -35.5 -14.5t-15.5 -40.5h-48zM181 833l5 67h304
l-5 -67h-304z" />
    <glyph glyph-name="oe" unicode="&#x153;" horiz-adv-x="933" 
d="M280 -7q-71 0 -124 30t-81.5 85t-28.5 129q0 85 31 147.5t86.5 97t129.5 34.5q73 0 122.5 -30t75.5 -86.5t26 -137.5q0 -77 -27.5 -138t-80.5 -96t-129 -35zM284 66q50 0 84 26t51.5 72.5t17.5 109.5q0 80 -37 124t-106 44q-51 0 -85.5 -26t-52.5 -73t-18 -109
q0 -83 37.5 -125.5t108.5 -42.5zM683 -7q-75 0 -127 30.5t-78.5 85.5t-26.5 128q0 83 28 146t81 98t129 35q66 0 114.5 -31t71.5 -92.5t13 -155.5h-376l3 56h325l-28 -21q8 90 -27 133t-94 43q-79 0 -121 -55.5t-42 -157.5q0 -79 40.5 -124t118.5 -45q38 0 79 13.5t77 42.5
l24 -64q-21 -20 -52 -34.5t-65.5 -22.5t-66.5 -8z" />
    <glyph glyph-name="p" unicode="p" horiz-adv-x="604" 
d="M39 -216l46 578q6 70 3 141h85l2 -103l-10 -2q13 37 39.5 63t63 40.5t76.5 14.5q64 0 112.5 -30t75.5 -84.5t27 -129.5q0 -84 -30 -146.5t-83 -97.5t-125 -35q-65 0 -113 32t-65 89l14 18l-27 -348h-91zM312 66q73 0 113.5 55t40.5 150q0 82 -38.5 126.5t-106.5 44.5
q-73 0 -114.5 -55t-41.5 -150q0 -84 38 -127.5t109 -43.5z" />
    <glyph glyph-name="thorn" unicode="&#xfe;" horiz-adv-x="604" 
d="M40 -216l75 944h90l-28 -352l-12 22q13 37 39.5 63t63 40.5t77.5 14.5q63 0 111.5 -30t75.5 -84.5t27 -129.5q0 -84 -30 -146.5t-83 -97.5t-124 -35q-66 0 -113 32t-65 89l13 18l-27 -348h-90zM313 66q72 0 113.5 55t41.5 150q0 82 -39 126.5t-108 44.5q-73 0 -114 -55
t-41 -150q0 -84 37.5 -127.5t109.5 -43.5z" />
    <glyph glyph-name="q" unicode="q" horiz-adv-x="604" 
d="M400 -216l27 348l12 -22q-13 -37 -40 -63.5t-63 -40t-76 -13.5q-64 0 -112 29.5t-75.5 84t-27.5 129.5q0 84 30 146.5t83.5 98t123.5 35.5q67 0 114 -32.5t66 -91.5l-9 8l17 103h85q-6 -35 -11 -70.5t-8 -70.5l-46 -578h-90zM284 66q72 0 113.5 55.5t41.5 149.5
q0 84 -38 127.5t-108 43.5q-73 0 -115 -54.5t-42 -151.5q0 -80 39 -125t109 -45z" />
    <glyph glyph-name="r" unicode="r" horiz-adv-x="369" 
d="M56 0l29 362q3 35 4 70.5t-1 70.5h85l2 -125l-12 19q20 56 68.5 87t106.5 31q14 0 25.5 -1.5t21.5 -4.5l-8 -82q-13 4 -26 6.5t-29 2.5q-50 0 -83 -21.5t-50 -56t-19 -74.5l-23 -284h-91z" />
    <glyph glyph-name="racute" unicode="&#x155;" horiz-adv-x="369" 
d="M56 0l29 362q3 35 4 70.5t-1 70.5h85l2 -125l-12 19q20 56 68.5 87t106.5 31q14 0 25.5 -1.5t21.5 -4.5l-8 -82q-13 4 -26 6.5t-29 2.5q-50 0 -83 -21.5t-50 -56t-19 -74.5l-23 -284h-91zM279 568h-62l114 205h105z" />
    <glyph glyph-name="rcaron" unicode="&#x159;" horiz-adv-x="369" 
d="M56 0l29 362q3 35 4 70.5t-1 70.5h85l2 -125l-12 19q20 56 68.5 87t106.5 31q14 0 25.5 -1.5t21.5 -4.5l-8 -82q-13 4 -26 6.5t-29 2.5q-50 0 -83 -21.5t-50 -56t-19 -74.5l-23 -284h-91zM333 773h83l-137 -205h-61l-105 205h79l60 -141z" />
    <glyph glyph-name="uni0157" unicode="&#x157;" horiz-adv-x="369" 
d="M56 0l29 362q3 35 4 70.5t-1 70.5h85l2 -125l-12 19q20 56 68.5 87t106.5 31q14 0 25.5 -1.5t21.5 -4.5l-8 -82q-13 4 -26 6.5t-29 2.5q-50 0 -83 -21.5t-50 -56t-19 -74.5l-23 -284h-91zM150 -72l-4 -59q-4 -39 -17.5 -71.5t-46.5 -61.5l-37 29q25 24 33.5 45t9.5 45
l24 -15h-75l6 88h107z" />
    <glyph glyph-name="uni0211" unicode="&#x211;" horiz-adv-x="369" 
d="M56 0l29 362q3 35 4 70.5t-1 70.5h85l2 -125l-12 19q20 56 68.5 87t106.5 31q14 0 25.5 -1.5t21.5 -4.5l-8 -82q-13 4 -26 6.5t-29 2.5q-50 0 -83 -21.5t-50 -56t-19 -74.5l-23 -284h-91zM288 568l-61 205h77l28 -205h-44zM163 568l-62 205h78l28 -205h-44z" />
    <glyph glyph-name="uni1E5B" unicode="&#x1e5b;" horiz-adv-x="369" 
d="M56 0l29 362q3 35 4 70.5t-1 70.5h85l2 -125l-12 19q20 56 68.5 87t106.5 31q14 0 25.5 -1.5t21.5 -4.5l-8 -82q-13 4 -26 6.5t-29 2.5q-50 0 -83 -21.5t-50 -56t-19 -74.5l-23 -284h-91zM46 -91h100l-9 -95h-100z" />
    <glyph glyph-name="uni0213" unicode="&#x213;" horiz-adv-x="369" 
d="M56 0l29 362q3 35 4 70.5t-1 70.5h85l2 -125l-12 19q20 56 68.5 87t106.5 31q14 0 25.5 -1.5t21.5 -4.5l-8 -82q-13 4 -26 6.5t-29 2.5q-50 0 -83 -21.5t-50 -56t-19 -74.5l-23 -284h-91zM260 749q54 0 98.5 -31.5t62.5 -98.5l-55 -23q-19 49 -48 68.5t-63 19.5
q-33 0 -63 -19t-56 -69l-54 22q18 47 46 76t62 42t70 13z" />
    <glyph glyph-name="uni1E5F" unicode="&#x1e5f;" horiz-adv-x="369" 
d="M56 0l29 362q3 35 4 70.5t-1 70.5h85l2 -125l-12 19q20 56 68.5 87t106.5 31q14 0 25.5 -1.5t21.5 -4.5l-8 -82q-13 4 -26 6.5t-29 2.5q-50 0 -83 -21.5t-50 -56t-19 -74.5l-23 -284h-91zM-63 -171l5 64h304l-5 -64h-304z" />
    <glyph glyph-name="s" unicode="s" horiz-adv-x="497" 
d="M235 -7q-60 0 -112 16.5t-94 48.5l35 66q41 -32 83 -46.5t90 -14.5q58 0 87.5 18.5t29.5 53.5q0 27 -20.5 43t-53 26.5t-69 20.5t-68.5 26t-52 43t-20 71q0 46 25 79.5t70.5 52.5t105.5 19q54 0 103 -17.5t81 -48.5l-35 -65q-70 60 -149 60q-56 0 -86 -19.5t-30 -56.5
q0 -28 20.5 -44t53 -26.5t68.5 -20.5t68.5 -25.5t53 -42t20.5 -70.5q0 -69 -56 -108t-149 -39z" />
    <glyph glyph-name="sacute" unicode="&#x15b;" horiz-adv-x="497" 
d="M235 -7q-60 0 -112 16.5t-94 48.5l35 66q41 -32 83 -46.5t90 -14.5q58 0 87.5 18.5t29.5 53.5q0 27 -20.5 43t-53 26.5t-69 20.5t-68.5 26t-52 43t-20 71q0 46 25 79.5t70.5 52.5t105.5 19q54 0 103 -17.5t81 -48.5l-35 -65q-70 60 -149 60q-56 0 -86 -19.5t-30 -56.5
q0 -28 20.5 -44t53 -26.5t68.5 -20.5t68.5 -25.5t53 -42t20.5 -70.5q0 -69 -56 -108t-149 -39zM313 568h-62l114 205h105z" />
    <glyph glyph-name="uni1E65" unicode="&#x1e65;" horiz-adv-x="497" 
d="M235 -7q-60 0 -112 16.5t-94 48.5l35 66q41 -32 83 -46.5t90 -14.5q58 0 87.5 18.5t29.5 53.5q0 27 -20.5 43t-53 26.5t-69 20.5t-68.5 26t-52 43t-20 71q0 46 25 79.5t70.5 52.5t105.5 19q54 0 103 -17.5t81 -48.5l-35 -65q-70 60 -149 60q-56 0 -86 -19.5t-30 -56.5
q0 -28 20.5 -44t53 -26.5t68.5 -20.5t68.5 -25.5t53 -42t20.5 -70.5q0 -69 -56 -108t-149 -39zM315 557h-62l114 205h105zM138 764h108l-8 -99h-109z" />
    <glyph glyph-name="scaron" unicode="&#x161;" horiz-adv-x="497" 
d="M235 -7q-60 0 -112 16.5t-94 48.5l35 66q41 -32 83 -46.5t90 -14.5q58 0 87.5 18.5t29.5 53.5q0 27 -20.5 43t-53 26.5t-69 20.5t-68.5 26t-52 43t-20 71q0 46 25 79.5t70.5 52.5t105.5 19q54 0 103 -17.5t81 -48.5l-35 -65q-70 60 -149 60q-56 0 -86 -19.5t-30 -56.5
q0 -28 20.5 -44t53 -26.5t68.5 -20.5t68.5 -25.5t53 -42t20.5 -70.5q0 -69 -56 -108t-149 -39zM367 773h83l-137 -205h-61l-105 205h79l60 -141z" />
    <glyph glyph-name="uni1E67" unicode="&#x1e67;" horiz-adv-x="497" 
d="M235 -7q-60 0 -112 16.5t-94 48.5l35 66q41 -32 83 -46.5t90 -14.5q58 0 87.5 18.5t29.5 53.5q0 27 -20.5 43t-53 26.5t-69 20.5t-68.5 26t-52 43t-20 71q0 46 25 79.5t70.5 52.5t105.5 19q54 0 103 -17.5t81 -48.5l-35 -65q-70 60 -149 60q-56 0 -86 -19.5t-30 -56.5
q0 -28 20.5 -44t53 -26.5t68.5 -20.5t68.5 -25.5t53 -42t20.5 -70.5q0 -69 -56 -108t-149 -39zM367 773h83l-137 -205h-61l-105 205h79l60 -141zM255 916h108l-8 -99h-109z" />
    <glyph glyph-name="scedilla" unicode="&#x15f;" horiz-adv-x="497" 
d="M235 -7q-60 0 -112 16.5t-94 48.5l35 66q41 -32 83 -46.5t90 -14.5q58 0 87.5 18.5t29.5 53.5q0 27 -20.5 43t-53 26.5t-69 20.5t-68.5 26t-52 43t-20 71q0 46 25 79.5t70.5 52.5t105.5 19q54 0 103 -17.5t81 -48.5l-35 -65q-70 60 -149 60q-56 0 -86 -19.5t-30 -56.5
q0 -28 20.5 -44t53 -26.5t68.5 -20.5t68.5 -25.5t53 -42t20.5 -70.5q0 -69 -56 -108t-149 -39zM214 -195q-20 0 -46 4.5t-46 13.5l15 46q22 -8 41.5 -11t35.5 -3q25 0 40.5 8t15.5 26q0 26 -35 26q-12 0 -23 -2.5t-20 -5.5l-18 16l19 97h60l-15 -73l-26 2q13 6 24 8t23 2
q33 0 54 -17.5t21 -50.5q0 -37 -30.5 -61.5t-89.5 -24.5z" />
    <glyph glyph-name="scircumflex" unicode="&#x15d;" horiz-adv-x="497" 
d="M235 -7q-60 0 -112 16.5t-94 48.5l35 66q41 -32 83 -46.5t90 -14.5q58 0 87.5 18.5t29.5 53.5q0 27 -20.5 43t-53 26.5t-69 20.5t-68.5 26t-52 43t-20 71q0 46 25 79.5t70.5 52.5t105.5 19q54 0 103 -17.5t81 -48.5l-35 -65q-70 60 -149 60q-56 0 -86 -19.5t-30 -56.5
q0 -28 20.5 -44t53 -26.5t68.5 -20.5t68.5 -25.5t53 -42t20.5 -70.5q0 -69 -56 -108t-149 -39zM213 568h-83l138 205h61l105 -205h-80l-60 141z" />
    <glyph glyph-name="uni0219" unicode="&#x219;" horiz-adv-x="497" 
d="M235 -7q-60 0 -112 16.5t-94 48.5l35 66q41 -32 83 -46.5t90 -14.5q58 0 87.5 18.5t29.5 53.5q0 27 -20.5 43t-53 26.5t-69 20.5t-68.5 26t-52 43t-20 71q0 46 25 79.5t70.5 52.5t105.5 19q54 0 103 -17.5t81 -48.5l-35 -65q-70 60 -149 60q-56 0 -86 -19.5t-30 -56.5
q0 -28 20.5 -44t53 -26.5t68.5 -20.5t68.5 -25.5t53 -42t20.5 -70.5q0 -69 -56 -108t-149 -39zM276 -72l-4 -59q-4 -39 -17.5 -71.5t-46.5 -61.5l-37 29q25 24 33.5 45t9.5 45l24 -15h-75l6 88h107z" />
    <glyph glyph-name="uni1E61" unicode="&#x1e61;" horiz-adv-x="497" 
d="M235 -7q-60 0 -112 16.5t-94 48.5l35 66q41 -32 83 -46.5t90 -14.5q58 0 87.5 18.5t29.5 53.5q0 27 -20.5 43t-53 26.5t-69 20.5t-68.5 26t-52 43t-20 71q0 46 25 79.5t70.5 52.5t105.5 19q54 0 103 -17.5t81 -48.5l-35 -65q-70 60 -149 60q-56 0 -86 -19.5t-30 -56.5
q0 -28 20.5 -44t53 -26.5t68.5 -20.5t68.5 -25.5t53 -42t20.5 -70.5q0 -69 -56 -108t-149 -39zM240 720h108l-8 -99h-109z" />
    <glyph glyph-name="uni1E63" unicode="&#x1e63;" horiz-adv-x="497" 
d="M235 -7q-60 0 -112 16.5t-94 48.5l35 66q41 -32 83 -46.5t90 -14.5q58 0 87.5 18.5t29.5 53.5q0 27 -20.5 43t-53 26.5t-69 20.5t-68.5 26t-52 43t-20 71q0 46 25 79.5t70.5 52.5t105.5 19q54 0 103 -17.5t81 -48.5l-35 -65q-70 60 -149 60q-56 0 -86 -19.5t-30 -56.5
q0 -28 20.5 -44t53 -26.5t68.5 -20.5t68.5 -25.5t53 -42t20.5 -70.5q0 -69 -56 -108t-149 -39zM172 -91h100l-9 -95h-100z" />
    <glyph glyph-name="uni1E69" unicode="&#x1e69;" horiz-adv-x="497" 
d="M235 -7q-60 0 -112 16.5t-94 48.5l35 66q41 -32 83 -46.5t90 -14.5q58 0 87.5 18.5t29.5 53.5q0 27 -20.5 43t-53 26.5t-69 20.5t-68.5 26t-52 43t-20 71q0 46 25 79.5t70.5 52.5t105.5 19q54 0 103 -17.5t81 -48.5l-35 -65q-70 60 -149 60q-56 0 -86 -19.5t-30 -56.5
q0 -28 20.5 -44t53 -26.5t68.5 -20.5t68.5 -25.5t53 -42t20.5 -70.5q0 -69 -56 -108t-149 -39zM172 -91h100l-9 -95h-100zM240 720h108l-8 -99h-109z" />
    <glyph glyph-name="germandbls" unicode="&#xdf;" horiz-adv-x="644" 
d="M57 0l38 489q11 126 75 189t183 63q61 0 105 -19t68 -55.5t24 -89.5q0 -72 -48 -127t-149 -91l2 18q130 -26 190.5 -78.5t60.5 -135.5q0 -49 -25.5 -88t-71 -60.5t-104.5 -21.5q-52 0 -102.5 17.5t-86.5 47.5l34 66q40 -31 78.5 -45.5t80.5 -14.5q52 0 81 26t29 71
q0 58 -55 97t-178 73l4 68q91 33 132.5 75t41.5 99q0 49 -29 73.5t-83 24.5q-78 0 -118 -41t-47 -130l-39 -500h-91z" />
    <glyph glyph-name="t" unicode="t" horiz-adv-x="357" 
d="M21 433l6 70h330l-6 -70h-330zM320 78l-5 -75q-17 -5 -35 -7.5t-37 -2.5q-74 0 -112.5 42t-32.5 124l36 472l94 32l-39 -494q-3 -40 6.5 -61.5t28.5 -29.5t44 -8q13 0 25.5 1.5t26.5 6.5z" />
    <glyph glyph-name="tbar" unicode="&#x167;" horiz-adv-x="367" 
d="M33 256l5 67h289l-5 -67h-289zM27 433l5 70h330l-5 -70h-330zM326 78l-6 -75q-17 -5 -35 -7.5t-37 -2.5q-74 0 -112.5 42t-32.5 124l37 472l93 32l-39 -494q-3 -40 6.5 -61.5t28.5 -29.5t44 -8q13 0 25.5 1.5t27.5 6.5z" />
    <glyph glyph-name="tcaron" unicode="&#x165;" horiz-adv-x="357" 
d="M21 433l6 70h330l-6 -70h-330zM320 78l-5 -75q-17 -5 -35 -7.5t-37 -2.5q-74 0 -112.5 42t-32.5 124l36 472l94 32l-39 -494q-3 -40 6.5 -61.5t28.5 -29.5t44 -8q13 0 25.5 1.5t26.5 6.5zM319.092 533.715h-49.1709l14.6465 172.805h77.4189z" />
    <glyph glyph-name="uni0163" unicode="&#x163;" horiz-adv-x="357" 
d="M21 433l6 70h330l-6 -70h-330zM320 78l-5 -75q-17 -5 -35 -7.5t-37 -2.5q-74 0 -112.5 42t-32.5 124l36 472l94 32l-39 -494q-3 -40 6.5 -61.5t28.5 -29.5t44 -8q13 0 25.5 1.5t26.5 6.5zM195 -195q-20 0 -46 4.5t-46 13.5l15 46q22 -8 41.5 -11t35.5 -3q25 0 40.5 8
t15.5 26q0 26 -35 26q-12 0 -23 -2.5t-20 -5.5l-18 16l19 97h60l-15 -73l-26 2q13 6 24 8t23 2q33 0 54 -17.5t21 -50.5q0 -37 -30.5 -61.5t-89.5 -24.5z" />
    <glyph glyph-name="uni021B" unicode="&#x21b;" horiz-adv-x="357" 
d="M21 433l6 70h330l-6 -70h-330zM320 78l-5 -75q-17 -5 -35 -7.5t-37 -2.5q-74 0 -112.5 42t-32.5 124l36 472l94 32l-39 -494q-3 -40 6.5 -61.5t28.5 -29.5t44 -8q13 0 25.5 1.5t26.5 6.5zM257 -72l-4 -59q-4 -39 -17.5 -71.5t-46.5 -61.5l-37 29q25 24 33.5 45t9.5 45
l24 -15h-75l6 88h107z" />
    <glyph glyph-name="uni1E97" unicode="&#x1e97;" horiz-adv-x="357" 
d="M21 433l6 70h330l-6 -70h-330zM320 78l-5 -75q-17 -5 -35 -7.5t-37 -2.5q-74 0 -112.5 42t-32.5 124l36 472l94 32l-39 -494q-3 -40 6.5 -61.5t28.5 -29.5t44 -8q13 0 25.5 1.5t26.5 6.5zM236 840h97l-6 -92h-98zM60 840h98l-8 -92h-96z" />
    <glyph glyph-name="uni1E6D" unicode="&#x1e6d;" horiz-adv-x="357" 
d="M21 433l6 70h330l-6 -70h-330zM320 78l-5 -75q-17 -5 -35 -7.5t-37 -2.5q-74 0 -112.5 42t-32.5 124l36 472l94 32l-39 -494q-3 -40 6.5 -61.5t28.5 -29.5t44 -8q13 0 25.5 1.5t26.5 6.5zM153 -91h100l-9 -95h-100z" />
    <glyph glyph-name="uni1E6F" unicode="&#x1e6f;" horiz-adv-x="357" 
d="M21 433l6 70h330l-6 -70h-330zM320 78l-5 -75q-17 -5 -35 -7.5t-37 -2.5q-74 0 -112.5 42t-32.5 124l36 472l94 32l-39 -494q-3 -40 6.5 -61.5t28.5 -29.5t44 -8q13 0 25.5 1.5t26.5 6.5zM44 -171l5 64h304l-5 -64h-304z" />
    <glyph glyph-name="u" unicode="u" horiz-adv-x="581" 
d="M238 -7q-89 0 -133 51t-36 151l24 308h91l-25 -303q-5 -67 21.5 -100t82.5 -33q66 0 105 41t44 112l24 283h90l-40 -503h-88l8 105l13 5q-22 -57 -70.5 -87t-110.5 -30z" />
    <glyph glyph-name="uacute" unicode="&#xfa;" horiz-adv-x="581" 
d="M238 -7q-89 0 -133 51t-36 151l24 308h91l-25 -303q-5 -67 21.5 -100t82.5 -33q66 0 105 41t44 112l24 283h90l-40 -503h-88l8 105l13 5q-22 -57 -70.5 -87t-110.5 -30zM347 568h-62l114 205h105z" />
    <glyph glyph-name="ubreve" unicode="&#x16d;" horiz-adv-x="581" 
d="M238 -7q-89 0 -133 51t-36 151l24 308h91l-25 -303q-5 -67 21.5 -100t82.5 -33q66 0 105 41t44 112l24 283h90l-40 -503h-88l8 105l13 5q-22 -57 -70.5 -87t-110.5 -30zM320 598q-53 0 -98 31t-63 99l56 23q19 -49 47.5 -69t62.5 -20t64 19.5t56 69.5l53 -23
q-26 -71 -75 -100.5t-103 -29.5z" />
    <glyph glyph-name="ucircumflex" unicode="&#xfb;" horiz-adv-x="581" 
d="M238 -7q-89 0 -133 51t-36 151l24 308h91l-25 -303q-5 -67 21.5 -100t82.5 -33q66 0 105 41t44 112l24 283h90l-40 -503h-88l8 105l13 5q-22 -57 -70.5 -87t-110.5 -30zM247 568h-83l138 205h61l105 -205h-80l-60 141z" />
    <glyph glyph-name="uni0215" unicode="&#x215;" horiz-adv-x="581" 
d="M238 -7q-89 0 -133 51t-36 151l24 308h91l-25 -303q-5 -67 21.5 -100t82.5 -33q66 0 105 41t44 112l24 283h90l-40 -503h-88l8 105l13 5q-22 -57 -70.5 -87t-110.5 -30zM356 568l-61 205h77l28 -205h-44zM231 568l-62 205h78l28 -205h-44z" />
    <glyph glyph-name="udieresis" unicode="&#xfc;" horiz-adv-x="581" 
d="M238 -7q-89 0 -133 51t-36 151l24 308h91l-25 -303q-5 -67 21.5 -100t82.5 -33q66 0 105 41t44 112l24 283h90l-40 -503h-88l8 105l13 5q-22 -57 -70.5 -87t-110.5 -30zM367 717h97l-7 -93h-97zM191 717h97l-7 -93h-96z" />
    <glyph glyph-name="uni1EE5" unicode="&#x1ee5;" horiz-adv-x="581" 
d="M238 -7q-89 0 -133 51t-36 151l24 308h91l-25 -303q-5 -67 21.5 -100t82.5 -33q66 0 105 41t44 112l24 283h90l-40 -503h-88l8 105l13 5q-22 -57 -70.5 -87t-110.5 -30zM215 -91h100l-9 -95h-100z" />
    <glyph glyph-name="ugrave" unicode="&#xf9;" horiz-adv-x="581" 
d="M238 -7q-89 0 -133 51t-36 151l24 308h91l-25 -303q-5 -67 21.5 -100t82.5 -33q66 0 105 41t44 112l24 283h90l-40 -503h-88l8 105l13 5q-22 -57 -70.5 -87t-110.5 -30zM285 568l-121 205h96l87 -205h-62z" />
    <glyph glyph-name="uni1EE7" unicode="&#x1ee7;" horiz-adv-x="581" 
d="M238 -7q-89 0 -133 51t-36 151l24 308h91l-25 -303q-5 -67 21.5 -100t82.5 -33q66 0 105 41t44 112l24 283h90l-40 -503h-88l8 105l13 5q-22 -57 -70.5 -87t-110.5 -30zM347 586l-1 -18h-56l2 27q1 21 12.5 36t25 26t24 21.5t10.5 22.5q0 22 -38 22q-13 0 -27 -2.5
t-33 -7.5l-12 48q21 8 42 12t43 4q45 0 70.5 -19t25.5 -48q0 -24 -13 -40t-29.5 -28t-30 -24.5t-15.5 -31.5z" />
    <glyph glyph-name="uhorn" unicode="&#x1b0;" horiz-adv-x="597" 
d="M576 636h80l-2 -28q-3 -46 -24 -81t-56 -54t-81 -20l31 29l-38 -482h-88l8 105l13 5q-22 -57 -70.5 -87t-110.5 -30q-89 0 -133 51t-36 151l24 308h91l-25 -303q-5 -67 21.5 -100t82.5 -33q66 0 105 41t44 112l24 283h25q56 0 83 27.5t31 89.5z" />
    <glyph glyph-name="uni1EE9" unicode="&#x1ee9;" horiz-adv-x="597" 
d="M576 636h80l-2 -28q-3 -46 -24 -81t-56 -54t-81 -20l31 29l-38 -482h-88l8 105l13 5q-22 -57 -70.5 -87t-110.5 -30q-89 0 -133 51t-36 151l24 308h91l-25 -303q-5 -67 21.5 -100t82.5 -33q66 0 105 41t44 112l24 283h25q56 0 83 27.5t31 89.5zM347 568h-62l114 205h105z
" />
    <glyph glyph-name="uni1EF1" unicode="&#x1ef1;" horiz-adv-x="597" 
d="M576 636h80l-2 -28q-3 -46 -24 -81t-56 -54t-81 -20l31 29l-38 -482h-88l8 105l13 5q-22 -57 -70.5 -87t-110.5 -30q-89 0 -133 51t-36 151l24 308h91l-25 -303q-5 -67 21.5 -100t82.5 -33q66 0 105 41t44 112l24 283h25q56 0 83 27.5t31 89.5zM216 -91h100l-9 -95h-100z
" />
    <glyph glyph-name="uni1EEB" unicode="&#x1eeb;" horiz-adv-x="597" 
d="M576 636h80l-2 -28q-3 -46 -24 -81t-56 -54t-81 -20l31 29l-38 -482h-88l8 105l13 5q-22 -57 -70.5 -87t-110.5 -30q-89 0 -133 51t-36 151l24 308h91l-25 -303q-5 -67 21.5 -100t82.5 -33q66 0 105 41t44 112l24 283h25q56 0 83 27.5t31 89.5zM285 568l-121 205h96
l87 -205h-62z" />
    <glyph glyph-name="uni1EED" unicode="&#x1eed;" horiz-adv-x="597" 
d="M576 636h80l-2 -28q-3 -46 -24 -81t-56 -54t-81 -20l31 29l-38 -482h-88l8 105l13 5q-22 -57 -70.5 -87t-110.5 -30q-89 0 -133 51t-36 151l24 308h91l-25 -303q-5 -67 21.5 -100t82.5 -33q66 0 105 41t44 112l24 283h25q56 0 83 27.5t31 89.5zM347 586l-1 -18h-56l2 27
q1 21 12.5 36t25 26t24 21.5t10.5 22.5q0 22 -38 22q-13 0 -27 -2.5t-33 -7.5l-12 48q21 8 42 12t43 4q45 0 70.5 -19t25.5 -48q0 -24 -13 -40t-29.5 -28t-30 -24.5t-15.5 -31.5z" />
    <glyph glyph-name="uni1EEF" unicode="&#x1eef;" horiz-adv-x="597" 
d="M576 636h80l-2 -28q-3 -46 -24 -81t-56 -54t-81 -20l31 29l-38 -482h-88l8 105l13 5q-22 -57 -70.5 -87t-110.5 -30q-89 0 -133 51t-36 151l24 308h91l-25 -303q-5 -67 21.5 -100t82.5 -33q66 0 105 41t44 112l24 283h25q56 0 83 27.5t31 89.5zM155 613q2 41 16 67.5
t36 39.5t48 13q29 0 53 -14.5t46 -28.5t42 -14q21 0 34.5 14.5t14.5 39.5h48q-2 -42 -16 -68.5t-35.5 -39t-47.5 -12.5q-29 0 -53.5 14.5t-46 29t-40.5 14.5q-22 0 -35.5 -14.5t-15.5 -40.5h-48z" />
    <glyph glyph-name="uhungarumlaut" unicode="&#x171;" horiz-adv-x="581" 
d="M238 -7q-89 0 -133 51t-36 151l24 308h91l-25 -303q-5 -67 21.5 -100t82.5 -33q66 0 105 41t44 112l24 283h90l-40 -503h-88l8 105l13 5q-22 -57 -70.5 -87t-110.5 -30zM275 568h-44l59 205h82zM400 568h-44l59 205h82z" />
    <glyph glyph-name="uni0217" unicode="&#x217;" horiz-adv-x="581" 
d="M238 -7q-89 0 -133 51t-36 151l24 308h91l-25 -303q-5 -67 21.5 -100t82.5 -33q66 0 105 41t44 112l24 283h90l-40 -503h-88l8 105l13 5q-22 -57 -70.5 -87t-110.5 -30zM328 749q54 0 98.5 -31.5t62.5 -98.5l-55 -23q-19 49 -48 68.5t-63 19.5q-33 0 -63 -19t-56 -69
l-54 22q18 47 46 76t62 42t70 13z" />
    <glyph glyph-name="umacron" unicode="&#x16b;" horiz-adv-x="581" 
d="M238 -7q-89 0 -133 51t-36 151l24 308h91l-25 -303q-5 -67 21.5 -100t82.5 -33q66 0 105 41t44 112l24 283h90l-40 -503h-88l8 105l13 5q-22 -57 -70.5 -87t-110.5 -30zM169 637l5 67h304l-5 -67h-304z" />
    <glyph glyph-name="uni1E7B" unicode="&#x1e7b;" horiz-adv-x="581" 
d="M238 -7q-89 0 -133 51t-36 151l24 308h91l-25 -303q-5 -67 21.5 -100t82.5 -33q66 0 105 41t44 112l24 283h90l-40 -503h-88l8 105l13 5q-22 -57 -70.5 -87t-110.5 -30zM169 637l5 67h304l-5 -67h-304zM382 913h97l-7 -93h-97zM206 913h97l-7 -93h-96z" />
    <glyph glyph-name="uogonek" unicode="&#x173;" horiz-adv-x="581" 
d="M486 0h-10q-46 0 -70 -24.5t-24 -57.5q0 -30 15.5 -45.5t45.5 -15.5q12 0 28.5 4.5t33.5 13.5l12 -52q-17 -10 -40 -16.5t-47 -6.5q-55 0 -86 29t-31 74q0 49 33.5 85t97.5 49l-21 -37h-25l8 105l13 5q-22 -57 -70.5 -87t-110.5 -30q-89 0 -133 51t-36 151l24 308h91
l-25 -303q-5 -67 21.5 -100t82.5 -33q66 0 105 41t44 112l24 283h90z" />
    <glyph glyph-name="uring" unicode="&#x16f;" horiz-adv-x="581" 
d="M238 -7q-89 0 -133 51t-36 151l24 308h91l-25 -303q-5 -67 21.5 -100t82.5 -33q66 0 105 41t44 112l24 283h90l-40 -503h-88l8 105l13 5q-22 -57 -70.5 -87t-110.5 -30zM324 570q-42 0 -72.5 28.5t-30.5 72.5q0 42 30.5 71.5t72.5 29.5q43 0 73 -29.5t30 -71.5
q0 -44 -30 -72.5t-73 -28.5zM324 620q21 0 34.5 14.5t13.5 36.5q0 21 -13.5 35t-34.5 14t-34.5 -14t-13.5 -35q0 -22 13.5 -36.5t34.5 -14.5z" />
    <glyph glyph-name="utilde" unicode="&#x169;" horiz-adv-x="581" 
d="M238 -7q-89 0 -133 51t-36 151l24 308h91l-25 -303q-5 -67 21.5 -100t82.5 -33q66 0 105 41t44 112l24 283h90l-40 -503h-88l8 105l13 5q-22 -57 -70.5 -87t-110.5 -30zM155 613q2 41 16 67.5t36 39.5t48 13q29 0 53 -14.5t46 -28.5t42 -14q21 0 34.5 14.5t14.5 39.5h48
q-2 -42 -16 -68.5t-35.5 -39t-47.5 -12.5q-29 0 -53.5 14.5t-46 29t-40.5 14.5q-22 0 -35.5 -14.5t-15.5 -40.5h-48z" />
    <glyph glyph-name="uni1E79" unicode="&#x1e79;" horiz-adv-x="581" 
d="M238 -7q-89 0 -133 51t-36 151l24 308h91l-25 -303q-5 -67 21.5 -100t82.5 -33q66 0 105 41t44 112l24 283h90l-40 -503h-88l8 105l13 5q-22 -57 -70.5 -87t-110.5 -30zM155 613q2 41 16 67.5t36 39.5t48 13q29 0 53 -14.5t46 -28.5t42 -14q21 0 34.5 14.5t14.5 39.5h48
q-2 -42 -16 -68.5t-35.5 -39t-47.5 -12.5q-29 0 -53.5 14.5t-46 29t-40.5 14.5q-22 0 -35.5 -14.5t-15.5 -40.5h-48zM362 764h-62l114 205h105z" />
    <glyph glyph-name="v" unicode="v" horiz-adv-x="534" 
d="M205 0l-177 502h92l145 -432h-25l213 432h93l-257 -502h-84z" />
    <glyph glyph-name="w" unicode="w" horiz-adv-x="872" 
d="M192 0l-149 503h92l119 -432h-26l189 432h76l120 -432h-24l187 432h93l-229 -503h-85l-129 443h47l-196 -443h-85z" />
    <glyph glyph-name="wacute" unicode="&#x1e83;" horiz-adv-x="872" 
d="M192 0l-149 503h92l119 -432h-26l189 432h76l120 -432h-24l187 432h93l-229 -503h-85l-129 443h47l-196 -443h-85zM492 568h-62l114 205h105z" />
    <glyph glyph-name="wcircumflex" unicode="&#x175;" horiz-adv-x="872" 
d="M192 0l-149 503h92l119 -432h-26l189 432h76l120 -432h-24l187 432h93l-229 -503h-85l-129 443h47l-196 -443h-85zM392 568h-83l138 205h61l105 -205h-80l-60 141z" />
    <glyph glyph-name="wdieresis" unicode="&#x1e85;" horiz-adv-x="872" 
d="M192 0l-149 503h92l119 -432h-26l189 432h76l120 -432h-24l187 432h93l-229 -503h-85l-129 443h47l-196 -443h-85zM512 717h97l-7 -93h-97zM336 717h97l-7 -93h-96z" />
    <glyph glyph-name="wgrave" unicode="&#x1e81;" horiz-adv-x="872" 
d="M192 0l-149 503h92l119 -432h-26l189 432h76l120 -432h-24l187 432h93l-229 -503h-85l-129 443h47l-196 -443h-85zM430 568l-121 205h96l87 -205h-62z" />
    <glyph glyph-name="x" unicode="x" horiz-adv-x="538" 
d="M403 0l-138 195l-48 65l-179 243h109l126 -178l50 -67l188 -258h-108zM97 0h-111l231 260l56 65l156 178h110l-216 -245l-58 -63z" />
    <glyph glyph-name="y" unicode="y" horiz-adv-x="534" 
d="M214 -28l-186 531h92l145 -433zM17 -227l-14 71q48 10 80 25t54.5 37.5t41.5 58.5l34 64l28 41l212 433h93l-281 -546q-31 -62 -68.5 -99.5t-82 -56.5t-97.5 -28z" />
    <glyph glyph-name="yacute" unicode="&#xfd;" horiz-adv-x="534" 
d="M214 -28l-186 531h92l145 -433zM17 -227l-14 71q48 10 80 25t54.5 37.5t41.5 58.5l34 64l28 41l212 433h93l-281 -546q-31 -62 -68.5 -99.5t-82 -56.5t-97.5 -28zM323 568h-62l114 205h105z" />
    <glyph glyph-name="ycircumflex" unicode="&#x177;" horiz-adv-x="534" 
d="M214 -28l-186 531h92l145 -433zM17 -227l-14 71q48 10 80 25t54.5 37.5t41.5 58.5l34 64l28 41l212 433h93l-281 -546q-31 -62 -68.5 -99.5t-82 -56.5t-97.5 -28zM223 568h-83l138 205h61l105 -205h-80l-60 141z" />
    <glyph glyph-name="ydieresis" unicode="&#xff;" horiz-adv-x="534" 
d="M214 -28l-186 531h92l145 -433zM17 -227l-14 71q48 10 80 25t54.5 37.5t41.5 58.5l34 64l28 41l212 433h93l-281 -546q-31 -62 -68.5 -99.5t-82 -56.5t-97.5 -28zM343 717h97l-7 -93h-97zM167 717h97l-7 -93h-96z" />
    <glyph glyph-name="uni1E8F" unicode="&#x1e8f;" horiz-adv-x="534" 
d="M214 -28l-186 531h92l145 -433zM17 -227l-14 71q48 10 80 25t54.5 37.5t41.5 58.5l34 64l28 41l212 433h93l-281 -546q-31 -62 -68.5 -99.5t-82 -56.5t-97.5 -28zM250 720h108l-8 -99h-109z" />
    <glyph glyph-name="uni1EF5" unicode="&#x1ef5;" horiz-adv-x="534" 
d="M214 -28l-186 531h92l145 -433zM17 -227l-14 71q48 10 80 25t54.5 37.5t41.5 58.5l34 64l28 41l212 433h93l-281 -546q-31 -62 -68.5 -99.5t-82 -56.5t-97.5 -28zM331 -91h100l-9 -95h-100z" />
    <glyph glyph-name="ygrave" unicode="&#x1ef3;" horiz-adv-x="534" 
d="M214 -28l-186 531h92l145 -433zM17 -227l-14 71q48 10 80 25t54.5 37.5t41.5 58.5l34 64l28 41l212 433h93l-281 -546q-31 -62 -68.5 -99.5t-82 -56.5t-97.5 -28zM261 568l-121 205h96l87 -205h-62z" />
    <glyph glyph-name="uni1EF7" unicode="&#x1ef7;" horiz-adv-x="534" 
d="M214 -28l-186 531h92l145 -433zM17 -227l-14 71q48 10 80 25t54.5 37.5t41.5 58.5l34 64l28 41l212 433h93l-281 -546q-31 -62 -68.5 -99.5t-82 -56.5t-97.5 -28zM323 586l-1 -18h-56l2 27q1 21 12.5 36t25 26t24 21.5t10.5 22.5q0 22 -38 22q-13 0 -27 -2.5t-33 -7.5
l-12 48q21 8 42 12t43 4q45 0 70.5 -19t25.5 -48q0 -24 -13 -40t-29.5 -28t-30 -24.5t-15.5 -31.5z" />
    <glyph glyph-name="uni0233" unicode="&#x233;" horiz-adv-x="534" 
d="M214 -28l-186 531h92l145 -433zM17 -227l-14 71q48 10 80 25t54.5 37.5t41.5 58.5l34 64l28 41l212 433h93l-281 -546q-31 -62 -68.5 -99.5t-82 -56.5t-97.5 -28zM145 637l5 67h304l-5 -67h-304z" />
    <glyph glyph-name="uni1EF9" unicode="&#x1ef9;" horiz-adv-x="534" 
d="M214 -28l-186 531h92l145 -433zM17 -227l-14 71q48 10 80 25t54.5 37.5t41.5 58.5l34 64l28 41l212 433h93l-281 -546q-31 -62 -68.5 -99.5t-82 -56.5t-97.5 -28zM131 613q2 41 16 67.5t36 39.5t48 13q29 0 53 -14.5t46 -28.5t42 -14q21 0 34.5 14.5t14.5 39.5h48
q-2 -42 -16 -68.5t-35.5 -39t-47.5 -12.5q-29 0 -53.5 14.5t-46 29t-40.5 14.5q-22 0 -35.5 -14.5t-15.5 -40.5h-48z" />
    <glyph glyph-name="z" unicode="z" horiz-adv-x="520" 
d="M30 0l5 62l365 404l12 -33h-338l6 70h406l-4 -64l-363 -403l-11 34h355l-5 -70h-428z" />
    <glyph glyph-name="zacute" unicode="&#x17a;" horiz-adv-x="520" 
d="M30 0l5 62l365 404l12 -33h-338l6 70h406l-4 -64l-363 -403l-11 34h355l-5 -70h-428zM320 568h-62l114 205h105z" />
    <glyph glyph-name="zcaron" unicode="&#x17e;" horiz-adv-x="520" 
d="M30 0l5 62l365 404l12 -33h-338l6 70h406l-4 -64l-363 -403l-11 34h355l-5 -70h-428zM374 773h83l-137 -205h-61l-105 205h79l60 -141z" />
    <glyph glyph-name="zdotaccent" unicode="&#x17c;" horiz-adv-x="520" 
d="M30 0l5 62l365 404l12 -33h-338l6 70h406l-4 -64l-363 -403l-11 34h355l-5 -70h-428zM247 720h108l-8 -99h-109z" />
    <glyph glyph-name="uni1E93" unicode="&#x1e93;" horiz-adv-x="520" 
d="M30 0l5 62l365 404l12 -33h-338l6 70h406l-4 -64l-363 -403l-11 34h355l-5 -70h-428zM184 -91h100l-9 -95h-100z" />
    <glyph glyph-name="iacute_j.loclNLD" horiz-adv-x="486" 
d="M57 0l40 503h90l-40 -503h-90zM177 568h-62l114 205h105zM156 -136q27 -8 48 -8q23 0 42.5 8.5t32.5 30t16 60.5l45 548h90l-45 -558q-6 -83 -51 -124t-116 -41q-17 0 -34 2t-34 7zM420 568h-62l114 205h105z" />
    <glyph glyph-name="I_J.loclNLD" horiz-adv-x="600" 
d="M67 0l55 712h94l-56 -712h-93zM226 -178l6 79q56 -11 92.5 -5.5t55 34t23.5 85.5l55 697h94l-56 -697q-6 -85 -36.5 -132.5t-88 -61.5t-145.5 1z" />
    <glyph glyph-name="i_j.loclNLD" horiz-adv-x="486" 
d="M57 0l40 503h90l-40 -503h-90zM104 720h108l-8 -99h-109zM156 -136q27 -8 48 -8q23 0 42.5 8.5t32.5 30t16 60.5l45 548h90l-45 -558q-6 -83 -51 -124t-116 -41q-17 0 -34 2t-34 7zM347 720h108l-8 -99h-109z" />
    <glyph glyph-name="ordfeminine" unicode="&#xaa;" horiz-adv-x="334" 
d="M148 410q-44 0 -72 25.5t-28 63.5q0 48 41 68.5t134 20.5h33l-4 -40h-33q-52 0 -73.5 -10t-21.5 -34q0 -16 13 -27.5t33 -11.5q30 0 49.5 19.5t22.5 49.5l5 70q2 27 -11 40t-42 13q-24 0 -50 -7t-50 -22l-14 57q25 14 58.5 23t66.5 9q64 0 93.5 -33.5t23.5 -94.5
l-13 -174h-76l5 65l6 -4q-13 -33 -38 -49.5t-58 -16.5z" />
    <glyph glyph-name="ordmasculine" unicode="&#xba;" horiz-adv-x="350" 
d="M190 410q-66 0 -105.5 39t-39.5 101q0 75 45 121t119 46q67 0 106 -38.5t39 -101.5q0 -76 -45 -121.5t-119 -45.5zM193 474q39 0 60.5 26.5t21.5 74.5q0 38 -17.5 58.5t-50.5 20.5q-40 0 -61 -27.5t-21 -74.5q0 -37 18 -57.5t50 -20.5z" />
    <glyph glyph-name="uni0394" unicode="&#x394;" horiz-adv-x="732" 
d="M685 41l-422 -41l-249 18l231 479l150 215l205 -439zM415 639l-316 -605l-25 44h559l-29 -44l-220 605h31z" />
    <glyph glyph-name="Sigma" unicode="&#x3a3;" horiz-adv-x="591" 
d="M520 -104l-6 -78h-506l6 68l322 418l-2 -71l-260 412l4 67h506l-6 -77h-426l3 43l238 -381l-5 -63l-298 -383l4 45h426z" />
    <glyph glyph-name="uni03A9" unicode="&#x3a9;" horiz-adv-x="792" 
d="M429 721q100 0 172 -34t110.5 -96t38.5 -147q0 -78 -28.5 -147t-82.5 -131t-130 -118l9 29h196l-6 -77h-267l6 74q60 51 107.5 108.5t74 121.5t26.5 134q0 97 -59.5 151t-168.5 54q-84 0 -143.5 -31t-90.5 -88.5t-31 -136.5q0 -80 39.5 -158.5t115.5 -154.5l-6 -74h-267
l6 77h198l3 -29q-94 80 -138.5 164t-44.5 177q0 101 43.5 175.5t124.5 115.5t193 41z" />
    <glyph glyph-name="uni03BC" unicode="&#x3bc;" horiz-adv-x="581" 
d="M526 503l-40 -503h-88l8 105l13 5q-22 -57 -70.5 -87t-110.5 -30q-40 0 -68 11.5t-47 33.5l26 29l-22 -283h-90l56 719h91l-25 -303q-5 -67 21.5 -100t82.5 -33q66 0 105 41t44 112l24 283h90z" />
    <glyph glyph-name="pi" unicode="&#x3c0;" horiz-adv-x="598" 
d="M109 0h-96q30 71 53 147.5t38 158t22 169.5h90q-11 -136 -36 -252.5t-71 -222.5zM19 433l6 70h556l-6 -70h-556zM366 468h91l-21 -276q-5 -63 20.5 -92.5t85.5 -34.5l35 -2l-6 -70l-41 2q-68 4 -111 26.5t-61 66.5t-12 112z" />
    <glyph glyph-name="zero" unicode="0" horiz-adv-x="600" 
d="M294 -8q-117 0 -177.5 79.5t-60.5 232.5q0 132 31 225t91 142t145 49q118 0 179 -79.5t61 -232.5q0 -197 -70.5 -306.5t-198.5 -109.5zM297 68q84 0 128.5 90t44.5 264q0 114 -37 168t-111 54q-84 0 -129 -90t-45 -264q0 -114 37 -168t112 -54z" />
    <glyph glyph-name="one" unicode="1" horiz-adv-x="600" 
d="M264 42l49 611l51 -21l-208 -124l7 87l195 117h53l-53 -670h-94zM105 0l7 77h406l-7 -77h-406z" />
    <glyph glyph-name="two" unicode="2" horiz-adv-x="600" 
d="M61 0l5 70l271 270q38 39 62 72t35 63t11 60q0 50 -32 79.5t-88 29.5q-53 0 -103 -20t-103 -61l-27 70q45 41 107 64t131 23q95 1 151.5 -48t56.5 -136q0 -41 -13.5 -79.5t-44 -79.5t-80.5 -92l-253 -249l-7 41h389l-5 -77h-463z" />
    <glyph glyph-name="three" unicode="3" horiz-adv-x="600" 
d="M279 -7q-71 0 -133 22.5t-108 64.5l39 70q49 -40 98.5 -60.5t105.5 -20.5q73 0 114 35.5t41 100.5q0 60 -37.5 89t-112.5 29h-84l7 77h74q76 0 119.5 37t43.5 101q0 48 -33 77t-89 29q-54 0 -104.5 -20t-100.5 -61l-27 70q44 41 107.5 64t130.5 23q63 1 109 -20.5
t72.5 -61t26.5 -92.5q0 -67 -39.5 -117.5t-107.5 -69.5l2 9q62 -14 98 -55.5t36 -105.5t-30 -112.5t-85.5 -75t-132.5 -26.5z" />
    <glyph glyph-name="four" unicode="4" horiz-adv-x="600" 
d="M352 0l47 599l27 -3l-317 -410l3 41h456l-6 -75h-523l5 69l378 491h78l-57 -712h-91z" />
    <glyph glyph-name="five" unicode="5" horiz-adv-x="600" 
d="M300 -7q-69 0 -130.5 22t-108.5 65l40 70q48 -41 97 -61t102 -20q75 0 119 45t44 120q0 63 -39 101t-103 38q-50 0 -91 -20t-70 -58h-62l32 417h432l-6 -75h-338l-23 -276l-30 5q30 39 76 61t100 22q64 0 112 -26t74.5 -73t26.5 -109q0 -75 -32 -131t-89 -86.5
t-133 -30.5z" />
    <glyph glyph-name="six" unicode="6" horiz-adv-x="600" 
d="M316 -8q-124 0 -191.5 80t-67.5 227q0 129 37 223.5t104 146t158 51.5q63 0 122 -22t106 -65l-39 -70q-46 40 -93.5 60.5t-92.5 20.5q-88 0 -142 -73.5t-65 -213.5l-7 -93l-11 27q11 47 40 82.5t70.5 55.5t90.5 20q65 0 114 -27t76 -76t27 -114q0 -69 -30.5 -123.5
t-83.5 -85.5t-122 -31zM314 68q44 0 77.5 20.5t52 56.5t18.5 84q0 65 -40 104.5t-105 39.5q-44 0 -78.5 -20.5t-54 -56t-19.5 -83.5q0 -64 41 -104.5t108 -40.5z" />
    <glyph glyph-name="seven" unicode="7" horiz-adv-x="600" 
d="M194 0h-99l391 670l5 -35h-397l5 77h476l-6 -69z" />
    <glyph glyph-name="eight" unicode="8" horiz-adv-x="600" 
d="M285 -7q-77 0 -133.5 23t-86 65t-29.5 99q0 77 53 129t147 64l-6 -15q-67 13 -108 58.5t-41 112.5q0 60 30.5 102.5t87.5 65.5t134 23q70 0 121.5 -21.5t80.5 -61t29 -93.5q0 -47 -22 -86t-61.5 -64.5t-92.5 -35.5l-5 15q78 -11 124.5 -59.5t46.5 -119.5q0 -63 -34 -108
t-94.5 -69t-140.5 -24zM287 68q81 0 129 33.5t48 96.5q0 56 -39.5 89.5t-118.5 41.5q-92 -9 -135 -45t-43 -93q0 -61 42.5 -91.5t116.5 -31.5zM311 392q75 9 118 46t43 95q0 54 -38 83t-105 29q-76 0 -117 -31.5t-41 -91.5q-1 -55 37 -88.5t103 -41.5z" />
    <glyph glyph-name="nine" unicode="9" horiz-adv-x="600" 
d="M302 720q125 0 192.5 -80t67.5 -227q0 -129 -37 -223t-104 -146t-158 -52q-63 0 -122.5 22t-106.5 65l40 70q45 -40 93 -60.5t93 -20.5q88 0 142 73.5t64 213.5l7 93l11 -27q-10 -47 -39 -82.5t-70.5 -55.5t-90.5 -20q-65 0 -114 27.5t-76 76t-27 113.5q0 69 30 123.5
t83.5 85.5t121.5 31zM306 644q-45 0 -78.5 -20.5t-52 -56.5t-18.5 -84q0 -65 39.5 -104.5t104.5 -39.5q45 0 79.5 20.5t54 56t19.5 83.5q0 43 -18.5 75.5t-52 51t-77.5 18.5z" />
    <glyph glyph-name="uni2080" unicode="&#x2080;" horiz-adv-x="380" 
d="M180 -3q-74 0 -113.5 49t-39.5 141q0 115 44.5 180t122.5 65q74 0 113.5 -49t39.5 -140q0 -114 -44.5 -180t-122.5 -66zM179 60q43 0 65 49t22 145q0 57 -17.5 86t-53.5 29q-43 0 -64.5 -48.5t-21.5 -142.5q0 -59 17.5 -88.5t52.5 -29.5z" />
    <glyph glyph-name="uni2081" unicode="&#x2081;" horiz-adv-x="380" 
d="M159 38l26 325l36 -5l-114 -65l6 80l97 54h61l-31 -389h-81zM80 0l4 66h235l-5 -66h-234z" />
    <glyph glyph-name="uni2082" unicode="&#x2082;" horiz-adv-x="380" 
d="M32 0l4 60l155 155q30 30 43.5 52.5t13.5 46.5q0 26 -17 39.5t-47 13.5q-26 0 -58 -12t-59 -33l-20 60q28 20 67 34.5t82 14.5q62 0 98 -30.5t36 -80.5q0 -24 -8 -47.5t-26.5 -48t-50.5 -52.5l-137 -131l-3 25h219l-5 -66h-287z" />
    <glyph glyph-name="uni2083" unicode="&#x2083;" horiz-adv-x="380" 
d="M170 -4q-45 0 -85.5 14.5t-68.5 35.5l28 59q31 -22 61 -33.5t61 -11.5q35 0 58 16t23 49q0 32 -19 45.5t-56 13.5h-59l4 64h50q40 0 62 17t22 50q0 26 -17.5 39t-45.5 13q-29 0 -61 -12t-60 -33l-20 60q28 20 67 34.5t82 14.5q63 0 98.5 -29.5t35.5 -75.5
q0 -43 -24 -71.5t-60 -38.5v5q36 -8 57 -32.5t21 -64.5q0 -60 -43 -94t-111 -34z" />
    <glyph glyph-name="uni2084" unicode="&#x2084;" horiz-adv-x="380" 
d="M203 0l26 335l18 2l-172 -219l1 25h277l-5 -62h-331l4 58l227 288h65l-33 -427h-77z" />
    <glyph glyph-name="uni2085" unicode="&#x2085;" horiz-adv-x="380" 
d="M179 -4q-43 0 -83 14t-69 36l29 59q29 -21 57.5 -32.5t58.5 -11.5q42 0 65 21t23 60q0 31 -19.5 49t-54.5 18q-25 0 -48 -9t-42 -25h-46l20 252h270l-5 -65h-194l-10 -136l-19 7q19 21 44.5 30.5t53.5 9.5q57 0 92.5 -33.5t35.5 -92.5q0 -46 -21 -79.5t-57.5 -52.5
t-80.5 -19z" />
    <glyph glyph-name="uni2086" unicode="&#x2086;" horiz-adv-x="380" 
d="M190 -4q-75 0 -117.5 48t-42.5 134q0 76 23.5 132.5t66.5 88.5t102 32q37 0 72.5 -12.5t65.5 -36.5l-28 -60q-54 44 -111 44q-48 0 -76.5 -37.5t-33.5 -106.5l-4 -50l-10 24q12 34 42 54.5t71 20.5q61 0 96.5 -34.5t35.5 -94.5q0 -42 -20 -75t-53.5 -52t-78.5 -19z
M189 57q35 0 56.5 22t21.5 59q0 33 -19 53t-51 20q-37 0 -60 -22t-23 -59q0 -33 21 -53t54 -20z" />
    <glyph glyph-name="uni2087" unicode="&#x2087;" horiz-adv-x="380" 
d="M139 0h-89l226 386l-2 -26h-224l5 67h298l-4 -64z" />
    <glyph glyph-name="uni2088" unicode="&#x2088;" horiz-adv-x="380" 
d="M173 -4q-73 0 -114.5 32t-41.5 83q0 49 32.5 78t85.5 35l-2 -10q-41 8 -65 36t-24 63q0 56 43.5 87t115.5 31q68 0 106.5 -29.5t38.5 -77.5q0 -42 -29 -72t-76 -37l-1 9q46 -7 73 -35t27 -67q0 -62 -48 -94t-121 -32zM174 57q45 0 69 17.5t24 48.5q0 27 -20 45t-62 24
q-47 -8 -69.5 -27t-22.5 -49q0 -28 22.5 -43.5t58.5 -15.5zM191 240q40 8 60.5 27t20.5 47q0 27 -18.5 41.5t-53.5 14.5q-39 0 -60.5 -16.5t-21.5 -43.5q0 -26 18.5 -44t54.5 -26z" />
    <glyph glyph-name="uni2089" unicode="&#x2089;" horiz-adv-x="380" 
d="M185 431q75 0 117 -47.5t42 -134.5q0 -76 -23 -132.5t-66 -88.5t-102 -32q-38 0 -73 12.5t-65 37.5l27 59q28 -21 55.5 -32.5t56.5 -11.5q47 0 76 37.5t34 106.5l4 50l10 -24q-12 -33 -42.5 -53.5t-70.5 -20.5q-61 0 -96.5 34t-35.5 94q0 43 20 76t53.5 51.5t78.5 18.5z
M186 370q-36 0 -57 -22t-21 -59q0 -33 19 -53t51 -20q37 0 59.5 22t22.5 59q0 33 -20.5 53t-53.5 20z" />
    <glyph glyph-name="zero.dnom" horiz-adv-x="380" 
d="M180 -3q-74 0 -113.5 49t-39.5 141q0 115 44.5 180t122.5 65q74 0 113.5 -49t39.5 -140q0 -114 -44.5 -180t-122.5 -66zM179 60q43 0 65 49t22 145q0 57 -17.5 86t-53.5 29q-43 0 -64.5 -48.5t-21.5 -142.5q0 -59 17.5 -88.5t52.5 -29.5z" />
    <glyph glyph-name="one.dnom" horiz-adv-x="380" 
d="M159 38l26 325l36 -5l-114 -65l6 80l97 54h61l-31 -389h-81zM80 0l4 66h235l-5 -66h-234z" />
    <glyph glyph-name="two.dnom" horiz-adv-x="380" 
d="M32 0l4 60l155 155q30 30 43.5 52.5t13.5 46.5q0 26 -17 39.5t-47 13.5q-26 0 -58 -12t-59 -33l-20 60q28 20 67 34.5t82 14.5q62 0 98 -30.5t36 -80.5q0 -24 -8 -47.5t-26.5 -48t-50.5 -52.5l-137 -131l-3 25h219l-5 -66h-287z" />
    <glyph glyph-name="three.dnom" horiz-adv-x="380" 
d="M170 -4q-45 0 -85.5 14.5t-68.5 35.5l28 59q31 -22 61 -33.5t61 -11.5q35 0 58 16t23 49q0 32 -19 45.5t-56 13.5h-59l4 64h50q40 0 62 17t22 50q0 26 -17.5 39t-45.5 13q-29 0 -61 -12t-60 -33l-20 60q28 20 67 34.5t82 14.5q63 0 98.5 -29.5t35.5 -75.5
q0 -43 -24 -71.5t-60 -38.5v5q36 -8 57 -32.5t21 -64.5q0 -60 -43 -94t-111 -34z" />
    <glyph glyph-name="four.dnom" horiz-adv-x="380" 
d="M203 0l26 335l18 2l-172 -219l1 25h277l-5 -62h-331l4 58l227 288h65l-33 -427h-77z" />
    <glyph glyph-name="five.dnom" horiz-adv-x="380" 
d="M179 -4q-43 0 -83 14t-69 36l29 59q29 -21 57.5 -32.5t58.5 -11.5q42 0 65 21t23 60q0 31 -19.5 49t-54.5 18q-25 0 -48 -9t-42 -25h-46l20 252h270l-5 -65h-194l-10 -136l-19 7q19 21 44.5 30.5t53.5 9.5q57 0 92.5 -33.5t35.5 -92.5q0 -46 -21 -79.5t-57.5 -52.5
t-80.5 -19z" />
    <glyph glyph-name="six.dnom" horiz-adv-x="380" 
d="M190 -4q-75 0 -117.5 48t-42.5 134q0 76 23.5 132.5t66.5 88.5t102 32q37 0 72.5 -12.5t65.5 -36.5l-28 -60q-54 44 -111 44q-48 0 -76.5 -37.5t-33.5 -106.5l-4 -50l-10 24q12 34 42 54.5t71 20.5q61 0 96.5 -34.5t35.5 -94.5q0 -42 -20 -75t-53.5 -52t-78.5 -19z
M189 57q35 0 56.5 22t21.5 59q0 33 -19 53t-51 20q-37 0 -60 -22t-23 -59q0 -33 21 -53t54 -20z" />
    <glyph glyph-name="seven.dnom" horiz-adv-x="380" 
d="M139 0h-89l226 386l-2 -26h-224l5 67h298l-4 -64z" />
    <glyph glyph-name="eight.dnom" horiz-adv-x="380" 
d="M173 -4q-73 0 -114.5 32t-41.5 83q0 49 32.5 78t85.5 35l-2 -10q-41 8 -65 36t-24 63q0 56 43.5 87t115.5 31q68 0 106.5 -29.5t38.5 -77.5q0 -42 -29 -72t-76 -37l-1 9q46 -7 73 -35t27 -67q0 -62 -48 -94t-121 -32zM174 57q45 0 69 17.5t24 48.5q0 27 -20 45t-62 24
q-47 -8 -69.5 -27t-22.5 -49q0 -28 22.5 -43.5t58.5 -15.5zM191 240q40 8 60.5 27t20.5 47q0 27 -18.5 41.5t-53.5 14.5q-39 0 -60.5 -16.5t-21.5 -43.5q0 -26 18.5 -44t54.5 -26z" />
    <glyph glyph-name="nine.dnom" horiz-adv-x="380" 
d="M185 431q75 0 117 -47.5t42 -134.5q0 -76 -23 -132.5t-66 -88.5t-102 -32q-38 0 -73 12.5t-65 37.5l27 59q28 -21 55.5 -32.5t56.5 -11.5q47 0 76 37.5t34 106.5l4 50l10 -24q-12 -33 -42.5 -53.5t-70.5 -20.5q-61 0 -96.5 34t-35.5 94q0 43 20 76t53.5 51.5t78.5 18.5z
M186 370q-36 0 -57 -22t-21 -59q0 -33 19 -53t51 -20q37 0 59.5 22t22.5 59q0 33 -20.5 53t-53.5 20z" />
    <glyph glyph-name="zero.numr" horiz-adv-x="380" 
d="M203 282q-74 0 -113.5 49t-39.5 141q0 115 44.5 180t122.5 65q74 0 113.5 -49t39.5 -140q0 -114 -44.5 -180t-122.5 -66zM202 345q43 0 65 49t22 145q0 57 -17.5 86t-53.5 29q-43 0 -64.5 -48.5t-21.5 -142.5q0 -59 17.5 -88.5t52.5 -29.5z" />
    <glyph glyph-name="one.numr" horiz-adv-x="380" 
d="M182 323l26 325l36 -5l-114 -65l6 80l97 54h61l-31 -389h-81zM103 285l4 66h235l-5 -66h-234z" />
    <glyph glyph-name="two.numr" horiz-adv-x="380" 
d="M55 285l4 60l155 155q30 30 43.5 52.5t13.5 46.5q0 26 -17 39.5t-47 13.5q-26 0 -58 -12t-59 -33l-20 60q28 20 67 34.5t82 14.5q62 0 98 -30.5t36 -80.5q0 -24 -8 -47.5t-26.5 -48t-50.5 -52.5l-137 -131l-3 25h219l-5 -66h-287z" />
    <glyph glyph-name="three.numr" horiz-adv-x="380" 
d="M193 281q-45 0 -85.5 14.5t-68.5 35.5l28 59q31 -22 61 -33.5t61 -11.5q35 0 58 16t23 49q0 32 -19 45.5t-56 13.5h-59l4 64h50q40 0 62 17t22 50q0 26 -17.5 39t-45.5 13q-29 0 -61 -12t-60 -33l-20 60q28 20 67 34.5t82 14.5q63 0 98.5 -29.5t35.5 -75.5
q0 -43 -24 -71.5t-60 -38.5v5q36 -8 57 -32.5t21 -64.5q0 -60 -43 -94t-111 -34z" />
    <glyph glyph-name="four.numr" horiz-adv-x="380" 
d="M226 285l26 335l18 2l-172 -219l1 25h277l-5 -62h-331l4 58l227 288h65l-33 -427h-77z" />
    <glyph glyph-name="five.numr" horiz-adv-x="380" 
d="M202 281q-43 0 -83 14t-69 36l29 59q29 -21 57.5 -32.5t58.5 -11.5q42 0 65 21t23 60q0 31 -19.5 49t-54.5 18q-25 0 -48 -9t-42 -25h-46l20 252h270l-5 -65h-194l-10 -136l-19 7q19 21 44.5 30.5t53.5 9.5q57 0 92.5 -33.5t35.5 -92.5q0 -46 -21 -79.5t-57.5 -52.5
t-80.5 -19z" />
    <glyph glyph-name="six.numr" horiz-adv-x="380" 
d="M213 281q-75 0 -117.5 48t-42.5 134q0 76 23.5 132.5t66.5 88.5t102 32q37 0 72.5 -12.5t65.5 -36.5l-28 -60q-54 44 -111 44q-48 0 -76.5 -37.5t-33.5 -106.5l-4 -50l-10 24q12 34 42 54.5t71 20.5q61 0 96.5 -34.5t35.5 -94.5q0 -42 -20 -75t-53.5 -52t-78.5 -19z
M212 342q35 0 56.5 22t21.5 59q0 33 -19 53t-51 20q-37 0 -60 -22t-23 -59q0 -33 21 -53t54 -20z" />
    <glyph glyph-name="seven.numr" horiz-adv-x="380" 
d="M162 285h-89l226 386l-2 -26h-224l5 67h298l-4 -64z" />
    <glyph glyph-name="eight.numr" horiz-adv-x="380" 
d="M196 281q-73 0 -114.5 32t-41.5 83q0 49 32.5 78t85.5 35l-2 -10q-41 8 -65 36t-24 63q0 56 43.5 87t115.5 31q68 0 106.5 -29.5t38.5 -77.5q0 -42 -29 -72t-76 -37l-1 9q46 -7 73 -35t27 -67q0 -62 -48 -94t-121 -32zM197 342q45 0 69 17.5t24 48.5q0 27 -20 45t-62 24
q-47 -8 -69.5 -27t-22.5 -49q0 -28 22.5 -43.5t58.5 -15.5zM214 525q40 8 60.5 27t20.5 47q0 27 -18.5 41.5t-53.5 14.5q-39 0 -60.5 -16.5t-21.5 -43.5q0 -26 18.5 -44t54.5 -26z" />
    <glyph glyph-name="nine.numr" horiz-adv-x="380" 
d="M208 716q75 0 117 -47.5t42 -134.5q0 -76 -23 -132.5t-66 -88.5t-102 -32q-38 0 -73 12.5t-65 37.5l27 59q28 -21 55.5 -32.5t56.5 -11.5q47 0 76 37.5t34 106.5l4 50l10 -24q-12 -33 -42.5 -53.5t-70.5 -20.5q-61 0 -96.5 34t-35.5 94q0 43 20 76t53.5 51.5t78.5 18.5z
M209 655q-36 0 -57 -22t-21 -59q0 -33 19 -53t51 -20q37 0 59.5 22t22.5 59q0 33 -20.5 53t-53.5 20z" />
    <glyph glyph-name="uni2070" unicode="&#x2070;" horiz-adv-x="380" 
d="M203 282q-74 0 -113.5 49t-39.5 141q0 115 44.5 180t122.5 65q74 0 113.5 -49t39.5 -140q0 -114 -44.5 -180t-122.5 -66zM202 345q43 0 65 49t22 145q0 57 -17.5 86t-53.5 29q-43 0 -64.5 -48.5t-21.5 -142.5q0 -59 17.5 -88.5t52.5 -29.5z" />
    <glyph glyph-name="uni00B9" unicode="&#xb9;" horiz-adv-x="380" 
d="M182 323l26 325l36 -5l-114 -65l6 80l97 54h61l-31 -389h-81zM103 285l4 66h235l-5 -66h-234z" />
    <glyph glyph-name="uni00B2" unicode="&#xb2;" horiz-adv-x="380" 
d="M55 285l4 60l155 155q30 30 43.5 52.5t13.5 46.5q0 26 -17 39.5t-47 13.5q-26 0 -58 -12t-59 -33l-20 60q28 20 67 34.5t82 14.5q62 0 98 -30.5t36 -80.5q0 -24 -8 -47.5t-26.5 -48t-50.5 -52.5l-137 -131l-3 25h219l-5 -66h-287z" />
    <glyph glyph-name="uni00B3" unicode="&#xb3;" horiz-adv-x="380" 
d="M193 281q-45 0 -85.5 14.5t-68.5 35.5l28 59q31 -22 61 -33.5t61 -11.5q35 0 58 16t23 49q0 32 -19 45.5t-56 13.5h-59l4 64h50q40 0 62 17t22 50q0 26 -17.5 39t-45.5 13q-29 0 -61 -12t-60 -33l-20 60q28 20 67 34.5t82 14.5q63 0 98.5 -29.5t35.5 -75.5
q0 -43 -24 -71.5t-60 -38.5v5q36 -8 57 -32.5t21 -64.5q0 -60 -43 -94t-111 -34z" />
    <glyph glyph-name="uni2074" unicode="&#x2074;" horiz-adv-x="380" 
d="M226 285l26 335l18 2l-172 -219l1 25h277l-5 -62h-331l4 58l227 288h65l-33 -427h-77z" />
    <glyph glyph-name="uni2075" unicode="&#x2075;" horiz-adv-x="380" 
d="M202 281q-43 0 -83 14t-69 36l29 59q29 -21 57.5 -32.5t58.5 -11.5q42 0 65 21t23 60q0 31 -19.5 49t-54.5 18q-25 0 -48 -9t-42 -25h-46l20 252h270l-5 -65h-194l-10 -136l-19 7q19 21 44.5 30.5t53.5 9.5q57 0 92.5 -33.5t35.5 -92.5q0 -46 -21 -79.5t-57.5 -52.5
t-80.5 -19z" />
    <glyph glyph-name="uni2076" unicode="&#x2076;" horiz-adv-x="380" 
d="M213 281q-75 0 -117.5 48t-42.5 134q0 76 23.5 132.5t66.5 88.5t102 32q37 0 72.5 -12.5t65.5 -36.5l-28 -60q-54 44 -111 44q-48 0 -76.5 -37.5t-33.5 -106.5l-4 -50l-10 24q12 34 42 54.5t71 20.5q61 0 96.5 -34.5t35.5 -94.5q0 -42 -20 -75t-53.5 -52t-78.5 -19z
M212 342q35 0 56.5 22t21.5 59q0 33 -19 53t-51 20q-37 0 -60 -22t-23 -59q0 -33 21 -53t54 -20z" />
    <glyph glyph-name="uni2077" unicode="&#x2077;" horiz-adv-x="380" 
d="M162 285h-89l226 386l-2 -26h-224l5 67h298l-4 -64z" />
    <glyph glyph-name="uni2078" unicode="&#x2078;" horiz-adv-x="380" 
d="M196 281q-73 0 -114.5 32t-41.5 83q0 49 32.5 78t85.5 35l-2 -10q-41 8 -65 36t-24 63q0 56 43.5 87t115.5 31q68 0 106.5 -29.5t38.5 -77.5q0 -42 -29 -72t-76 -37l-1 9q46 -7 73 -35t27 -67q0 -62 -48 -94t-121 -32zM197 342q45 0 69 17.5t24 48.5q0 27 -20 45t-62 24
q-47 -8 -69.5 -27t-22.5 -49q0 -28 22.5 -43.5t58.5 -15.5zM214 525q40 8 60.5 27t20.5 47q0 27 -18.5 41.5t-53.5 14.5q-39 0 -60.5 -16.5t-21.5 -43.5q0 -26 18.5 -44t54.5 -26z" />
    <glyph glyph-name="uni2079" unicode="&#x2079;" horiz-adv-x="380" 
d="M208 716q75 0 117 -47.5t42 -134.5q0 -76 -23 -132.5t-66 -88.5t-102 -32q-38 0 -73 12.5t-65 37.5l27 59q28 -21 55.5 -32.5t56.5 -11.5q47 0 76 37.5t34 106.5l4 50l10 -24q-12 -33 -42.5 -53.5t-70.5 -20.5q-61 0 -96.5 34t-35.5 94q0 43 20 76t53.5 51.5t78.5 18.5z
M209 655q-36 0 -57 -22t-21 -59q0 -33 19 -53t51 -20q37 0 59.5 22t22.5 59q0 33 -20.5 53t-53.5 20z" />
    <glyph glyph-name="fraction" unicode="&#x2044;" horiz-adv-x="179" 
d="M-109 -26l-60 41l475 723l59 -41z" />
    <glyph glyph-name="onehalf" unicode="&#xbd;" horiz-adv-x="939" 
d="M182 323l26 325l36 -5l-114 -65l6 80l97 54h61l-31 -389h-81zM103 285l4 66h235l-5 -66h-234zM271 -26l-60 41l475 723l59 -41zM591 0l4 60l155 155q30 30 43.5 52.5t13.5 46.5q0 26 -17 39.5t-47 13.5q-26 0 -58 -12t-59 -33l-20 60q28 20 67 34.5t82 14.5
q62 0 98 -30.5t36 -80.5q0 -24 -8 -47.5t-26.5 -48t-50.5 -52.5l-137 -131l-3 25h219l-5 -66h-287z" />
    <glyph glyph-name="onequarter" unicode="&#xbc;" horiz-adv-x="939" 
d="M182 323l26 325l36 -5l-114 -65l6 80l97 54h61l-31 -389h-81zM103 285l4 66h235l-5 -66h-234zM271 -26l-60 41l475 723l59 -41zM762 0l26 335l18 2l-172 -219l1 25h277l-5 -62h-331l4 58l227 288h65l-33 -427h-77z" />
    <glyph glyph-name="threequarters" unicode="&#xbe;" horiz-adv-x="939" 
d="M193 281q-45 0 -85.5 14.5t-68.5 35.5l28 59q31 -22 61 -33.5t61 -11.5q35 0 58 16t23 49q0 32 -19 45.5t-56 13.5h-59l4 64h50q40 0 62 17t22 50q0 26 -17.5 39t-45.5 13q-29 0 -61 -12t-60 -33l-20 60q28 20 67 34.5t82 14.5q63 0 98.5 -29.5t35.5 -75.5
q0 -43 -24 -71.5t-60 -38.5v5q36 -8 57 -32.5t21 -64.5q0 -60 -43 -94t-111 -34zM271 -26l-60 41l475 723l59 -41zM762 0l26 335l18 2l-172 -219l1 25h277l-5 -62h-331l4 58l227 288h65l-33 -427h-77z" />
    <glyph glyph-name="period" unicode="." horiz-adv-x="235" 
d="M52 111h110l-8 -111h-111z" />
    <glyph glyph-name="comma" unicode="," horiz-adv-x="235" 
d="M80 -119l-39 31q30 30 42 55t14 52l25 -19h-79l9 111h110l-5 -77q-4 -44 -21 -80.5t-56 -72.5z" />
    <glyph glyph-name="colon" unicode=":" horiz-adv-x="236" 
d="M52 111h111l-8 -111h-112zM82 492h111l-8 -112h-112z" />
    <glyph glyph-name="semicolon" unicode=";" horiz-adv-x="235" 
d="M82 492h111l-8 -112h-112zM80 -119l-39 31q30 30 42 55t14 52l25 -19h-79l9 111h110l-5 -77q-4 -44 -21 -80.5t-56 -72.5z" />
    <glyph glyph-name="ellipsis" unicode="&#x2026;" horiz-adv-x="707" 
d="M52 111h110l-8 -111h-111zM287 111h112l-9 -111h-112zM522 111h112l-9 -111h-111z" />
    <glyph glyph-name="exclam" unicode="!" horiz-adv-x="235" 
d="M85 193l12 519h114l-70 -519h-56zM52 111h110l-8 -111h-111z" />
    <glyph glyph-name="exclamdown" unicode="&#xa1;" horiz-adv-x="235" 
d="M94 299h56l-10 -481h-113zM73 380l8 112h111l-8 -112h-111z" />
    <glyph glyph-name="question" unicode="?" horiz-adv-x="451" 
d="M180 191l3 29q4 53 23 91t44.5 68.5t50.5 58t41.5 56.5t16.5 67q0 39 -27 61t-75 22q-35 0 -69.5 -10.5t-71.5 -31.5l6 83q33 18 72 26.5t74 8.5q57 0 98.5 -18t64.5 -51.5t23 -78.5q0 -48 -19 -85t-48.5 -67.5t-60.5 -61t-55 -65.5t-32 -81l-4 -21h-55zM138 0l8 111h111
l-8 -111h-111z" />
    <glyph glyph-name="questiondown" unicode="&#xbf;" horiz-adv-x="451" 
d="M193 380l9 112h111l-9 -112h-111zM331 -155q-33 -17 -69.5 -25.5t-70.5 -8.5q-59 0 -102.5 19t-66.5 52.5t-23 76.5q0 47 19 80t48 59.5t60 52t54 56.5t31 74l5 20h54l-2 -29q-3 -50 -22 -84.5t-44.5 -60.5t-50.5 -49t-41.5 -48t-16.5 -61q0 -37 28 -59t77 -22
q33 0 68.5 10.5t70.5 30.5z" />
    <glyph glyph-name="periodcentered" unicode="&#xb7;" horiz-adv-x="236" 
d="M69 324h111l-9 -111h-111z" />
    <glyph glyph-name="bullet" unicode="&#x2022;" horiz-adv-x="529" 
d="M266 89q-49 0 -91 23.5t-67 64.5t-25 91q0 46 23.5 87t65 66.5t94.5 25.5q49 0 90 -23.5t66.5 -63.5t25.5 -92q0 -49 -24.5 -90t-66 -65t-91.5 -24z" />
    <glyph glyph-name="asterisk" unicode="*" horiz-adv-x="455" 
d="M150 358l-52 40l105 122l-146 43l26 65l141 -53l7 154h68l-18 -155l149 54l17 -65l-153 -43l87 -122l-59 -40l-75 129z" />
    <glyph glyph-name="numbersign" unicode="#" horiz-adv-x="606" 
d="M291 0l196 712h68l-195 -712h-69zM32 182l4 64h512l-5 -64h-511zM68 0l196 712h68l-194 -712h-70zM77 475l4 63h511l-4 -63h-511z" />
    <glyph glyph-name="slash" unicode="/" horiz-adv-x="292" 
d="M35 -56h-80l319 806h81z" />
    <glyph glyph-name="backslash" unicode="\" horiz-adv-x="292" 
d="M210 -56l-193 806h81l193 -806h-81z" />
    <glyph glyph-name="periodcentered.loclCAT" horiz-adv-x="303" 
d="M101 308h111l-8 -101h-111z" />
    <glyph glyph-name="parenleft" unicode="(" horiz-adv-x="326" 
d="M187 -182q-35 78 -55 152t-26 147t0 149t23.5 149.5t48.5 147t78 149.5h77q-45 -89 -72.5 -165t-41.5 -145t-19 -136q-5 -68 -2 -137t18 -145.5t44 -165.5h-73z" />
    <glyph glyph-name="parenright" unicode=")" horiz-adv-x="327" 
d="M72 -182h-76q45 89 72 165.5t41.5 145.5t20.5 137q5 67 1.5 136t-18.5 145t-45 165h75q53 -115 71.5 -224t9.5 -222q-6 -76 -23.5 -149t-49.5 -147t-79 -152z" />
    <glyph glyph-name="braceleft" unicode="{" horiz-adv-x="362" 
d="M261 -182q-72 0 -107 36.5t-30 104.5l14 182q4 45 -9.5 66t-52.5 30l-28 8l4 41l30 8q39 8 56.5 29.5t20.5 66.5l14 181q5 69 47.5 105t110.5 36h59l-5 -71h-50q-29 0 -50 -21t-24 -62l-14 -185q-3 -37 -19.5 -61t-38.5 -36t-43 -12v4q21 0 41.5 -12.5t33.5 -37t10 -60.5
l-15 -186q-4 -41 13 -61.5t47 -20.5h50l-6 -72h-59z" />
    <glyph glyph-name="braceright" unicode="}" horiz-adv-x="362" 
d="M35 -182h-59l5 72h49q29 0 49.5 20.5t24.5 61.5l14 186q3 36 20 60.5t39 37t44 12.5l-1 -4q-21 0 -41.5 12t-33 36t-9.5 61l15 185q3 41 -15 62t-47 21h-50l6 71h60q67 0 104.5 -36t32.5 -105l-15 -181q-4 -45 10 -66.5t52 -29.5l29 -8l-3 -41l-31 -8q-39 -9 -55.5 -30
t-20.5 -66l-14 -182q-6 -68 -46.5 -104.5t-112.5 -36.5z" />
    <glyph glyph-name="bracketleft" unicode="[" horiz-adv-x="325" 
d="M76 -182l70 894h206l-4 -71h-117l-60 -751h117l-5 -72h-207z" />
    <glyph glyph-name="bracketright" unicode="]" horiz-adv-x="325" 
d="M181 -182h-205l5 72h116l60 751h-118l6 71h206z" />
    <glyph glyph-name="hyphen" unicode="-" horiz-adv-x="431" 
d="M72 232l5 74h286l-5 -74h-286z" />
    <glyph glyph-name="uni00AD" unicode="&#xad;" horiz-adv-x="431" 
d="M72 232l5 74h286l-5 -74h-286z" />
    <glyph glyph-name="endash" unicode="&#x2013;" horiz-adv-x="505" 
d="M-1 240l5 58h505l-5 -58h-505z" />
    <glyph glyph-name="emdash" unicode="&#x2014;" horiz-adv-x="1010" 
d="M-1 240l5 58h1010l-5 -58h-1010z" />
    <glyph glyph-name="figuredash" unicode="&#x2012;" horiz-adv-x="606" 
d="M72 240l4 58h461l-4 -58h-461z" />
    <glyph glyph-name="uni2015" unicode="&#x2015;" horiz-adv-x="1010" 
d="M-1 240l5 58h1010l-5 -58h-1010z" />
    <glyph glyph-name="uni2010" unicode="&#x2010;" horiz-adv-x="431" 
d="M72 232l5 74h286l-5 -74h-286z" />
    <glyph glyph-name="underscore" unicode="_" horiz-adv-x="505" 
d="M-15 -58l5 58h487l-4 -58h-488z" />
    <glyph glyph-name="quotesinglbase" unicode="&#x201a;" horiz-adv-x="235" 
d="M80 -119l-39 31q30 30 42 55t14 52l25 -19h-79l9 111h110l-5 -77q-4 -44 -21 -80.5t-56 -72.5z" />
    <glyph glyph-name="quotedblbase" unicode="&#x201e;" horiz-adv-x="409" 
d="M80 -119l-39 31q30 30 42 55t14 52l25 -19h-79l9 111h110l-5 -77q-4 -44 -21 -80.5t-56 -72.5zM254 -119l-39 31q30 30 42 55t14 52l25 -19h-79l9 111h110l-5 -77q-4 -44 -21 -80.5t-56 -72.5z" />
    <glyph glyph-name="quotedblleft" unicode="&#x201c;" horiz-adv-x="409" 
d="M165 718l38 -32q-30 -29 -42 -54.5t-14 -52.5l-25 20h80l-10 -112h-111l6 77q4 44 21.5 81t56.5 73zM339 718l38 -32q-30 -29 -42 -54.5t-14 -52.5l-25 20h80l-10 -112h-111l6 77q4 44 21.5 81t56.5 73z" />
    <glyph glyph-name="quotedblright" unicode="&#x201d;" horiz-adv-x="409" 
d="M126 481l-37 32q30 30 42 55t14 52l24 -19h-79l8 111h112l-6 -77q-3 -44 -20 -80.5t-58 -73.5zM300 481l-37 32q30 30 42 55t14 52l24 -19h-79l8 111h112l-6 -77q-3 -44 -20 -80.5t-58 -73.5z" />
    <glyph glyph-name="quoteleft" unicode="&#x2018;" horiz-adv-x="235" 
d="M165 718l38 -32q-30 -29 -42 -54.5t-14 -52.5l-25 20h80l-10 -112h-111l6 77q4 44 21.5 81t56.5 73z" />
    <glyph glyph-name="quoteright" unicode="&#x2019;" horiz-adv-x="235" 
d="M126 481l-37 32q30 30 42 55t14 52l24 -19h-79l8 111h112l-6 -77q-3 -44 -20 -80.5t-58 -73.5z" />
    <glyph glyph-name="guillemotleft" unicode="&#xab;" horiz-adv-x="457" 
d="M145 88l-118 179l149 181h82l-143 -180l112 -180h-82zM334 88l-118 179l149 181h82l-143 -180l112 -180h-82z" />
    <glyph glyph-name="guillemotright" unicode="&#xbb;" horiz-adv-x="456" 
d="M98 88h-81l141 180l-116 180h84l118 -181zM287 88h-81l141 180l-116 180h84l118 -181z" />
    <glyph glyph-name="guilsinglleft" unicode="&#x2039;" horiz-adv-x="268" 
d="M145 88l-118 179l149 181h82l-143 -180l112 -180h-82z" />
    <glyph glyph-name="guilsinglright" unicode="&#x203a;" horiz-adv-x="267" 
d="M98 88h-81l141 180l-116 180h84l118 -181z" />
    <glyph glyph-name="quotedbl" unicode="&#x22;" horiz-adv-x="431" 
d="M99 429l-2 283h107l-45 -283h-60zM303 429l-2 283h107l-45 -283h-60z" />
    <glyph glyph-name="quotesingle" unicode="'" horiz-adv-x="227" 
d="M99 429l-2 283h107l-45 -283h-60z" />
    <glyph glyph-name="uni2007" unicode="&#x2007;" horiz-adv-x="606" 
 />
    <glyph glyph-name="uni200A" unicode="&#x200a;" horiz-adv-x="101" 
 />
    <glyph glyph-name="uni2008" unicode="&#x2008;" horiz-adv-x="235" 
 />
    <glyph glyph-name="space" unicode=" " horiz-adv-x="264" 
 />
    <glyph glyph-name="uni00A0" unicode="&#xa0;" horiz-adv-x="264" 
 />
    <glyph glyph-name="uni2009" unicode="&#x2009;" horiz-adv-x="202" 
 />
    <glyph glyph-name="uni200B" unicode="&#x200b;" 
 />
    <glyph glyph-name="CR" unicode="&#xd;" horiz-adv-x="264" 
 />
    <glyph glyph-name="uni20B5" unicode="&#x20b5;" horiz-adv-x="600" 
d="M348 -8q-91 0 -154.5 42.5t-96 117t-32.5 171.5q0 83 20 155t58.5 126.5t96.5 85t133 30.5q70 0 126.5 -23t99.5 -66l-40 -70q-45 43 -88 62t-95 19q-56 0 -97 -26t-67.5 -71t-39.5 -103t-13 -122q0 -117 50 -183.5t141 -66.5q38 0 85.5 18.5t91.5 62.5l29 -70
q-27 -29 -64 -49t-75 -30t-69 -10zM284 -116l74 944h77l-75 -944h-76z" />
    <glyph glyph-name="cent" unicode="&#xa2;" horiz-adv-x="620" 
d="M329 -7q-72 0 -125.5 30t-82.5 84.5t-29 128.5q0 85 31.5 148t90 97.5t138.5 34.5q56 0 102.5 -17.5t81.5 -48.5l-35 -65q-36 28 -72 42.5t-76 14.5q-81 0 -124 -55t-43 -152q0 -79 39.5 -123.5t110.5 -44.5q41 0 75 14t70 43l25 -66q-34 -30 -80 -47.5t-97 -17.5z
M273 -119l59 745h76l-59 -745h-76z" />
    <glyph glyph-name="colonmonetary" unicode="&#x20a1;" horiz-adv-x="600" 
d="M348 -8q-91 0 -154.5 42.5t-96 117t-32.5 171.5q0 83 20 155t58.5 126.5t96.5 85t133 30.5q70 0 126.5 -23t99.5 -66l-40 -70q-45 43 -88 62t-95 19q-56 0 -97 -26t-67.5 -71t-39.5 -103t-13 -122q0 -117 50 -183.5t141 -66.5q38 0 85.5 18.5t91.5 62.5l29 -70
q-27 -29 -64 -49t-75 -30t-69 -10zM68 -72l-60 25l113 238l44 -60zM200 -125l-60 25l75 157l63 -17zM354 679l70 149h71l-71 -149h-70zM550 613l-52 39l85 176h71z" />
    <glyph glyph-name="currency" unicode="&#xa4;" horiz-adv-x="600" 
d="M301 -3q-67 0 -122.5 34t-88 90.5t-32.5 125.5q0 70 32.5 126.5t88 90.5t122.5 34t122 -34t88 -90.5t33 -126.5q0 -69 -33 -125.5t-88 -90.5t-122 -34zM97 -6l-44 44l90 93l42 -48zM502 -6l-87 89l44 46l88 -91zM300 71q46 0 83.5 24t59.5 64t22 88q0 49 -22 89
t-59.5 63.5t-83.5 23.5q-45 0 -82.5 -23.5t-60 -63.5t-22.5 -89q0 -48 22.5 -88t59.5 -64t83 -24zM132 374l-79 82l45 46l78 -82zM468 374l-46 47l79 81l46 -46z" />
    <glyph glyph-name="dollar" unicode="$" horiz-adv-x="600" 
d="M297 -9q-87 1 -153.5 23t-114.5 68l40 70q49 -45 103 -64t124 -19q79 0 121 33t42 90q0 33 -20.5 54t-55 35t-75 26t-81.5 26.5t-75 36t-54.5 55t-20.5 84.5q0 62 32 110t89 74.5t130 26.5q80 0 144.5 -22.5t105.5 -65.5l-40 -70q-82 81 -212 81q-71 0 -113 -34.5
t-42 -91.5q0 -37 21 -60t55 -38.5t74.5 -27.5t81.5 -26t75 -34t55 -52t21 -80q0 -62 -32 -109t-90 -73t-135 -26zM243 -116l9 124l8 44l48 617l-1 37l11 122h77l-9 -122l-8 -37l-48 -617v-44l-11 -124h-76z" />
    <glyph glyph-name="dong" unicode="&#x20ab;" horiz-adv-x="600" 
d="M249 -6q-58 0 -102 28.5t-68 79.5t-24 119q0 84 28.5 147.5t79 99t117.5 35.5q60 0 102 -31t55 -85l-12 -18l27 343h91l-57 -712h-90l10 129l10 -13q-22 -58 -65.5 -90t-101.5 -32zM44 -142l4 61h433l-5 -61h-432zM271 68q67 0 106 56t39 153q0 72 -31 111.5t-88 39.5
q-45 0 -78.5 -25t-52 -70.5t-18.5 -108.5q0 -71 34.5 -113.5t88.5 -42.5zM288 561l4 61h316l-4 -61h-316z" />
    <glyph glyph-name="Euro" unicode="&#x20ac;" horiz-adv-x="600" 
d="M370 -8q-121 0 -187 83.5t-66 236.5q0 128 34 219.5t97.5 140t152.5 48.5q67 0 122 -22.5t95 -66.5l-40 -70q-39 41 -83 61t-93 20q-94 0 -143 -89t-49 -253q0 -116 40.5 -173t121.5 -57q39 0 84 20.5t90 60.5l29 -70q-27 -26 -62.5 -46.5t-73 -31.5t-69.5 -11zM14 248
l6 64h368l-5 -64h-369zM26 401l6 64h369l-6 -64h-369z" />
    <glyph glyph-name="florin" unicode="&#x192;" horiz-adv-x="600" 
d="M2 -187l7 74h47q45 0 74 23t44 76l165 562q17 58 46.5 95.5t70.5 55t89 17.5h55l-6 -73h-47q-47 0 -75.5 -23t-42.5 -76l-165 -562q-17 -58 -47 -96t-70.5 -55.5t-89.5 -17.5h-55zM184 431l5 63h347l-4 -63h-348z" />
    <glyph glyph-name="franc" unicode="&#x20a3;" horiz-adv-x="600" 
d="M49 0l56 712h425l-7 -77h-334l-18 -234h199l-6 -78h-201l-24 -323h-90zM328 0l38 492h84l-11 -136l-10 25q23 63 66 90.5t97 27.5h16l-6 -77h-20q-46 0 -77 -19t-47.5 -52t-19.5 -74l-22 -277h-88z" />
    <glyph glyph-name="uni20B2" unicode="&#x20b2;" horiz-adv-x="600" 
d="M338 -8q-90 0 -153 42t-96 116t-33 173q0 84 20 157t59.5 127t96.5 83.5t132 29.5q68 0 125 -22.5t101 -66.5l-40 -70q-45 43 -88.5 62t-94.5 19q-54 0 -94.5 -24t-68 -68t-41 -102.5t-13.5 -127.5q0 -119 50.5 -185.5t141.5 -66.5q33 0 68.5 9t69.5 25l-24 -43l18 244
h-141l5 71h227l-27 -331q-31 -16 -67 -27.5t-70 -17.5t-63 -6zM273 -116l11 134h76l-10 -134h-77zM336 694l11 134h77l-11 -134h-77z" />
    <glyph glyph-name="uni20AD" unicode="&#x20ad;" horiz-adv-x="600" 
d="M20 325l6 63h537l-6 -63h-537zM467 0l-291 357l341 355h109l-370 -383l5 57l310 -386h-104zM88 0l56 712h91l-55 -712h-92z" />
    <glyph glyph-name="lira" unicode="&#x20a4;" horiz-adv-x="600" 
d="M45 248l5 64h367l-4 -64h-368zM57 401l5 64h367l-4 -64h-368zM254 518l-22 -291q-4 -49 -16.5 -81t-38 -53.5t-67.5 -35.5l2 20h439l-6 -77h-520l5 64q54 24 78.5 56.5t28.5 85.5l24 319q5 60 33 104t75 67.5t110 23.5t121 -22.5t100 -65.5l-40 -70q-41 40 -88 61t-93 21
q-56 0 -88.5 -32t-36.5 -94z" />
    <glyph glyph-name="uni20BA" unicode="&#x20ba;" horiz-adv-x="600" 
d="M140 17l53 695h94l-50 -631q18 -5 37 -8t44 -3q51 0 103 17.5t106 61.5l29 -69q-52 -45 -116 -66.5t-138 -21.5q-85 0 -162 25zM65 277l6 74l385 206l-6 -75zM78 444l6 74l385 205l-5 -74z" />
    <glyph glyph-name="uni20BC" unicode="&#x20bc;" horiz-adv-x="600" 
d="M33 0q15 196 39.5 333t60.5 222t86.5 124.5t118.5 39.5t113 -39.5t68 -124.5t25.5 -222t-12.5 -333h-91q11 147 14.5 255t-2 183t-20.5 120.5t-39.5 66t-61.5 20.5q-35 0 -63 -20.5t-50 -66t-39 -120.5t-30.5 -183.5t-25.5 -254.5h-91zM270 334l27 330v30l10 134h79
l-12 -134l-4 -30l-26 -330h-74z" />
    <glyph glyph-name="uni20A6" unicode="&#x20a6;" horiz-adv-x="600" 
d="M88 0l56 712h77l204 -582l-22 -14l47 596h80l-56 -712h-76l-208 571l25 24l-47 -595h-80zM14 249l6 63h135l-7 -63h-134zM26 402l5 64h135l-5 -64h-135zM447 249l5 63h140l-6 -63h-139zM459 402l5 64h139l-5 -64h-139z" />
    <glyph glyph-name="peseta" unicode="&#x20a7;" horiz-adv-x="1200" 
d="M62 0l57 712h170q69 0 117 -24.5t73.5 -71t25.5 -114.5q0 -77 -31.5 -133.5t-87.5 -87.5t-132 -31h-80l-21 -250h-91zM179 324h76q81 0 120.5 44t39.5 129q0 74 -33 107t-102 33h-76zM466 421l6 71h318l-5 -70zM953 -7q-61 0 -110.5 16.5t-82.5 47.5l34 66q41 -30 79 -44
t83 -14q52 0 82.5 19.5t30.5 55.5q1 29 -24 44t-93 30q-81 18 -116.5 51.5t-35.5 81.5t25.5 83t70 54.5t103.5 19.5q50 0 96 -17t76 -47l-34 -65q-37 29 -73 42.5t-71 13.5q-48 0 -76 -22t-28 -58q0 -26 23 -40.5t82 -28.5q90 -22 126.5 -52t36.5 -82q0 -50 -27 -84.5
t-73 -52.5t-104 -18zM579 641h91l-36 -464q-8 -113 94 -113q23 0 46 3l-10 -70q-26 -4 -51 -4q-89 0 -134 45.5t-37 133.5z" />
    <glyph glyph-name="uni20B1" unicode="&#x20b1;" horiz-adv-x="600" 
d="M88 0l55 712h167q105 0 162 -55t57 -159q0 -74 -29.5 -130t-85.5 -87t-136 -31h-79l-21 -250h-90zM24 373l5 63h135l-5 -63h-135zM36 525l5 65h135l-5 -65h-135zM204 324h76q82 0 121 44.5t39 128.5q0 74 -34 107t-104 33h-73zM457 373l5 63h140l-6 -63h-139zM469 525
l5 65h140l-6 -65h-139z" />
    <glyph glyph-name="uni20BD" unicode="&#x20bd;" horiz-adv-x="600" 
d="M6 151l6 62h361l-6 -62h-361zM178 0h-90l55 712h225q112 0 172 -49.5t60 -138.5q0 -67 -30 -116.5t-84 -77t-126 -27.5h-342l6 64h325q76 0 118.5 37.5t42.5 111.5q0 61 -38 92t-118 31h-125z" />
    <glyph glyph-name="uni20B9" unicode="&#x20b9;" horiz-adv-x="600" 
d="M418 0l-133 228q-23 40 -48 55t-70 15h-145l6 77h217q83 0 125.5 38t42.5 116q0 119 -146 119h-82l5 50h86q110 0 169.5 -43.5t59.5 -135.5q0 -64 -31 -112.5t-85 -75.5t-126 -27l-7 10q49 0 79.5 -19t57.5 -64l136 -231h-111zM38 495l5 65h563l-5 -65h-563zM51 648l5 64
h562l-5 -64h-562z" />
    <glyph glyph-name="sterling" unicode="&#xa3;" horiz-adv-x="600" 
d="M51 325l5 63h367l-4 -63h-368zM254 518l-22 -291q-4 -49 -16.5 -81t-38 -53.5t-67.5 -35.5l2 20h439l-6 -77h-520l5 64q54 24 78.5 56.5t28.5 85.5l24 319q5 60 33 104t75 67.5t110 23.5t121 -22.5t100 -65.5l-40 -70q-41 40 -88 61t-93 21q-56 0 -88.5 -32t-36.5 -94z
" />
    <glyph glyph-name="uni20A9" unicode="&#x20a9;" horiz-adv-x="600" 
d="M130 0l-38 712h77l21 -608h-33l150 608h60l53 -608h-33l116 608h79l-151 -712h-60l-58 617h32l-154 -617h-61zM14 249l6 63h135l-7 -63h-134zM26 402l5 64h122l-5 -64h-122zM447 249l5 63h140l-6 -63h-139zM472 402l4 64h127l-5 -64h-126z" />
    <glyph glyph-name="yen" unicode="&#xa5;" horiz-adv-x="600" 
d="M235 0l29 382l16 -70l-254 400h103l192 -312h-22l245 312h103l-315 -399l25 69l-30 -382h-92zM64 175l5 63h461l-5 -63h-461zM76 327l5 64h461l-5 -64h-461z" />
    <glyph glyph-name="uni2219" unicode="&#x2219;" horiz-adv-x="600" 
d="M251 324h111l-9 -111h-111z" />
    <glyph glyph-name="uni2215" unicode="&#x2215;" horiz-adv-x="600" 
d="M184 -68l-71 25l319 805l74 -24z" />
    <glyph glyph-name="plus" unicode="+" horiz-adv-x="600" 
d="M552 322l-6 -69h-491l5 69h492zM289 534h68l-39 -493h-68z" />
    <glyph glyph-name="minus" unicode="&#x2212;" horiz-adv-x="600" 
d="M552 322l-6 -69h-491l5 69h492z" />
    <glyph glyph-name="multiply" unicode="&#xd7;" horiz-adv-x="600" 
d="M490 524l44 -48l-417 -424l-45 47zM134 524l390 -425l-51 -47l-391 424z" />
    <glyph glyph-name="divide" unicode="&#xf7;" horiz-adv-x="600" 
d="M260 437l8 99h99l-8 -99h-99zM228 37l8 100h98l-8 -100h-98zM552 322l-6 -69h-491l5 69h492z" />
    <glyph glyph-name="equal" unicode="=" horiz-adv-x="600" 
d="M560 423l-5 -69h-493l6 69h492zM543 221l-4 -69h-492l5 69h491z" />
    <glyph glyph-name="notequal" unicode="&#x2260;" horiz-adv-x="600" 
d="M393 559l60 -27l-253 -516l-61 27zM560 423l-5 -69h-493l6 69h492zM543 221l-5 -69h-492l6 69h491z" />
    <glyph glyph-name="greater" unicode="&#x3e;" horiz-adv-x="600" 
d="M547 252l-510 -220l5 76l476 202l-3 -45l-443 203l5 74l475 -219z" />
    <glyph glyph-name="less" unicode="&#x3c;" horiz-adv-x="600" 
d="M55 252l5 71l510 219l-5 -74l-476 -203l3 45l443 -202l-5 -76z" />
    <glyph glyph-name="greaterequal" unicode="&#x2265;" horiz-adv-x="600" 
d="M550 295l-507 -176l7 74l472 161l-3 -46l-447 161l5 73l479 -176zM532 69l-5 -69h-493l5 69h493z" />
    <glyph glyph-name="lessequal" unicode="&#x2264;" horiz-adv-x="600" 
d="M58 295l5 71l507 176l-5 -73l-474 -161l4 46l447 -161l-6 -74zM532 69l-5 -69h-493l5 69h493z" />
    <glyph glyph-name="plusminus" unicode="&#xb1;" horiz-adv-x="600" 
d="M556 365l-6 -68h-492l5 68h493zM289 534h68l-33 -407h-68zM532 69l-5 -69h-493l5 69h493z" />
    <glyph glyph-name="approxequal" unicode="&#x2248;" horiz-adv-x="600" 
d="M507 447l54 -30q-23 -47 -59 -74t-81 -27q-34 0 -63.5 12t-56.5 27.5t-51.5 28t-46.5 12.5q-32 0 -53 -18.5t-35 -47.5l-52 31q22 46 57.5 72.5t81.5 26.5q33 0 62.5 -11.5t57 -27t52 -27.5t46.5 -12q32 0 53 18.5t34 46.5zM493 245l51 -30q-22 -47 -58 -74t-81 -27
q-34 0 -63.5 12t-57 27.5t-51.5 28t-46 12.5q-32 0 -53 -18.5t-34 -47.5l-53 31q22 46 58 72.5t81 26.5q34 0 63.5 -11.5t56.5 -27t51.5 -27.5t46.5 -12q32 0 53.5 18.5t35.5 46.5z" />
    <glyph glyph-name="asciitilde" unicode="~" horiz-adv-x="600" 
d="M501 346l52 -30q-23 -47 -59 -74t-81 -27q-34 0 -63.5 12t-56.5 27.5t-51.5 28t-46.5 12.5q-32 0 -53 -18.5t-35 -47.5l-52 31q22 46 57.5 72.5t81.5 26.5q33 0 62.5 -11.5t57 -27t52 -27.5t46.5 -12q32 0 53.5 18.5t35.5 46.5z" />
    <glyph glyph-name="logicalnot" unicode="&#xac;" horiz-adv-x="600" 
d="M561 426l-22 -277h-68l16 209h-424l5 68h493z" />
    <glyph glyph-name="asciicircum" unicode="^" horiz-adv-x="600" 
d="M367 635l179 -493h-73l-166 459h45l-239 -459h-76l259 493h71z" />
    </font>
</defs>
</svg>
