<svg width="141" height="126" viewBox="0 0 141 126" version="1.1" xmlns="http://www.w3.org/2000/svg" xmlns:xlink="http://www.w3.org/1999/xlink">
    <title>Vector</title>
    <desc>Created using Figma</desc>
    <g id="Canvas" transform="translate(625 196)">
        <g id="Vector">
            <use xlink:href="#path0_fill" transform="translate(-625 -196)" fill="#EB2135"/>
            <use xlink:href="#path1_fill" transform="translate(-625 -196)" fill="#EB2135"/>
            <use xlink:href="#path2_fill" transform="translate(-625 -196)" fill="#EB2135"/>
            <use xlink:href="#path3_fill" transform="translate(-625 -196)" fill="#EB2135"/>
        </g>
    </g>
    <defs>
        <path id="path0_fill" d="M 35.9628 67.2903C 39.1211 59.1457 42.2114 51.2715 45.2678 43.4311C 48.0185 36.3342 50.7692 29.271 53.5879 22.2079C 53.8596 21.4982 54.4708 20.6871 55.15 20.4168C 65.1681 16.091 75.2202 11.8667 85.2383 7.60849C 85.4421 7.5409 85.6119 7.47331 86.0873 7.33814C 79.4652 23.4583 72.911 39.3757 66.2888 55.4959C 68.4283 55.1241 70.2281 54.6848 72.062 54.482C 81.9782 53.4682 91.9284 52.9613 101.811 54.6172C 105.886 55.2931 109.825 56.6111 113.425 58.7402C 121.813 63.6743 124.598 72.4609 120.522 81.3152C 117.738 87.3645 113.051 91.724 107.618 95.3401C 96.6148 102.674 84.4573 106.932 71.3488 108.621C 65.304 109.399 59.2252 110.345 53.1125 109.534C 50.5994 109.196 48.0864 108.655 45.7093 107.81C 42.4831 106.661 39.9022 104.566 39.5965 100.849C 39.2569 96.8608 40.7172 93.5152 44.0452 91.1833C 47.4752 88.7839 51.4145 88.5473 55.2859 89.6288C 58.7498 90.575 62.1457 91.9606 65.304 93.6165C 73.9637 98.1113 82.4536 97.5368 90.7738 93.0082C 98.5166 88.7839 101.097 80.031 97.0223 72.7313C 94.6791 68.5407 90.7398 66.4116 86.325 64.9585C 80.8915 63.1673 75.2542 62.6942 69.5829 62.6942C 60.1761 62.6604 50.8372 63.4377 41.6681 65.7357C 39.8342 66.1413 38.0344 66.682 35.9628 67.2903Z"/>
        <path id="path1_fill" d="M 141 87.9728C 137.162 90.4399 133.325 92.9407 129.488 95.3739C 116.821 103.485 103.746 110.886 89.8566 116.766C 78.5141 121.565 66.764 124.471 54.4706 125.553C 44.1129 126.465 33.8911 126.094 23.839 123.39C 20.8166 122.579 17.8281 121.328 15.1114 119.808C 7.97984 115.752 5.39891 109.804 6.75729 101.694C 8.38736 92.062 14.0247 85.2693 22.0052 80.1662C 30.8687 74.5225 40.717 71.7513 51.0407 70.5009C 59.2929 69.5208 67.613 68.9801 75.8992 70.1291C 78.6499 70.5009 81.4686 71.2782 84.0155 72.4272C 88.2265 74.3197 90.332 78.2399 89.7547 82.0249C 89.2453 85.472 85.4758 89.0881 81.2988 89.5274C 78.8876 89.764 76.3067 89.426 73.9974 88.7501C 70.8052 87.8039 67.7828 86.3507 64.7265 84.9989C 56.6441 81.4504 48.5616 80.8759 40.4792 84.8637C 35.0117 87.5673 31.412 91.8593 30.2234 97.9423C 29.1367 103.451 31.0385 107.81 35.623 110.987C 40.1057 114.13 45.2336 115.414 50.5653 116.056C 62.4851 117.476 74.0314 115.313 85.34 111.832C 99.7389 107.405 113.391 101.018 126.975 94.5967C 131.627 92.4 136.144 90.0005 140.728 87.7025C 140.83 87.8039 140.898 87.9053 141 87.9728Z"/>
        <path id="path2_fill" d="M 1.76531 108.621C 0.0673271 102.674 -0.374149 96.6581 0.305045 90.4736C 1.52759 79.2875 5.46692 68.9801 9.84772 58.774C 11.8853 54.0089 13.7531 49.1763 15.6888 44.3774C 15.8586 43.9718 15.9605 43.5663 16.2321 42.6538C 11.4099 44.7829 6.96114 46.743 2.51242 48.7031C 2.37659 48.6017 2.27471 48.5342 2.13887 48.4328C 3.83685 46.0333 3.66705 42.6876 7.19886 41.2007C 20.0017 35.7935 32.7026 30.1497 45.4375 24.6411C 45.845 24.4722 46.2525 24.3032 46.8977 24.0666C 46.7619 24.6411 46.694 25.0467 46.5581 25.4522C 41.0227 39.6123 35.4873 53.7386 29.8839 67.8648C 29.5783 68.6421 28.7633 69.3856 28.0161 69.8249C 23.6014 72.5623 18.7791 74.759 14.7719 77.9695C 5.53484 85.303 1.0182 95.0359 1.73135 106.966C 1.76531 107.405 1.76531 107.878 1.79927 108.317C 1.79927 108.419 1.76531 108.52 1.76531 108.621Z"/>
        <path id="path3_fill" d="M 30.2914 24.4722C 28.118 23.9314 25.8427 23.6611 23.7711 22.8162C 19.2885 20.9913 17.7263 16.8345 19.5262 12.3736C 20.7148 9.39963 22.8542 7.16917 25.3672 5.27665C 29.6801 2.03234 34.6043 0.139827 39.9699 0.00464721C 42.6527 -0.0629426 45.5053 0.612956 47.9844 1.6268C 51.8218 3.21516 53.2481 7.13537 51.8897 11.0894C 50.7351 14.4689 48.3919 16.9697 45.5393 19.0312C 41.0226 22.3093 35.9627 24.0328 30.2914 24.4722Z"/>
    </defs>
</svg>
